<svg xmlns="http://www.w3.org/2000/svg" viewBox="0 0 100 100" role="img" aria-labelledby="kZt"><title id="kZt">SASL letter Z: the index finger draws a Z</title><!-- Z: the D hand, with the movement drawn beside it as the signer would write the letter. Base drawing:  Right hand, seen facing the signer (the view in the Real SASL videos). A-Z (Alphabet) in South African Sign Language - The Sign Tutors, 78.88s. Ink style, made by tools/make-hands.py. --><defs><linearGradient id="kZf" gradientUnits="userSpaceOnUse" x1="47.2" y1="79" x2="43.7" y2="99.3"><stop offset=".35" style="stop-color:var(--hp,var(--hand-paper,#f8f4ea))"/><stop offset="1" style="stop-color:var(--hp,var(--hand-paper,#f8f4ea));stop-opacity:0"/></linearGradient><linearGradient id="kZl" gradientUnits="userSpaceOnUse" x1="47.2" y1="79" x2="43.7" y2="99.3"><stop offset=".35" style="stop-color:var(--hand-ink,#1f2a1e)"/><stop offset="1" style="stop-color:var(--hand-ink,#1f2a1e);stop-opacity:0"/></linearGradient><filter id="kZw" x="-10%" y="-10%" width="120%" height="120%" color-interpolation-filters="sRGB"><feTurbulence type="fractalNoise" baseFrequency=".06" numOctaves="2" seed="68" result="n"/><feDisplacementMap in="SourceGraphic" in2="n" scale="3" xChannelSelector="R" yChannelSelector="G" result="d"/><feGaussianBlur in="d" stdDeviation=".9" result="b"/><feComposite in="d" in2="b" operator="arithmetic" k2="2.2" k3="-1.2"/></filter><filter id="kZi" x="-5%" y="-5%" width="110%" height="110%"><feTurbulence type="fractalNoise" baseFrequency=".09" numOctaves="2" seed="71" result="n"/><feDisplacementMap in="SourceGraphic" in2="n" scale=".9" xChannelSelector="R" yChannelSelector="G"/></filter><clipPath id="kZc1"><use href="#kZp"/></clipPath></defs><g filter="url(#kZi)" style="stroke:var(--hand-ink,#1f2a1e);stroke-width:2.2;stroke-linejoin:round;paint-order:stroke"><path id="kZp" style="fill:var(--hp,var(--hand-paper,#f8f4ea))" d="M47.2 79L55.5 72L60.4 46.1L52.7 46.2L45.5 48.6L39 52.7ZM54 83.8L60 75.2A5.5 5.5 0 0 0 53.2 67L43.7 71.4A8.3 8.3 0 1 0 54 83.8ZM61 72.6L64 46.5A3.6 3.6 0 0 0 56.9 45.1L50.2 70.6A5.5 5.5 0 1 0 61 72.6ZM60.4 42.5L52.8 42.4A3.8 3.8 0 1 0 52.9 50L60.5 49.6A3.6 3.6 0 0 0 60.4 42.5ZM51.4 42.7L44.3 45.3A3.5 3.5 0 0 0 46.5 51.9L53.8 49.8A3.8 3.8 0 1 0 51.4 42.7ZM43.5 45.7L37.2 50.3A3 3 0 0 0 40.4 55.3L47.2 51.7A3.5 3.5 0 1 0 43.5 45.7ZM36 53L38.9 79.9A8.3 8.3 0 1 0 54.5 75L41.6 51.3A3 3 0 0 0 36 53Z"/><path style="fill:url(#kZf);stroke:none" d="M39.2 75.9L34.9 97.8L52.6 100.9L55.7 78.7Z"/><path style="fill:none;stroke:url(#kZl);stroke-width:1.1" d="M39.2 75.9L34.9 97.8M55.7 78.7L52.6 100.9"/><path id="kZm0" style="fill:var(--hp,var(--hand-paper,#f8f4ea))" d="M42 52.6L41.8 45.1A2.8 2.8 0 0 0 36.2 45L36 52.6A3 3 0 1 0 42 52.6ZM38.6 47.9L40.8 48.3A2.5 2.5 0 0 0 42.2 43.4L40.1 42.5A2.8 2.8 0 1 0 38.6 47.9ZM39.3 47.4L40.7 49A2.2 2.2 0 0 0 44.4 46.5L43.5 44.7A2.5 2.5 0 1 0 39.3 47.4Z"/><path id="kZm1" style="fill:var(--hp,var(--hand-paper,#f8f4ea))" d="M64 46.1L64.4 30.8A3.3 3.3 0 0 0 57.7 30.5L56.8 45.8A3.6 3.6 0 1 0 64 46.1ZM64.3 30.2L63 21.2A3 3 0 0 0 57 21.9L57.7 31A3.3 3.3 0 1 0 64.3 30.2ZM62.9 20.8L61.6 16A2.6 2.6 0 0 0 56.4 17L57 22A3 3 0 1 0 62.9 20.8Z"/><path id="kZm2" style="fill:var(--hp,var(--hand-paper,#f8f4ea))" d="M49 48.2L47.9 37.1A3.2 3.2 0 0 0 41.5 37.6L42 48.8A3.5 3.5 0 1 0 49 48.2ZM41.8 38.9L43.5 42.1A2.9 2.9 0 0 0 48.8 39.9L47.8 36.4A3.2 3.2 0 1 0 41.8 38.9ZM43.3 41.6L44.4 45.3A2.5 2.5 0 0 0 49.4 44.3L49 40.4A2.9 2.9 0 1 0 43.3 41.6Z"/><path style="fill:var(--hp,var(--hand-paper,#f8f4ea));stroke:none" d="M47.2 79L55.5 72L60.4 46.1L52.7 46.2L45.5 48.6L39 52.7Z"/><path clip-path="url(#kZc1)" style="fill:none;stroke:var(--hand-ink,#1f2a1e);stroke-width:.4;opacity:.6" d="M37.7 55.3l8.2 -1.1M38.3 57.3l6.5 -0.6M39 59.4l5.3 -0.2M39.6 61.4l10.7 -1.9M40.2 63.4l12.6 -2.5M40.9 65.4l7.3 -0.8M41.5 67.4l7.6 -0.9M42.1 69.5l12.8 -2.5M42.7 71.5l10.4 -1.8M43.4 73.5l5.2 -0.2M44 75.5l6.8 -0.6M44.6 77.6l8.2 -1.1"/><path id="kZn0" style="fill:var(--hp,var(--hand-paper,#f8f4ea))" d="M56.5 45.9L55.4 34A3.5 3.5 0 0 0 48.5 34.4L49 46.3A3.8 3.8 0 1 0 56.5 45.9ZM48.6 34.8L49.2 39A3.1 3.1 0 0 0 55.3 38.6L55.5 34.4A3.5 3.5 0 1 0 48.6 34.8ZM49.2 39.2L49.9 42.6A2.7 2.7 0 0 0 55.3 42.1L55.3 38.6A3.1 3.1 0 1 0 49.2 39.2Z"/><path id="kZn1" style="fill:var(--hp,var(--hand-paper,#f8f4ea))" d="M60.7 73.9L64.2 64A4.5 4.5 0 0 0 56.1 60.2L50.8 69.2A5.5 5.5 0 1 0 60.7 73.9ZM64.3 61.2L61.6 52.1A3.9 3.9 0 0 0 54 53.9L55.6 63.2A4.5 4.5 0 1 0 64.3 61.2ZM60.7 50.5L56.8 46.2A3.3 3.3 0 0 0 51.6 50L54.4 55.1A3.9 3.9 0 1 0 60.7 50.5Z"/></g><g filter="url(#kZw)" style="mix-blend-mode:multiply;opacity:.42;stroke:none;--hp:var(--hand-wash,#e3c79c)" transform="translate(.9 1.1)"><use href="#kZp"/><use href="#kZm0"/><use href="#kZm1"/><use href="#kZm2"/><use href="#kZn0"/><use href="#kZn1"/></g><g fill="none" stroke="var(--hand-ink,#1f2a1e)" stroke-width="2.6" stroke-linecap="round" stroke-linejoin="round"><path d="M 69 7 H 93 L 69 33 H 92" stroke-dasharray="4.5 3.5"/><path d="M 87 28.2 L 92.6 33 L 87 37.8"/></g></svg>
