<svg xmlns="http://www.w3.org/2000/svg" viewBox="0 0 100 100" role="img" aria-labelledby="hTt"><title id="hTt">SASL letter T: Index folded over the thumb tip</title><!-- Right hand, seen facing the signer (the view in the Real SASL videos). The A-Z of Fingerspelling (NID), 279.80s (frame 6995). Made by tools/make-hands.py. --><defs><linearGradient id="hTf" gradientUnits="userSpaceOnUse" x1="49.5" y1="72.5" x2="46.2" y2="92.9"><stop offset=".35" style="stop-color:var(--hand-fill,#dca77c)"/><stop offset="1" style="stop-color:var(--hand-fill,#dca77c);stop-opacity:0"/></linearGradient><linearGradient id="hTl" href="#hTf" gradientUnits="userSpaceOnUse" x1="49.5" y1="72.5" x2="46.2" y2="92.9"><stop offset=".35" style="stop-color:var(--hand-line,#9a5f3c)"/><stop offset="1" style="stop-color:var(--hand-line,#9a5f3c);stop-opacity:0"/></linearGradient></defs><g style="stroke:var(--hand-line,#9a5f3c);stroke-width:2.6;stroke-linejoin:round;paint-order:stroke"><path style="fill:var(--hand-fill,#dca77c)" d="M49.5 72.5L59.2 63.8L63.9 37.8L54.7 39.7L46.6 43.5L38.9 48.8ZM56.2 77.3L63.7 67.1A5.5 5.5 0 0 0 56.5 59L45.4 65.2A8.3 8.3 0 1 0 56.2 77.3ZM64.7 64.4L67.5 38.2A3.6 3.6 0 0 0 60.4 36.9L53.9 62.5A5.5 5.5 0 1 0 64.7 64.4ZM63.3 34.3L54 36A3.8 3.8 0 1 0 55.5 43.3L64.7 41.3A3.6 3.6 0 0 0 63.3 34.3ZM53 36.3L45 40.4A3.5 3.5 0 0 0 48.1 46.7L56.2 43.1A3.8 3.8 0 1 0 53 36.3ZM44.5 40.8L37.1 46.5A3 3 0 0 0 40.5 51.4L48.5 46.5A3.5 3.5 0 1 0 44.5 40.8ZM36 49.5L41.3 74.2A8.3 8.3 0 1 0 56.2 67.6L41.4 47.1A3 3 0 0 0 36 49.5Z"/><path style="fill:url(#hTf);stroke:none" d="M41.5 69.5L37.3 91.4L55.1 94.3L58 72.1Z"/><path style="fill:none;stroke:url(#hTl);stroke-width:1.3" d="M41.5 69.5L37.3 91.4M58 72.1L55.1 94.3"/><path style="fill:var(--hand-fill,#dca77c)" d="M41.5 47.2L38.4 42.4A2.8 2.8 0 0 0 33.6 45.2L36.3 50.2A3 3 0 1 0 41.5 47.2ZM33.4 44.9L36.2 52.3A2.5 2.5 0 0 0 41 50.7L38.8 43.1A2.8 2.8 0 1 0 33.4 44.9ZM36.6 53.1L39.5 56.5A2.2 2.2 0 0 0 43.1 53.9L40.7 50.1A2.5 2.5 0 1 0 36.6 53.1Z"/><path style="fill:var(--hand-fill,#dca77c);stroke:none" d="M49.5 72.5L59.2 63.8L63.9 37.8L54.7 39.7L46.6 43.5L38.9 48.8Z"/><path style="fill:var(--hand-fill,#dca77c)" d="M49.2 41.1L43.8 35.5A3.2 3.2 0 0 0 39 39.8L44 45.8A3.5 3.5 0 1 0 49.2 41.1ZM38.3 38.4L40.3 48.6A2.9 2.9 0 0 0 46 47.7L44.7 37.4A3.2 3.2 0 1 0 38.3 38.4ZM40.6 49.4L43.1 54.2A2.5 2.5 0 0 0 47.7 52.2L45.8 47A2.9 2.9 0 1 0 40.6 49.4Z"/><path style="fill:var(--hand-fill,#dca77c)" d="M67.5 37.7L67 25.2A3.3 3.3 0 0 0 60.4 25.3L60.3 37.8A3.6 3.6 0 1 0 67.5 37.7ZM65.8 22.7L60.8 18.7A3 3 0 0 0 56.8 23.2L61.3 27.7A3.3 3.3 0 1 0 65.8 22.7ZM57.8 18.3L55.4 19.3A2.6 2.6 0 0 0 56.8 24.3L59.3 24A3 3 0 1 0 57.8 18.3Z"/><path style="fill:var(--hand-fill,#dca77c)" d="M57.9 37.6L52.3 28.9A3.5 3.5 0 0 0 46.3 32.5L51.4 41.5A3.8 3.8 0 1 0 57.9 37.6ZM45.9 30.5L45.2 40.5A3.1 3.1 0 0 0 51.4 41.1L52.8 31.3A3.5 3.5 0 1 0 45.9 30.5ZM45.3 41.5L47 47.9A2.7 2.7 0 0 0 52.3 46.8L51.4 40.3A3.1 3.1 0 1 0 45.3 41.5Z"/><path style="fill:var(--hand-fill,#dca77c)" d="M64.6 64.9L67.4 50A4.5 4.5 0 0 0 58.7 47.8L54 62.1A5.5 5.5 0 1 0 64.6 64.9ZM67.2 47.5L61.8 33.9A3.9 3.9 0 0 0 54.4 36.5L58.7 50.5A4.5 4.5 0 1 0 67.2 47.5ZM61.8 33.8L59 27.5A3.3 3.3 0 0 0 52.9 29.5L54.3 36.2A3.9 3.9 0 1 0 61.8 33.8Z"/></g></svg>
