<svg xmlns="http://www.w3.org/2000/svg" viewBox="0 0 420 580" width="420" height="580" role="img" aria-label="Ink drawing of a king protea">
<title>Ink drawing of a king protea</title>
<desc>A pen-and-ink botanical drawing of Protea cynaroides, the king protea: a bowl of pointed bracts around a dome of silky florets, on a stout stem with paddle-shaped leaves, shaded with hatching and cross-hatching. Original artwork generated by tools/make-art.mjs.</desc>
<defs><style>
.kp-p{fill:var(--art-paper,#f8f4ea);stroke:var(--art-ink,#1f2a1e);stroke-width:1.1;stroke-linejoin:round}
.kp-h{fill:none;stroke:var(--art-ink,#1f2a1e);stroke-width:.5;stroke-linecap:round;opacity:.8}
.kp-f{fill:none;stroke:var(--art-ink,#1f2a1e);stroke-width:.7;stroke-linecap:round}
.kp-t{fill:none;stroke:var(--art-ink,#1f2a1e);stroke-width:.55;stroke-linecap:round}
.kp-b{fill:none;stroke:var(--art-ink,#1f2a1e);stroke-width:1.6;stroke-linecap:round}
.kp-d{fill:none;stroke:var(--art-ink,#1f2a1e);stroke-width:1.2;stroke-linecap:round}
</style><filter id="kin" x="-3%" y="-3%" width="106%" height="106%">
<feTurbulence type="fractalNoise" baseFrequency="0.04" numOctaves="2" seed="12" result="w"/>
<feDisplacementMap in="SourceGraphic" in2="w" scale="1.6" xChannelSelector="R" yChannelSelector="G"/>
</filter></defs>
<g filter="url(#kin)">
<path class="kp-p" d="M201.5 272.6c-2.5 4.2 1.1 16.1 1.7 24.1 .6 8.1 1.1 16.1 1.7 24.2 .6 8.1 1.2 16.1 1.8 24.2 .7 8.1 1.4 16.2 2.2 24.2 .8 8.1 1.7 16.2 2.7 24.3 1 8 2.1 16 3.2 24 1.1 8 2.2 16 3.2 24 1.1 7.9 2.1 15.9 3 23.8 .9 7.9 1.7 15.9 2.4 23.8 .7 8 1.2 15.9 1.7 23.9 .5 8 .9 16 1.2 24.1 .4 8 .8 16 1.1 24.1 .4 8-2.2 20.3 1.1 24.2 3.4 3.8 16 3.2 19-1 2.9-4.1-.8-16.1-1.2-24.1-.5-8.1-.8-16.1-1.3-24.2-.4-8.1-.9-16.2-1.4-24.3-.6-8.1-1.2-16.2-1.9-24.3-.7-8.1-1.6-16.2-2.6-24.3-.9-8.1-2-16.1-3.1-24.1-1.1-8-2.3-16-3.5-24-1.1-8-2.2-15.9-3.3-23.8-1-8-1.9-15.9-2.8-23.9-.8-7.9-1.6-15.9-2.3-23.9-.7-8-1.3-16-2-24-.6-8-1.2-16.1-1.8-24.1-.6-8 1.3-20.3-1.8-24.1-3.2-3.8-14.4-3-17 1.2Z"/><path class="kp-h" d="M216.8 295.8c.2 4 1.1 16.3 1.6 24.3 .6 8 .9 15.6 1.6 23.6 .8 7.9 1.9 16 2.7 24.1 .9 8.1 1.4 16.3 2.4 24.3 1 8 2.6 15.7 3.7 23.6 1.2 7.8 2.3 15.6 3.3 23.7 1.1 8.1 2 16.6 3 24.7 .9 8.1 1.8 16 2.6 24 .7 8 1.4 16.2 1.9 24.2 .6 8 .8 15.7 1.2 23.8 .4 8.1 .7 16.6 1.2 24.7 .4 8.1 1.3 19.8 1.6 23.8M220 298Q217.8 292.8 212.6 287.8M220.4 303.3Q218.5 298.1 213.5 293.1M221.7 319.2Q218.4 314.1 212.2 309.2M222.1 324.5Q220.3 319.3 215.5 314.3M222.5 329.8Q220.9 324.6 216.4 319.6M222.9 335.1Q219.9 330 213.9 325.1M223.4 340.4Q221.3 335.2 216.2 330.3M223.9 345.7Q221.2 340.6 215.5 335.7M224.3 351Q221.5 345.9 215.6 341M225.3 361.6Q221.9 356.5 215.4 351.8M225.9 366.8Q223.9 361.7 218.9 356.8M226.4 372.1Q224.5 366.9 219.6 362.1M227 377.3Q225 372.2 220.1 367.4M227.6 382.6Q224.3 377.6 218.1 372.9M228.3 387.8Q224.9 382.8 218.4 378.2M229 393Q226.8 387.9 221.6 383.2M230.4 403.5Q228.1 398.5 222.7 393.8M231.2 408.8Q227.7 403.9 221.2 399.4M231.9 414Q228.4 409.1 221.9 404.7M232.7 419.3Q230.7 414.2 225.8 409.5M233.4 424.6Q230.4 419.6 224.4 415.1M234.2 429.9Q231.8 424.8 226.4 420.2M234.9 435.1Q232 430.2 226.2 425.6M235.7 440.4Q232.8 435.4 226.9 430.9M236.4 445.7Q234.4 440.6 229.4 435.9M237.1 451Q233.5 446.1 227 441.6M237.8 456.3Q235.7 451.2 230.5 446.5M238.5 461.7Q234.6 456.8 227.8 452.3M239.7 472.3Q237 467.3 231.4 462.6M240.3 477.7Q237.2 472.7 231.2 468M241.3 488.4Q237.8 483.4 231.4 478.7M241.8 493.8Q238.1 488.8 231.4 484M242.2 499.2Q239.5 494 233.9 489.1M242.6 504.5Q239.2 499.4 232.8 494.6M242.9 509.9Q240.7 504.7 235.4 499.7M243.6 520.6Q240 515.5 233.4 510.5M244 525.9Q241.2 520.8 235.5 515.8M244.3 531.3Q241.4 526.1 235.5 521.1M244.6 536.6Q242.5 531.4 237.4 526.3M245.4 552.6Q243.6 547.4 238.8 542.3M245.6 558Q243.6 552.7 238.6 547.6M245.9 563.3Q242.6 558.1 236.3 553.1M246.2 568.6Q243.2 563.4 237.2 558.4M246.7 579.3Q243.1 574.1 236.5 569.1"/>
<path class="kp-p" d="M231.9 530.3c-.6-1.7-4.6-4.8-6.8-7.2-2.3-2.4-4.6-4.8-6.7-7.2-2.2-2.5-4.1-5.2-6.2-7.8-2-2.5-4.1-5.1-6.2-7.7-2-2.6-4.7-6.8-6.2-7.8-1.4-1-2.9 .2-2.4 1.8 .6 1.7 4 5.4 5.9 8 2 2.7 3.9 5.4 5.9 8 2 2.7 3.8 5.5 5.9 8.1 2.1 2.6 4.4 5.1 6.5 7.6 2.2 2.6 4.8 6.9 6.5 7.6 1.7 .7 4.3-1.6 3.8-3.4Z"/><path class="kp-p" d="M204.3 503.5c2.4-1.5 1.6-9.7 1.6-14.3 .1-4.6-.4-8.9-1.3-13.2-.9-4.3-2.1-8.6-3.9-12.5-1.7-3.9-4-7.8-6.6-11.1-2.7-3.3-5.9-6.4-9.3-8.9-3.4-2.6-7.3-4.7-11.3-6.2-4.1-1.5-8.2-2.9-13-2.9-4.9-.1-13.9-.6-16.1 2.5-2.3 3 1.2 11.4 2.4 15.9 1.3 4.4 3.3 7.6 5.2 10.9 1.8 3.2 3.6 6 5.7 8.6 2 2.6 4.1 4.9 6.4 7.1 2.3 2.2 4.8 4.1 7.6 6.2 2.8 2 5.8 3.9 9.1 6 3.2 2 6.6 4.2 10.5 6.2 4 2 10.6 7.1 13 5.7Z"/><path class="kp-f" d="M204.3 503.5c-.9-1.7-3.7-6.7-5.7-10-1.9-3.3-3.9-6.6-5.9-9.7-2.1-3.2-4.2-6.3-6.5-9.3-2.2-2.9-4.6-5.8-7.1-8.6-2.5-2.8-5.1-5.4-7.9-8-2.7-2.6-5.6-5-8.5-7.4-2.9-2.4-7.5-5.8-9-6.9M198.6 493.5Q189.7 492.5 175.7 486.7M192.7 483.8Q182.2 484.7 168.4 480M186.2 474.5Q175.2 477 161.9 472.7M179.1 465.9Q168.4 469.1 156 464M171.2 457.9Q161.6 460.8 150.5 453.5M162.7 450.5Q154.8 451.6 147.1 438.9"/><path class="kp-h" d="M194.4 490.9Q186 490.5 180.6 490.4M191.3 488.7Q184 488.6 178.8 488.8M190.2 486.4Q182.1 486.7 176 487M186.6 482.2Q178.3 483 172.7 483.5M185.8 479.9Q176.5 481.1 171.2 482M181.5 477.9Q174.7 479.3 169.6 480.1M178.1 473.7Q171.3 475.5 165.3 476.9M178.3 471.4Q169.6 473.6 164.2 475M177.4 469.1Q167.9 471.7 163.3 472.6M171.2 465.8Q164.6 467.7 159.1 469.6M169.2 463.5Q162.9 465.6 157.4 467.5M168.6 461.5Q161.3 463.5 155.9 465.3M165.8 456.9Q158 459 153.9 460.3M163.5 454.9Q156.4 456.6 152.5 457.2M160.2 453.4Q154.8 454.2 150.3 455.2M157.8 448.8Q151.9 448.8 147.8 448.9M155.6 446.8Q150.6 445.7 147 445.2M153.3 444.3Q149.4 442.6 145.7 441"/>
<path class="kp-p" d="M225.9 423.7c1.6-.6 3.9-4.6 5.9-7 2-2.3 4.1-4.6 6-7 2-2.4 3.7-5 5.5-7.5 1.8-2.5 3.6-4.9 5.4-7.4 1.8-2.4 4.9-5.8 5.4-7.4 .5-1.5-1-2.7-2.4-1.8-1.3 .9-3.8 4.8-5.7 7.2-1.9 2.3-3.8 4.7-5.7 7.1-1.9 2.4-3.7 4.8-5.7 7.1-2 2.3-4.1 4.4-6.2 6.7-2.1 2.2-5.8 5-6.3 6.6-.4 1.7 2.1 4 3.8 3.4Z"/><path class="kp-p" d="M247.7 395.7c2.2 1.3 8.3-3.4 11.9-5.2 3.6-1.8 6.8-3.9 9.8-5.8 3-1.9 5.8-3.7 8.3-5.5 2.6-1.9 4.9-3.7 7-5.7 2.2-2.1 4.1-4.1 6-6.5 1.8-2.5 3.6-5 5.2-8 1.7-3 3.6-6 4.7-10.1 1.2-4.1 4.4-11.8 2.4-14.6-2.1-2.8-10.4-2.4-14.9-2.3-4.5 .1-8.2 1.3-12 2.7-3.7 1.4-7.2 3.4-10.4 5.7-3.2 2.3-6.1 5.2-8.5 8.2-2.5 3.1-4.6 6.7-6.2 10.3-1.6 3.6-2.8 7.5-3.6 11.5-.8 3.9-1.2 7.9-1.2 12.1 0 4.3-.8 11.9 1.5 13.2Z"/><path class="kp-f" d="M247.7 395.7c.9-1.5 3.4-6.2 5.2-9.2 1.8-3 3.6-6 5.5-8.9 1.9-3 3.9-5.8 6-8.6 2.1-2.7 4.2-5.4 6.5-7.9 2.3-2.6 4.8-5.1 7.3-7.4 2.5-2.4 5.1-4.6 7.8-6.8 2.7-2.2 7-5.4 8.4-6.4M252.9 386.5Q261.1 385.6 274 380.3M258.4 377.6Q268.1 378.4 280.8 374.1M264.4 369Q274.5 371.2 286.7 367.3M270.9 361.1Q280.8 364 292.2 359.3M278.2 353.7Q287.1 356.3 297.3 349.6M286 346.9Q293.3 347.9 300.4 336.2"/><path class="kp-h" d="M258.3 384.2Q264.6 383.7 268.1 383.4M260.9 382Q266.4 382 271.1 381.8M261.7 379.9Q268.2 380.3 273.2 380.6M262.6 375.8Q271.6 376.8 275.5 377.2M266.5 374.2Q273.3 375.1 278.6 375.8M268.3 372Q274.9 373.4 280.8 374.4M270.3 368Q278.1 369.9 284.4 371.4M272 366.2Q279.7 368.1 286.2 370M273.5 364.4Q281.2 366.4 285.7 367.5M275.8 360.5Q284.3 362.7 289 364.1M278 358.4Q285.8 360.7 291.6 362.6M280.8 356.8Q287.3 358.8 293.5 360.5M283.9 352.8Q290.3 354.7 296 356M285.3 351.2Q291.8 352.5 296.3 353.5M286.8 349.4Q293.3 350.3 298.1 351.5M290.3 345.1Q296 345.3 299.4 345.3M293.1 343.4Q297.2 342.4 299.9 341.9M293.9 341.6Q298.3 339.6 301.2 338.1"/>
<path class="kp-p" d="M235 496.3c1.7 .1 5.3-2.5 7.9-3.7 2.6-1.3 5.1-2.6 7.8-3.7 2.6-1.1 5.3-2 8-3 2.7-1 5.5-2.1 8.2-3.1 2.7-1 6.9-2.1 8.1-3.1 1.2-1 .6-2.8-1-2.8-1.5 0-5.5 1.8-8.2 2.7-2.8 .9-5.5 1.8-8.3 2.7-2.8 .9-5.6 1.7-8.4 2.7-2.7 1-5.4 2.2-8.1 3.4-2.7 1.1-7 2-8 3.3-1 1.3 .4 4.4 2 4.6Z"/><path class="kp-p" d="M264.7 480.3c.5 2.5 7.6 4 11.4 5.3 3.8 1.3 7.6 2 11.4 2.5 3.8 .4 7.7 .5 11.4 .1 3.8-.4 7.6-1.2 11.1-2.5 3.5-1.3 6.9-3.1 10-5.3 3-2.2 5.8-4.8 8.1-7.8 2.4-3 4.6-6 6-10 1.3-4 4.2-11.4 2.2-14.2-1.9-2.7-9.8-2.1-13.9-2.2-4.1-.2-7.3 .6-10.5 1.3-3.2 .6-6 1.4-8.7 2.4-2.8 .9-5.2 2.1-7.6 3.4-2.5 1.4-4.8 2.9-7.2 4.7-2.5 1.7-4.9 3.7-7.5 5.9-2.6 2.2-5.3 4.4-8 7.1-2.7 2.8-8.7 6.9-8.2 9.3Z"/><path class="kp-f" d="M264.7 480.3c1.6-.3 6.6-1.3 9.8-2 3.3-.7 6.5-1.5 9.7-2.3 3.2-.9 6.4-1.8 9.5-2.9 3.1-1.1 6.1-2.3 9.1-3.6 3-1.3 5.9-2.8 8.8-4.4 2.8-1.5 5.6-3.3 8.4-5.1 2.8-1.8 6.9-4.7 8.2-5.6M274.5 478.3Q277.7 471.1 286.3 461M284.2 476Q286.3 467 293.9 456.7M293.7 473.1Q294.6 463.2 301.7 453.3M302.8 469.5Q303 459.7 310.5 450.8M311.6 465.1Q311.7 456.3 320.8 449M320 460Q321.2 453.1 333.9 450.2"/><path class="kp-h" d="M277.8 475Q280.4 468.5 282.2 464.8M280.9 473Q282.5 467.4 283.4 463.9M282.7 473.9Q284.6 466.3 285.8 461.3M287.4 471Q288.7 464.2 289.7 460.4M289.7 471.3Q290.8 463.2 291.6 457.4M292.1 469Q292.8 462.2 293.6 456.2M296.3 466.8Q296.9 460.3 297.2 454.8M298.7 467Q298.9 459.5 299.2 453.9M300.7 465Q301 458.6 301.3 453.3M305 464.7Q305.2 456.9 305.1 451M307.3 463.8Q307.4 456.1 307.5 450.8M309.7 462Q309.6 455.3 309.7 449.7M314 459.6Q314.2 453.8 314.2 449.1M316 458.6Q316.6 453.1 316.7 448.8M318.3 458Q319 452.4 319.3 448.7M323 455.9Q324.4 451.5 325.2 448.9M325.6 454.9Q327.3 451.3 329.2 447.8M328 454.2Q330.2 451 332 448.7"/>
<path class="kp-p" d="M204.5 216.8c1.8-1.9 8.7-7.6 10.8-11.6 2-4 1.5-8.2 1.6-12.3 .1-4.2-.4-8.5-1-12.8-.6-4.3-1.7-8.6-2.8-13.1-1.2-4.4-2.6-8.8-4.2-13.3-1.6-4.5-3.4-9.1-5.4-13.6-2-4.6-3.9-9.2-6.5-13.8-2.7-4.7-7-14.4-9.3-14.1-2.2 .4-3.3 10.9-4.3 16.1-1.1 5.2-1.5 10.2-1.9 15.1-.5 4.9-.8 9.8-.9 14.5-.1 4.8-.1 9.5 .2 14 .3 4.5 .7 9 1.4 13.3 .8 4.3 1.7 8.5 3.1 12.4 1.4 4 2.2 8.1 5.4 11.3 3.2 3.2 11.5 6.6 13.8 7.9 2.3 1.4-1.8 2 0 0Z"/><path class="kp-h" d="M206.1 214.3c1.2-3.7 6.8-13.7 7.2-21.8 .5-8.2-3.6-22.8-4.4-27.3M205.3 214.4c.5-3 3-10.8 3.1-17.5 0-6.7-2.4-19-2.8-22.8M205 214.5c0-2.8 .3-10.2-.2-16.5-.5-6.3-2.5-17.8-3-21.4M204.3 214.6c-.8-5.3-2.8-19.8-4.7-32.1-2-12.2-5.9-34.3-7.1-41.1M203.3 214.7c-1.1-3.2-4.8-11.6-6.5-19.2-1.8-7.7-3.4-22.3-4.1-26.8M202.5 214.5c-1.6-2.9-7.6-10.6-10-17.8-2.3-7.1-3.5-20.9-4.3-25.1M202.1 215.1c-2.3-3.5-11-12.6-14-20.9-2.9-8.4-3.1-24.3-3.7-29.2M207.1 214.2l-10.8-2.6M209.3 210.9l-16.4-1.6M212.2 207.8l-21.2-1.2M214.3 204.8l-25-1.4M214.7 201.5l-26.9-.7M215.2 198.3l-28.5-1.1M215.2 194.7l-29.4-.7M215.4 191.1l-30.3-.4M215.1 187.6l-31.3-.6M214.7 184.5l-31-.4M214.7 180.6l-31.4-.1M214 177.6l-31.2-1.1M213 173.7l-30.6-1M212.7 170.4l-30.8-1.3"/><path class="kp-b" d="M204.5 216.8c1.8-1.9 8.7-7.6 10.8-11.6 2-4 1.5-8.2 1.6-12.3 .1-4.2-.4-8.5-1-12.8-.6-4.3-1.7-8.6-2.8-13.1-1.2-4.4-2.6-8.8-4.2-13.3-1.6-4.5-4.5-11.4-5.4-13.6"/>
<path class="kp-p" d="M210 230.7c2.2-1.5 10.4-6 13-9.2 2.7-3.2 2.5-6.8 3-10.3 .5-3.5 .4-7.1 .1-10.8-.3-3.7-1-7.4-1.9-11.2-.9-3.8-2.2-7.7-3.5-11.6-1.4-3.9-3-7.9-4.8-11.9-1.9-4-3.6-8-6.1-12.1-2.6-4.1-6.5-12.8-9.1-12.5-2.6 .3-4.7 9.8-6.4 14.4-1.6 4.6-2.5 8.9-3.4 13.3-1 4.3-1.8 8.6-2.3 12.7-.6 4.2-1 8.2-1.1 12.2-.1 3.9-.1 7.7 .4 11.4 .4 3.6 1 7.2 2.2 10.5 1.2 3.3 1.7 6.8 5 9.3 3.4 2.5 12.4 4.8 14.9 5.8 2.5 .9-2.1 1.5 0 0Z"/><path class="kp-h" d="M212.6 228.6c1.6-3.2 8.5-11.7 9.5-19.1 1.1-7.3-2.7-20.9-3.3-25M211.5 228.8c.8-2.7 4.6-9.6 5.1-16 .6-6.4-1.6-18.4-2-22.1M210.7 228.9c.1-3.9 1.6-14.3 1-23.5-.5-9.2-3.5-26.2-4.2-31.5M209.7 228.8c-.6-4.4-2.2-16-3.3-26.4-1.1-10.3-2.9-29.9-3.5-35.9M208.8 229c-1.1-3-4.9-10.8-6.3-18-1.4-7.2-1.6-21-1.9-25.2M208.2 228.9c-1.7-3.3-8.1-11.6-10.1-19.6-2-8-1.5-23.6-1.8-28.3M207.4 229c-1.8-1.8-8.7-6.2-11-11-2.3-4.8-2.4-14.8-2.9-17.7M213 228.6l-11.7-1.6M216.3 226.3l-19.1-.9M219.2 223.8l-23.8-.5M221.9 220.8l-27.8-.5M222.6 218.1l-29.8-.1M223.6 215.7l-31.8-.1M224.1 212.8l-33-.1M224.6 209.7l-34.2 0M224.8 207l-35.1-.2M224.3 204.1l-35.1-.1M224.6 200.9l-35.6 0M223.8 198.1l-34.6-.7M223.6 194.8l-34.8-.2M223 192l-33.6-.4"/><path class="kp-b" d="M210 230.7c-2.5-1-11.5-3.3-14.9-5.8-3.3-2.5-3.8-6-5-9.3-1.2-3.3-1.8-6.9-2.2-10.5-.5-3.7-.5-7.5-.4-11.4 .1-4 .5-8 1.1-12.2 .5-4.1 1.9-10.6 2.3-12.7"/>
<path class="kp-p" d="M207.9 247.6c2.4-.9 11.6-3.5 14.5-5.4 3-2 2.7-4 3.2-6.2 .5-2.1 .3-4.3-.1-6.5-.4-2.3-1.3-4.6-2.4-7-1-2.3-2.4-4.8-4.1-7.3-1.6-2.5-3.4-5.1-5.5-7.7-2.1-2.6-4.1-5.3-7-8-2.8-2.7-7.5-8.7-10.3-8.3-2.7 .5-4.6 7.6-6.2 11-1.6 3.5-2.4 6.6-3.3 9.7-.9 3.1-1.6 6.1-2.1 8.9-.4 2.9-.8 5.6-.8 8.2 0 2.5 .2 5 .7 7.2 .5 2.2 1.3 4.3 2.6 6.1 1.3 1.8 1.9 3.9 5.4 4.8 3.4 .8 12.8 .4 15.4 .5 2.5 .1-2.5 .9 0 0Z"/><path class="kp-h" d="M210.2 246.3c1.5-1 7.4-3.5 9-6 1.7-2.6 .6-7.6 .7-9.1M209.5 246.6c1-2 5.8-7.1 6-12 .2-4.8-3.9-14.4-4.6-17.3M209.2 246.6c.6-1.2 3.5-4 4-6.9 .4-2.9-1.3-8.7-1.5-10.5M208.1 246.6c.2-1.6 1.1-5.2 .7-9.3-.4-4-2.5-12.4-3-14.9M207.6 247c-.5-1.1-2-3.5-2.9-6.7-.9-3.1-2.2-10.2-2.6-12.3M206.3 247.2c-1-.8-4.4-2.3-5.8-4.8-1.5-2.5-2.5-8.6-2.9-10.4M205.9 247.1c-1.6-1.3-7.5-3.7-9.6-7.4-2.1-3.7-2.4-12.3-2.9-14.8M205.3 247.2c-2.2-.9-10.5-2.4-13.1-5.3-2.7-3-2.5-10.3-3-12.4M210.9 246.2l-11.9 .8M214.5 245.2l-19.6 1.9M218.6 243.7l-25.8 2.3M221.3 242.1l-30.2 2.8M222.4 240.1l-32.3 3.3M223 238.5l-34.5 3.8M223.8 237.1l-36 3.3M224 235.4l-36.5 3.3M223.9 233.4l-37.5 3.4M223.6 232l-37.5 3.3M223.9 230l-38 3.4M223.4 228.1l-37.8 3.2M222.6 226.3l-37.4 3.3M222 224.5l-36.4 2.8"/><path class="kp-b" d="M207.9 247.6c2.4-.9 11.6-3.5 14.5-5.4 3-2 2.7-4 3.2-6.2 .5-2.1 .3-4.3-.1-6.5-.4-2.3-1.3-4.6-2.4-7-1-2.3-2.4-4.8-4.1-7.3-1.6-2.5-4.6-6.4-5.5-7.7"/>
<path class="kp-p" d="M188.4 235.4c1.4-1.7 7.4-6.9 8.5-10.1 1.2-3.2-.6-6.1-1.6-9.2-1-3-2.6-6.1-4.4-9.2-1.8-3.1-4-6.2-6.3-9.3-2.3-3.1-4.9-6.2-7.7-9.4-2.7-3.2-5.7-6.4-8.8-9.6-3.1-3.3-6.1-6.5-9.9-9.8-3.8-3.2-10.7-10.3-12.7-9.6-2.1 .7 .1 9.3 .6 13.6 .5 4.3 1.4 8.2 2.4 12.1 .9 4 2 7.8 3.2 11.5 1.2 3.7 2.6 7.2 4.1 10.6 1.6 3.4 3.2 6.6 5.1 9.7 1.9 3 3.9 6 6.2 8.6 2.4 2.6 4.4 5.5 7.9 7.1 3.5 1.7 11.1 2.5 13.4 3 2.2 .5-1.5 1.7 0 0Z"/><path class="kp-h" d="M189.7 233.2c.4-2.4 3.3-9.2 2.2-14.2-1-5-7-13.3-8.4-16M189.1 233.5c-.8-3.5-1.1-13.3-4.6-21-3.6-7.6-13.8-20.9-16.6-25.1M188.5 233.6c-.9-2.8-2.3-10.2-5.4-16.6-3.1-6.4-11.1-18.2-13.3-21.8M187.7 233.8c-1.6-3-5.6-11.1-9.7-18.3-4-7.3-12.2-21-14.6-25.2M187.3 234.2c-1.5-1.7-5.5-6.1-8.6-10.5-3.1-4.4-8.4-13.4-10-16.1M186.3 234.1c-2.3-2-9.3-6.9-13.5-12.4-4.2-5.5-9.6-17.2-11.6-20.6M186 234.5c-2.9-2.4-12.7-8.1-17.8-14.7-5.1-6.5-10.6-20.5-12.8-24.6M190.4 233.1l-10.1 .4M192 230.4l-14.8 2M194.4 227.9l-20.2 2.9M196 225.1l-23.3 3.7M195.3 222.5l-24.7 4.5M195.1 220.3l-26.9 4.9M194.4 217.8l-27.6 4.7M193.6 214.9l-28.5 5.1M192.4 212.6l-29.4 5.3M190.8 210.2l-29.2 5M189.9 207.8l-29.4 5.2M188.2 205.1l-29.3 4.9M186.3 202.7l-29.1 5.1M184.7 200.2l-28.6 4.6"/><path class="kp-b" d="M188.4 235.4c1.4-1.7 7.4-6.9 8.5-10.1 1.2-3.2-.6-6.1-1.6-9.2-1-3-2.6-6.1-4.4-9.2-1.8-3.1-4-6.2-6.3-9.3-2.3-3.1-4.9-6.2-7.7-9.4-2.7-3.2-7.3-8-8.8-9.6"/>
<path class="kp-p" d="M231.1 230c2-1 9-3.4 12.1-5.9 3-2.4 4.4-5.7 6.1-8.8 1.8-3.1 3.1-6.4 4.3-9.8 1.2-3.4 2.2-6.9 3-10.6 .8-3.7 1.3-7.5 1.7-11.4 .5-3.9 .7-7.8 .8-11.9 .1-4.1 .2-8.2-.2-12.5-.5-4.3-.2-13.2-2.3-13.4-2.1-.2-7.4 8.4-10.4 12.5-2.9 4.1-5.2 8-7.5 11.9-2.4 3.9-4.6 7.8-6.6 11.5-2 3.8-3.8 7.5-5.5 11.1-1.6 3.6-3.1 7.2-4.2 10.6-1.1 3.4-2 6.7-2.4 9.9-.3 3.2-1.5 6.5 .4 9.3 1.8 2.8 8.9 6.3 10.7 7.5 1.8 1.3-2 1 0 0Z"/><path class="kp-h" d="M233.6 228.6c1.8-2 8-6.9 11-11.9 3.1-5 6.1-15.1 7.4-18.2M232.5 228.6c1.9-2.9 8.1-10.4 11.2-17.5 3.1-7.1 6.3-20.9 7.6-25M232.1 228.7c1.5-3.1 6.1-11 8.9-18.4 2.8-7.4 6.6-21.8 7.9-26.2M231.6 228.2c1.1-3.3 3.8-11.6 6.3-19.5 2.5-7.9 7.2-23.4 8.6-28M230.8 228.4c.5-2.6 1-9.5 2.7-15.9 1.7-6.5 6.2-18.9 7.4-22.6M230.1 228.5c-.2-2.2-1.8-7.7-1-12.8 .8-5 4.8-14.5 5.7-17.4M229.5 228.2c-.1-3.4-2.7-12.5-1-20.6 1.6-8.1 8.9-23.3 10.7-27.9M229.3 228.1c-.9-1.8-5.1-6.4-5.5-10.6-.4-4.3 2.6-12.5 3.1-15M233.5 228.5l-8.5-3.4M237 226.8l-14.7-3.6M239.6 225.3l-18.4-4.6M242.8 223.7l-21.5-5.4M244.4 220.9l-23-5.3M245.6 218.9l-24.4-5.3M247.7 216.5l-25.9-5.8M248.9 213.6l-26.3-5.5M250.1 210.9l-26.7-5.9M251.2 208.2l-27.3-5.6M252.4 205.9l-27.4-6.2M253.2 203.3l-26.7-6.7M254.1 200.4l-26.6-6.5M254.9 197l-26-6.1"/><path class="kp-b" d="M231.1 230c-1.8-1.2-8.9-4.7-10.7-7.5-1.9-2.8-.7-6.1-.4-9.3 .4-3.2 1.3-6.5 2.4-9.9 1.1-3.4 2.6-7 4.2-10.6 1.7-3.6 3.5-7.3 5.5-11.1 2-3.7 5.5-9.6 6.6-11.5"/>
<path class="kp-p" d="M229.2 215.4c1.8-1.9 8.3-7 11-11.1 2.7-4.1 3.8-8.8 5.2-13.3 1.4-4.6 2.5-9.4 3.4-14.2 .9-4.8 1.5-9.7 2-14.7 .5-5 .7-10.1 .9-15.3 .1-5.1 0-10.3-.2-15.6-.2-5.3-.3-10.6-1-16-.7-5.5-1.1-16.7-3.1-16.7-1.9-.1-6.1 10.9-8.6 16.2-2.4 5.3-4.2 10.5-6.1 15.7-1.9 5.2-3.6 10.3-5.2 15.4-1.6 5.1-3.1 10.2-4.4 15.1-1.2 5-2.3 9.9-3.1 14.7-.8 4.8-1.5 9.6-1.6 14.2-.2 4.7-1 9.4 .8 13.6 1.8 4.3 8.3 10 10 12 1.6 2-1.9 1.8 0 0Z"/><path class="kp-h" d="M231.4 212.6c1.7-3.2 7.3-11.7 9.9-19.2 2.5-7.5 4.4-21.5 5.3-25.8M230.8 212.5c1.3-3.1 5.4-11.2 7.4-18.4 2-7.3 4.1-21 4.9-25.1M230.1 212.8c1.3-5.5 5.3-20.6 7.6-33 2.4-12.4 5.3-34.6 6.4-41.5M229.8 212.5c.7-4.6 2.8-17.2 4.5-27.6 1.8-10.4 4.8-29 5.8-34.8M228.9 212.6c.4-4.4 1-16.4 2.3-26.5 1.4-10 4.8-28.1 5.8-33.7M228.7 212.7c-.1-4-1.7-14.8-.9-23.9 .8-9.1 4.6-25.5 5.5-30.6M227.9 212.5c-.7-3.3-4.1-12.1-4.1-19.6 0-7.6 3.5-21.4 4.2-25.6M227.3 212.5c-1-2.8-5.3-10.4-5.9-16.9-.7-6.5 1.7-18.4 2-22M231.8 212.6l-8.8-4.7M234.2 209.4l-13.2-4.6M237.3 206.6l-17.2-5.8M239.9 203.4l-20-6.3M240.9 200.2l-21.4-6.7M242.5 196.1l-23.1-6.3M243.6 192.7l-24-6.7M244.8 188.6l-24.6-6.5M245.4 185.2l-24.7-6.8M246.6 180.9l-25.3-6.6M247.2 177.5l-24.9-7.1M248.1 173.4l-24.7-6.8M248.5 169.6l-24.5-7.3M249 165.3l-24.2-7.2"/><path class="kp-b" d="M229.2 215.4c-1.7-2-8.2-7.7-10-12-1.8-4.2-1-8.9-.8-13.6 .1-4.6 .8-9.4 1.6-14.2 .8-4.8 1.9-9.7 3.1-14.7 1.3-4.9 2.8-10 4.4-15.1 1.6-5.1 4.3-12.8 5.2-15.4"/>
<path class="kp-p" d="M219.9 262.2c2.1-.3 9.6-.9 12.4-1.8 2.8-1 3.3-2.4 4.4-3.8 1.1-1.4 1.7-3 2.1-4.7 .4-1.7 .5-3.4 .5-5.3-.1-1.9-.4-3.8-.9-5.9-.4-2-1.1-4.1-1.9-6.3-.9-2.2-1.7-4.5-3.1-6.9-1.4-2.4-3.1-7.6-5.5-7.5-2.3 .1-6.2 5.5-8.6 8-2.4 2.5-3.9 4.8-5.6 7.1-1.7 2.3-3.2 4.5-4.5 6.6-1.4 2.1-2.5 4.1-3.4 6-.8 1.9-1.5 3.7-1.8 5.4-.3 1.6-.5 3.2 0 4.6 .5 1.3 .2 2.8 2.8 3.5 2.7 .8 11 .8 13.1 1 2.2 .1-2 .3 0 0Z"/><path class="kp-h" d="M222 261.8c1.5-.6 6.7-1.8 8.7-3.4 2.1-1.6 3.1-5.2 3.7-6.3M221.4 262c1.3-1.4 6.4-4.4 8-8.2 1.5-3.8 1.1-12.2 1.4-14.7M220.6 261.6c.8-1.2 3.5-3.8 4.7-7.4 1.1-3.7 1.8-11.9 2.1-14.3M219.8 261.7c.2-1.3 .7-4.1 1.5-8 .9-3.8 2.8-12.7 3.3-15.2M219 261.9c-.5-.8-2.9-2.6-3-5.2-.1-2.6 1.9-8.8 2.3-10.6M218.6 261.9c-1-1-5.4-3.1-5.7-6.3-.4-3.2 2.9-10.8 3.5-13M217.8 262.1c-1.6-1.2-8.6-3.4-9.5-6.8-.8-3.4 3.7-11.1 4.5-13.4M222.9 261.9l-10.8-.4M225.5 261.4l-16.5-.1M229.1 260.5l-21.5-.2M231.8 260l-25.1-.3M232.7 259.3l-26.5-.8M234 258l-28.6-.7M234.7 257.3l-29.4-.6M235.9 256.2l-30.4-1.1M236.3 254.7l-30.7-1M236.9 253.2l-31.2-.9M237.5 252.4l-31.5-1.4M237.6 250.8l-31.1-1.3M237.5 249.5l-30.6-1.2M237.6 247.6l-30.1-1.2"/><path class="kp-b" d="M219.9 262.2c-2.1-.2-10.4-.2-13.1-1-2.6-.7-2.3-2.2-2.8-3.5-.5-1.4-.3-3 0-4.6 .3-1.7 1-3.5 1.8-5.4 .9-1.9 2-3.9 3.4-6 1.3-2.1 3.7-5.5 4.5-6.6"/>
<path class="kp-p" d="M227.2 246.4c2.1-.5 9.6-1.6 12.7-3.1 3-1.5 4-3.9 5.5-6.1 1.5-2.2 2.5-4.6 3.3-7.1 .9-2.5 1.5-5.2 1.9-8 .3-2.7 .5-5.6 .5-8.6 0-3-.2-6.1-.6-9.2-.4-3.2-.7-6.4-1.7-9.8-.9-3.4-1.5-10.6-3.9-10.7-2.4-.1-7.6 6.8-10.6 10-3 3.2-5.1 6.3-7.3 9.3-2.3 3.1-4.3 6-6.1 8.9-1.9 2.9-3.5 5.8-4.9 8.5-1.3 2.7-2.5 5.4-3.2 7.9-.8 2.5-1.3 5-1.2 7.2 .1 2.3-.6 4.7 2 6.4 2.6 1.8 11.4 3.6 13.6 4.4 2.3 .7-2.1 .5 0 0Z"/><path class="kp-h" d="M229 245.4c2-1.8 9.1-5.9 11.9-10.9 2.8-5.1 4.1-16.1 4.9-19.3M228.3 245.4c1.1-1.1 4.7-3.5 6.7-6.6 1.9-3.2 4.1-10.2 4.9-12.3M227.4 245.3c.4-1.7 1.5-5.8 2.9-10.4 1.4-4.6 4.7-14.2 5.6-17M226.8 245.3c-.1-1.3-1.2-3.9-.7-7.3 .5-3.4 3-10.9 3.7-13.1M225.9 245.5c-.5-2.4-3.8-8.3-3-14.2 .8-5.9 6.5-17.7 7.8-21.2M224.9 245.5c-1.4-1.6-7.8-5.7-8.4-10-.5-4.4 4.2-13.3 5-16M230.2 245.8l-10.8-2.3M232.9 244.7l-17.1-2.1M236.5 244l-22-2.8M239.2 243.1l-25.1-4M240.7 241.1l-27.5-3.8M242.2 239.7l-29.5-4.2M243.4 237.9l-30.4-4.3M244.8 236.4l-31.3-4.6M245.6 234.4l-31.8-4.8M246.3 232l-31.5-4.5M247.1 230.2l-31.6-4.7M247.7 228l-31.6-4.3M248.2 226l-31.3-4.4M248.7 223.9l-30.6-4.9"/><path class="kp-b" d="M227.2 246.4c-2.2-.8-11-2.6-13.6-4.4-2.6-1.7-1.9-4.1-2-6.4-.1-2.2 .4-4.7 1.2-7.2 .7-2.5 1.9-5.2 3.2-7.9 1.4-2.7 3-5.6 4.9-8.5 1.8-2.9 5-7.4 6.1-8.9"/>
<path class="kp-p" d="M205.7 264.1c1.9-.8 9-3 11.1-4.5 2.1-1.5 1.5-2.9 1.5-4.4 .1-1.5-.4-3-1.1-4.5-.7-1.6-1.7-3.2-2.9-4.9-1.3-1.6-2.8-3.3-4.4-5-1.7-1.8-3.5-3.5-5.6-5.3-2-1.8-3.9-3.6-6.6-5.5-2.7-1.8-7.4-6-9.5-5.5-2 .5-2.4 5.9-3 8.5-.7 2.6-.9 5-1.1 7.3-.2 2.3-.3 4.5-.2 6.6 .1 2.1 .3 4.1 .7 6 .4 1.8 .9 3.5 1.7 5.1 .7 1.5 1.7 2.9 3 4.1 1.3 1.2 2.1 2.5 4.9 2.8 2.7 .4 9.6-.7 11.5-.8 1.9-.2-1.8 .7 0 0Z"/><path class="kp-h" d="M207.5 263.1c1.1-1.3 6.3-4.7 6.5-7.8 .2-3.1-4.4-9-5.3-10.8M206.9 263.5c.5-1.1 3.2-3.9 3-6.5-.1-2.6-3.3-7.7-4-9.2M206.2 263.4c-.3-1.4 0-4.5-1.3-8.1-1.4-3.5-5.6-11-6.7-13.2M205.2 263.6c-.6-.7-2.1-2-3.4-4.4-1.2-2.3-3.6-7.9-4.4-9.5M204.6 263.9c-.9-.4-4.1-1.1-5.7-2.7-1.5-1.6-3.1-5.8-3.8-7M203.6 264.1c-1.4-.3-6.5-.1-8.8-1.4-2.3-1.4-4.3-5.6-5.1-6.8M208.3 262.9l-9.3 1.4M210.7 261.8l-15 2.7M213.6 260.7l-19.6 3.6M215.8 259.8l-22.7 3.8M216.5 258.1l-24.6 4.2M216.8 257.1l-26.1 4.6M216.8 255.8l-27.1 5M216.9 254.9l-27.9 4.7M216.8 253.5l-28.5 4.7M216.4 252.1l-28.8 5M216 251.1l-29 5M215.4 250l-28.9 4.2M214.6 248.4l-28.6 4.9M213.6 247l-28.2 4.4"/><path class="kp-b" d="M205.7 264.1c1.9-.8 9-3 11.1-4.5 2.1-1.5 1.5-2.9 1.5-4.4 .1-1.5-.4-3-1.1-4.5-.7-1.6-1.7-3.2-2.9-4.9-1.3-1.6-2.8-3.3-4.4-5-1.7-1.8-4.6-4.4-5.6-5.3"/>
<path class="kp-p" d="M180.3 222.8c1.3-2.2 6.8-9.1 7.6-13.4 .8-4.3-1.3-8.1-2.7-12.1-1.4-4.1-3.3-8-5.5-12-2.1-4-4.7-7.9-7.3-11.9-2.7-4-5.6-8-8.7-12-3.1-4-6.4-8-9.8-12-3.4-4-6.7-8-10.8-12-4.1-3.9-11.7-12.4-13.7-11.7-1.9 .8 1 10.9 1.9 16.1 .8 5.1 2.1 9.9 3.4 14.7 1.3 4.7 2.8 9.4 4.3 13.9 1.6 4.6 3.3 9 5.2 13.3 1.9 4.2 3.9 8.4 6.2 12.3 2.2 3.9 4.6 7.8 7.3 11.3 2.6 3.6 5 7.3 8.8 9.9 3.8 2.6 11.5 4.7 13.8 5.6 2.3 1-1.3 2.3 0 0Z"/><path class="kp-h" d="M181.5 219.7c.2-3.1 3-12.1 1.4-18.9-1.7-6.8-9.4-18.3-11.3-22M181.1 219.8c-.7-4-.9-15.6-4.4-24.3-3.5-8.7-13.6-23.2-16.3-27.9M180 220.2c-1.2-3.8-3.3-14.3-7-22.8-3.8-8.5-13.1-23.5-15.7-28.2M179.4 220.6c-1.2-3-4.1-11.2-7.4-18-3.4-6.8-10.5-19.2-12.6-23.1M179 220.9c-2.4-4.1-9.2-15.1-14.5-24.7-5.4-9.6-14.6-27.4-17.6-32.9M178.3 220.8c-2.2-2.8-9.1-10.2-13.7-17.2-4.6-6.9-11.7-20.4-14-24.4M177.6 221.2c-2.8-3-12-10.8-17.2-18.3-5.3-7.6-12.1-22.6-14.5-27.1M181.6 219.9l-9.4-1.1M183.8 216.1l-15.5 1.5M185.8 212.3l-20 3M186.8 209.1l-23.2 3.5M186.2 206l-25 3.6M185.1 202.2l-26.1 4.8M184.8 198.9l-27.8 4.7M183.1 195.8l-28 4.9M181.7 192.9l-29 4.8M180 189.5l-29.2 5.2M179 186.2l-29.5 5M177.1 182.7l-29.7 4.8M174.6 179.7l-28.6 4.5M172.6 176.6l-28.2 4.3"/><path class="kp-b" d="M180.3 222.8c1.3-2.2 6.8-9.1 7.6-13.4 .8-4.3-1.3-8.1-2.7-12.1-1.4-4.1-3.3-8-5.5-12-2.1-4-4.7-7.9-7.3-11.9-2.7-4-5.6-8-8.7-12-3.1-4-8.2-10-9.8-12"/>
<path class="kp-p" d="M188.7 252.9c1.5-1.3 7.6-5.7 8.8-8.1 1.2-2.5-.6-4.4-1.6-6.5-1.1-2.2-2.7-4.2-4.6-6.3-1.8-2.1-4-4.2-6.4-6.3-2.4-2.2-5-4.3-7.8-6.5-2.8-2.1-5.8-4.2-9-6.4-3.2-2.2-6.2-4.4-10-6.6-3.8-2.1-11.1-7-12.9-6.2-1.9 .8 1 7.6 1.8 11 .8 3.4 2 6.5 3.1 9.5 1.2 3 2.5 5.9 3.9 8.7 1.4 2.7 2.9 5.3 4.5 7.8 1.7 2.4 3.4 4.7 5.4 6.8 1.9 2 3.9 3.9 6.1 5.5 2.3 1.7 4.3 3.5 7.4 4.1 3.1 .6 9.4-.4 11.3-.5 1.9 0-1.4 1.4 0 0Z"/><path class="kp-h" d="M190.1 251.4c.2-2.1 3.4-8.3 1.5-12.7-1.9-4.4-10.7-11.5-12.8-13.8M189.7 251.4c-.8-2.4-1.1-9.1-4.8-14.5-3.7-5.4-14.5-14.9-17.4-17.9M188.7 251.9c-1.2-2.1-3-7.4-6.9-12.4-3.8-5-13.4-14.7-16.1-17.6M188.3 252.1c-1.9-2.1-7-6.9-11.6-12.2-4.7-5.4-13.5-16.7-16.2-20M187.1 252.3c-2-1.2-7.9-4-11.9-7.7-4.1-3.7-10.2-12.1-12.3-14.5M186.5 252.5c-1.6-.5-6.3-1-9.4-2.8-3.1-1.7-7.7-6.6-9.3-7.9M190.6 250.9l-8.6 2.4M192.9 248.8l-13.8 4M195 246.6l-18 5.8M196.6 244.5l-21.5 6.5M196 243.2l-22.8 7.1M195.8 241.5l-24.8 7.7M195 239.3l-25.7 7.9M194.3 238l-26.6 7.9M193.1 236.3l-27 7.8M191.5 234.5l-27.1 8.4M190.5 232.8l-27.3 8.1M188.7 230.9l-27.4 8.3M187.2 229.3l-27.2 7.8M185.2 227.6l-26.5 7.8"/><path class="kp-b" d="M188.7 252.9c1.5-1.3 7.6-5.7 8.8-8.1 1.2-2.5-.6-4.4-1.6-6.5-1.1-2.2-2.7-4.2-4.6-6.3-1.8-2.1-4-4.2-6.4-6.3-2.4-2.2-5-4.3-7.8-6.5-2.8-2.1-7.5-5.3-9-6.4"/>
<path class="kp-p" d="M209.1 276c1.8-.5 8.9-2.2 11-3.2 2.2-1.1 1.7-2 1.9-3 .2-1-.2-2-.7-3.1-.6-1-1.5-2.1-2.5-3.2-1.1-1.1-2.4-2.2-3.9-3.3-1.4-1.1-3.1-2.3-4.9-3.5-1.9-1.2-3.7-2.4-6.1-3.6-2.5-1.2-6.8-4.1-8.7-3.6-2 .5-2.4 4.6-3.1 6.6-.7 2-.9 3.8-1.2 5.5-.2 1.7-.4 3.3-.4 4.8 0 1.5 .1 3 .4 4.3 .3 1.3 .7 2.5 1.3 3.5 .6 1 1.4 1.9 2.5 2.6 1.1 .7 1.8 1.5 4.2 1.4 2.4-.1 8.5-1.8 10.2-2.2 1.7-.3-1.8 .6 0 0Z"/><path class="kp-h" d="M211 275.4c1.1-.6 5.8-2.2 6.6-3.7 .7-1.5-1.6-4.4-2-5.2M210.7 275.7c.7-.7 4.2-2.5 4.7-4 .4-1.5-1.8-4.2-2.2-5.1M210 275.8c.3-.4 2-1.3 2-2.6 0-1.3-1.8-4.2-2.2-5M209.3 275.6c-.1-.4 .1-1-.5-2.4-.6-1.4-2.5-4.9-3-5.9M208.8 276.3c-.5-.4-2-.9-3.1-2.2-1.1-1.2-2.9-4.5-3.5-5.4M207.7 276c-1-.1-4.4 .3-6-.8-1.5-1.1-2.9-5-3.5-6M207.3 276.6c-1.7-.2-7.7 .2-9.9-1.1-2.2-1.3-2.8-5.8-3.4-6.9M211.8 275.6l-8.7 1.8M214.1 274.5l-13.4 3.1M217.2 273.4l-18 4.3M219.4 272.8l-21.2 4.4M219.8 272.1l-23.2 5.1M220.3 271.1l-24.6 5.6M220.8 270.4l-25.5 5.2M220.9 269.4l-26.5 5.9M220.7 268.7l-27 5.4M220.6 268.1l-27.3 5.4M220.1 267l-27 5.3M219.8 266l-27.2 5.7M219.1 265.6l-27.1 5.1M218.2 264.5l-26.5 4.9"/><path class="kp-b" d="M209.1 276c1.8-.5 8.9-2.2 11-3.2 2.2-1.1 1.7-2 1.9-3 .2-1-.2-2-.7-3.1-.6-1-1.5-2.1-2.5-3.2-1.1-1.1-2.4-2.2-3.9-3.3-1.4-1.1-4.1-2.9-4.9-3.5"/>
<path class="kp-p" d="M219.3 274.6c1.5-.1 7.1-.2 9.1-.7 2.1-.5 2.5-1.4 3.3-2.3 .8-.8 1.3-1.8 1.6-2.9 .3-1.1 .4-2.2 .4-3.5-.1-1.2-.3-2.5-.6-3.8-.3-1.4-.8-2.8-1.4-4.3-.6-1.4-1.2-2.9-2.2-4.5-1-1.6-2.2-5.2-4-5.2-1.8 .1-4.7 3.7-6.5 5.4-1.8 1.7-3.1 3.2-4.3 4.8-1.3 1.5-2.5 2.9-3.5 4.3-1 1.4-1.9 2.7-2.5 3.9-.7 1.3-1.2 2.5-1.5 3.5-.2 1.1-.3 2.1 .1 2.9 .3 .9 .1 1.8 2.1 2.2 2 .4 8.3 .2 9.9 .2 1.7 .1-1.5 .2 0 0Z"/><path class="kp-h" d="M220.6 274.3c1.2-.5 5.8-1.1 7.4-2.5 1.5-1.4 1.8-4.9 2.2-5.9M220.4 274.5c.6-.3 2.7-.7 3.7-1.7 .9-1.1 1.7-3.7 2.1-4.5M219.5 274.7c.5-.8 2-2.3 2.7-4.8 .8-2.4 1.5-8.2 1.8-9.8M218.8 274.7c0-.9-.6-2.6 0-5.5 .6-2.9 3-9.7 3.6-11.7M218.3 274.7c-.7-.4-3.6-1.2-3.9-2.8-.4-1.5 1.6-5.3 1.9-6.4M217.3 274.3c-1.2-.4-6.4-1-7.2-2.9-.7-1.9 2.4-6.9 2.9-8.2M221.2 274.6l-7.7-.3M223.4 274.2l-12.4 .2M226 274.1l-16.1 .1M228 274l-18.4-.8M228.9 273.5l-20.1-.9M229.4 272.8l-21.2-.5M230.4 272.1l-22.3-.8M231.2 271.2l-23.1-.4M231.2 270.3l-22.9-.7M231.6 269.6l-23.1-.9M232.1 269l-23.1-.9M232.5 267.7l-23.1-.5M232.5 266.7l-22.8-.3M232.3 266.2l-22.5-.8"/><path class="kp-b" d="M219.3 274.6c-1.6 0-7.9 .2-9.9-.2-2-.4-1.8-1.3-2.1-2.2-.4-.8-.3-1.8-.1-2.9 .3-1 .8-2.2 1.5-3.5 .6-1.2 1.5-2.5 2.5-3.9 1-1.4 2.9-3.6 3.5-4.3"/>
<path class="kp-p" d="M193.7 268.4c1.2-1 6.6-4.5 7.6-6.2 1-1.8-.6-2.9-1.6-4.3-1-1.3-2.5-2.6-4.2-3.9-1.7-1.3-3.8-2.6-6-3.8-2.2-1.3-4.6-2.5-7.2-3.8-2.6-1.3-5.3-2.6-8.2-3.8-3-1.3-5.8-2.7-9.3-3.9-3.5-1.2-10.3-4.2-11.8-3.4-1.4 .8 1.9 5.7 3 8.2 1.2 2.5 2.5 4.7 3.8 6.8 1.3 2.2 2.8 4.2 4.2 6.1 1.5 1.8 3 3.6 4.7 5.2 1.6 1.6 3.2 3 5 4.3 1.8 1.2 3.6 2.4 5.5 3.2 2 .8 3.8 1.9 6.2 1.8 2.4-.1 6.9-2.1 8.3-2.5 1.3-.4-1.3 1.1 0 0Z"/><path class="kp-h" d="M194.7 267.1c.4-1.2 3.3-4.7 2.3-7-1-2.3-6.9-5.9-8.3-7.1M194.6 267.6c.1-.9 1.7-3.6 .4-5.6-1.2-1.9-6.5-5.2-7.8-6.2M193.9 267.7c-.9-1.2-1.9-4.3-5.3-7.2-3.4-3-12.6-8.9-15.1-10.6M193.3 268c-1.2-1-4-2.8-7.7-5.6-3.8-2.7-12.2-9.1-14.7-10.9M192.6 268.6c-1-.3-3.6-.6-6-1.7-2.4-1.1-6.8-4.2-8.2-5M191.9 268.7c-1.3 0-5 .8-7.7 0-2.8-.9-7.2-4.4-8.7-5.2M195.6 267.2l-6.9 2.3M197.5 265.7l-11 4.8M199.4 263.8l-14.2 6.5M200.5 262.5l-17.2 6.9M199.9 261.4l-18.3 7.6M199.9 259.9l-19.6 8.9M198.9 259.1l-20.2 8.5M198.5 257.7l-21.2 9.4M197.1 256.9l-21.7 9.4M196.1 255.8l-22 9M194.9 254.5l-22.3 9.6M193.2 253.8l-22.1 9.1M191.4 252.3l-21.3 9M189.8 251.5l-21.1 8.8"/><path class="kp-b" d="M193.7 268.4c1.2-1 6.6-4.5 7.6-6.2 1-1.8-.6-2.9-1.6-4.3-1-1.3-2.5-2.6-4.2-3.9-1.7-1.3-3.8-2.6-6-3.8-2.2-1.3-4.6-2.5-7.2-3.8-2.6-1.3-6.9-3.2-8.2-3.8"/>
<path class="kp-p" d="M232.5 263.2c1.3-.1 5.7 .1 7.9-.7 2.2-.8 3.7-2.5 5.3-4.1 1.7-1.5 3.1-3.3 4.4-5.2 1.4-1.9 2.6-3.9 3.7-6.1 1.1-2.1 2.1-4.4 3-6.8 .9-2.4 1.7-4.9 2.4-7.5 .6-2.6 1.3-5.3 1.7-8.1 .4-2.9 2.2-8.8 .8-9.1-1.5-.4-6.7 4.6-9.5 6.9-2.8 2.3-4.9 4.5-7.2 6.7-2.2 2.3-4.4 4.4-6.4 6.6-1.9 2.1-3.8 4.2-5.5 6.2-1.7 2-3.3 4-4.6 5.9-1.2 1.9-2.4 3.7-3.1 5.5-.6 1.8-1.9 3.5-.8 5.2 1.2 1.6 6.6 3.8 7.9 4.6 1.3 .8-1.4 .1 0 0Z"/><path class="kp-h" d="M233.8 262.8c1.5-.7 6.1-2.1 8.8-4.7 2.7-2.5 6.3-8.8 7.5-10.6M233.1 262.6c1.7-1.5 6.5-4.7 9.8-9.1 3.4-4.3 8.6-14.3 10.3-17.2M232.8 262.7c.9-.9 3.2-2.9 5.3-5.4 2-2.6 5.9-8.3 7.1-10M232.4 262.5c1-1.8 3.1-6.1 6-10.7 2.9-4.7 9.6-14.4 11.5-17.2M232.2 262.6c.1-1.1-.4-3.7 .7-6.4 1.2-2.8 5.4-8.3 6.4-9.9M231.4 262.3c.1-1.5-1.2-5.3 .4-9 1.7-3.8 7.8-11.1 9.4-13.3M231.1 262.4c-.3-1.7-3.4-6.1-2-10.1 1.4-3.9 8.6-11.4 10.3-13.7M234 263.3l-6.3-2.8M236 262.6l-10.1-3.3M238.5 262.6l-12.8-4.7M240.2 262.1l-14.5-5.8M241.4 260.9l-15.7-5.8M243.1 259.8l-16.7-6.2M244.4 258.8l-17.4-6.8M245.3 257.4l-17.6-6.8M247 256l-18.4-6.9"/><path class="kp-b" d="M232.5 263.2c-1.3-.8-6.7-3-7.9-4.6-1.1-1.7 .2-3.4 .8-5.2 .7-1.8 1.9-3.6 3.1-5.5 1.3-1.9 2.9-3.9 4.6-5.9 1.7-2 3.6-4.1 5.5-6.2 2-2.2 5.4-5.5 6.4-6.6"/>
<path class="kp-p" d="M244.1 232.3c1.6-.6 6.6-1.7 9.3-3.6 2.7-1.9 4.7-5 6.8-7.8 2.1-2.9 4-6 5.8-9.3 1.8-3.3 3.5-6.7 5-10.3 1.6-3.6 3-7.4 4.3-11.2 1.3-3.9 2.6-7.8 3.7-11.9 1-4.1 2-8.2 2.8-12.6 .8-4.5 3.6-13.4 1.9-14-1.8-.5-8.6 7.2-12.2 10.7-3.6 3.5-6.3 7.1-9.3 10.6-2.9 3.5-5.7 7-8.3 10.4-2.7 3.4-5.1 6.8-7.4 10.2-2.2 3.4-4.3 6.7-6 10-1.7 3.3-3.3 6.6-4.3 9.8-.9 3.2-2.8 6.4-1.4 9.5 1.3 3.2 7.8 7.9 9.3 9.5 1.6 1.6-1.5 .6 0 0Z"/><path class="kp-h" d="M245.8 231.1c2-2 8.1-6.8 11.9-12.4 3.9-5.6 9.4-17.5 11.2-21M245.1 231c1.2-2 4.4-6.9 7.4-12.1 3-5.2 8.7-15.9 10.5-19M244.5 230.6c1-2.6 3.2-9 6.3-15.4 3-6.3 10.2-18.9 12.2-22.7M243.8 230.6c.5-2.6 .5-9.5 3-15.6 2.6-6.2 10-17.6 12-21.1M243.1 230.4c.1-2.6-1.4-9.6 .6-15.7 2-6.1 9.5-17.6 11.4-21.1M242.4 230.1c-.6-2.2-4.3-8.3-3.5-13.5 .8-5.1 6.7-14.4 8.1-17.3M246.1 231.2l-7.8-4.7M248.4 230.4l-12.3-6.8M250.5 229.1l-14.4-7.5M252.8 227.8l-16.4-8.9M254.5 225.6l-17.9-9.4M256.6 223.8l-19.3-10.3M258.4 221.8l-19.9-10.9M260.2 219.1l-20.8-10.7M261.7 216.5l-21.2-10.7"/><path class="kp-b" d="M244.1 232.3c-1.5-1.6-8-6.3-9.3-9.5-1.4-3.1 .5-6.3 1.4-9.5 1-3.2 2.6-6.5 4.3-9.8 1.7-3.3 3.8-6.6 6-10 2.3-3.4 4.7-6.8 7.4-10.2 2.6-3.4 6.9-8.7 8.3-10.4"/>
<path class="kp-p" d="M246.1 217.9c1.6-1.4 6.9-4.8 9.7-8 2.8-3.2 5-7.4 7.3-11.5 2.3-4 4.4-8.2 6.4-12.6 2-4.3 3.8-8.8 5.6-13.4 1.7-4.6 3.3-9.4 4.8-14.2 1.6-4.8 3-9.7 4.2-14.8 1.3-5 2.5-10 3.5-15.3 .9-5.3 3.9-16 2.4-16.5-1.5-.4-7.9 9.3-11.3 13.9-3.4 4.6-6.1 9.2-8.9 13.8-2.9 4.5-5.7 9-8.3 13.5-2.7 4.5-5.2 9-7.5 13.4-2.3 4.5-4.6 8.9-6.5 13.2-1.9 4.4-3.7 8.7-5 13-1.3 4.3-3.4 8.6-2.8 12.8 .6 4.3 5.3 10.6 6.4 12.7 1 2.1-1.6 1.3 0 0Z"/><path class="kp-h" d="M248.1 215.9c2.4-3.9 9.7-14.2 14.4-23.4 4.6-9.2 11.3-26.6 13.6-32M247.5 215.6c1.7-3.1 6.4-11.3 10.1-18.9 3.6-7.6 9.9-22.2 11.8-26.7M246.8 215.7c2.2-5.5 7.7-20.5 12.8-32.8 5.2-12.3 15.1-34.2 18.1-41.1M246.4 215.5c1.7-5.1 5.4-19.2 9.9-30.6 4.6-11.3 14.4-31.3 17.3-37.6M245.6 215.2c1-4.7 2.2-17.7 5.9-28.1 3.7-10.4 13.6-28.4 16.3-34M245.4 214.8c-.2-2.7-2.1-10.3-.8-16.6 1.2-6.3 6.9-17.6 8.3-21.1M248.3 215.8l-6-5.8M251 213.9l-10.2-7.3M252.9 211.2l-11.9-8.2M255.6 209.1l-14.1-9.6M257.7 205.7l-15.4-9.6M259.5 202.8l-16.5-9.9M261.2 199.7l-16.7-10.8M263.5 196.4l-17.3-11M265.1 193.1l-17.6-11"/><path class="kp-b" d="M246.1 217.9c-1.1-2.1-5.8-8.4-6.4-12.7-.6-4.2 1.5-8.5 2.8-12.8 1.3-4.3 3.1-8.6 5-13 1.9-4.3 4.2-8.7 6.5-13.2 2.3-4.4 4.8-8.9 7.5-13.4 2.6-4.5 6.9-11.3 8.3-13.5"/>
<path class="kp-p" d="M172 243.2c.9-2 5-8.3 4.9-11.7 0-3.4-3.1-5.9-5.3-8.7-2.2-2.8-5-5.4-7.9-8.1-3-2.7-6.3-5.3-9.7-7.9-3.4-2.6-7.1-5.2-10.9-7.8-3.8-2.6-7.8-5.2-11.9-7.7-4.1-2.6-8-5.2-12.8-7.7-4.7-2.4-14.1-7.9-15.4-6.9-1.4 1 4.7 8.9 7.2 13 2.4 4.1 5 7.8 7.6 11.4 2.6 3.7 5.3 7.2 8 10.6 2.8 3.4 5.6 6.6 8.5 9.6 2.9 3 5.8 5.9 8.8 8.5 3.1 2.6 6.1 5.1 9.3 7.2 3.1 2.1 6.2 4.5 9.5 5.5 3.3 1 8.5 .5 10.1 .7 1.7 .1-.8 1.9 0 0Z"/><path class="kp-h" d="M172.9 240.8c-1-2.9-1.5-11.4-5.7-17.2-4.3-5.8-16.6-14.7-19.9-17.6M172.4 241.1c-1.6-2.8-4.2-11-9.5-17-5.3-5.9-18.6-15.8-22.3-18.9M171.8 241.4c-2.1-2.6-6.4-9.7-12.2-15.6-5.8-5.9-18.8-16.7-22.6-20M171 241.8c-3.1-3-10.9-10.7-18.5-17.9-7.6-7.2-22.6-21.1-27.1-25.3M170.8 242.4c-2.9-2.2-10.7-7.4-17.5-13.2-6.7-5.8-19.3-18-23.2-21.5M170 242.6c-2.9-1.8-11.1-5.6-17.5-10.5-6.4-5-17.5-15.9-21.1-19.1M173 240.5l-6.9 1.7M174.4 237.2l-10.9 4.9M175.2 234.5l-14.2 6.3M176 231.2l-17.5 8.4M174.3 229.2l-18.4 8.6M173.2 226.8l-20.4 9.5M171.5 224.7l-20.9 9.5M169.5 222.4l-21.1 10.4M167.6 220.1l-21.9 10.5"/><path class="kp-b" d="M172 243.2c.9-2 5-8.3 4.9-11.7 0-3.4-3.1-5.9-5.3-8.7-2.2-2.8-5-5.4-7.9-8.1-3-2.7-6.3-5.3-9.7-7.9-3.4-2.6-7.1-5.2-10.9-7.8-3.8-2.6-9.9-6.4-11.9-7.7"/>
<path class="kp-p" d="M201.6 279c1.2-.8 6.2-3.3 7.3-4.5 1.2-1.2 .1-1.8-.4-2.6-.5-.8-1.5-1.6-2.6-2.3-1.1-.7-2.5-1.4-4-2.1-1.6-.7-3.3-1.4-5.2-2-1.8-.7-3.8-1.3-6-2-2.1-.7-4.2-1.4-6.8-1.9-2.6-.6-7.8-2.2-9-1.5-1.2 .7 1.3 3.9 2 5.6 .8 1.7 1.7 3.1 2.5 4.5 .9 1.4 1.9 2.7 2.9 3.9 .9 1.2 2 2.3 3 3.3 1.1 .9 2.2 1.8 3.3 2.5 1.2 .7 2.4 1.3 3.7 1.6 1.3 .4 2.5 .9 4 .5 1.6-.4 4.4-2.5 5.3-3 .9-.5-1.2 .7 0 0Z"/><path class="kp-h" d="M202.8 278.1c.5-.9 3.7-3.7 2.7-5.5-1-1.7-7.3-4.2-8.8-5M202.3 278.4c.2-.6 2.4-2.2 1.6-3.5-.8-1.3-5.5-3.5-6.6-4.2M202.1 278.4c-.5-.7-.2-2.2-2.6-4.1-2.4-1.9-10-6-11.9-7.2M201.7 278.8c-.4-.1-1.1 0-2.5-.8-1.4-.8-4.9-3.2-5.9-3.9M201.3 279.1c-1-.1-3.5 .3-5.9-.9-2.4-1.2-7.2-5.2-8.6-6.2M200.8 279.5c-.7 .1-2.7 1-4.2 .8-1.6-.2-4.4-1.7-5.3-2.1M203 277.8l-4.4 2.8M204.8 277l-7.5 4.5M207.1 275.9l-10.7 5.9M208.3 274.4l-13.5 7.2M208.3 274.2l-14.1 7.2M207.9 273l-14.9 8.3M208 272.3l-16.4 8.5M207.3 271.8l-16.6 8.6M206.8 271.4l-16.6 8.5"/><path class="kp-b" d="M201.6 279c1.2-.8 6.2-3.3 7.3-4.5 1.2-1.2 .1-1.8-.4-2.6-.5-.8-1.5-1.6-2.6-2.3-1.1-.7-2.5-1.4-4-2.1-1.6-.7-3.3-1.4-5.2-2-1.8-.7-5-1.7-6-2"/>
<path class="kp-p" d="M241.4 249c1.3-.2 5.3 .2 7.6-.8 2.4-.9 4.4-2.9 6.4-4.8 2-1.8 3.9-3.9 5.7-6.2 1.8-2.3 3.5-4.8 5.1-7.4 1.7-2.6 3.2-5.4 4.7-8.2 1.4-2.9 2.8-5.9 4.1-9 1.3-3.1 2.6-6.2 3.6-9.7 1.1-3.4 4.3-10.4 2.9-11-1.4-.5-7.7 5.2-11 7.8-3.3 2.5-5.9 5.1-8.7 7.6-2.7 2.5-5.4 5-7.9 7.5-2.5 2.4-4.9 4.9-7 7.2-2.2 2.4-4.3 4.8-6 7.1-1.7 2.3-3.4 4.5-4.5 6.7-1.1 2.2-2.9 4.3-2.1 6.5 .8 2.2 5.9 5.6 7.1 6.7 1.2 1.1-1.3 .1 0 0Z"/><path class="kp-h" d="M242.9 248.6c1.3-.7 4.9-1.8 7.6-4.2 2.7-2.3 7.2-8.4 8.7-10.1M242 248.1c1-.9 3.6-2.7 6.1-5.4 2.5-2.7 7.5-8.8 9-10.6M242 248.2c.9-1.3 2.8-4.2 5.5-7.7 2.7-3.5 8.8-11.1 10.5-13.4M241.2 248.2c1-1.9 2.7-6.7 5.9-11.5 3.2-4.8 11.1-14.5 13.3-17.4M240.7 247.9c0-1.2-1.1-4.3 .1-7.2 1.2-3 5.9-8.8 7.1-10.5M240.4 247.6c-.4-1.3-3.3-4.8-2.6-7.8 .6-3 5.5-8.4 6.6-10M242.9 248.5l-5.8-3.7M245.2 248.3l-9.8-5M246.9 248.4l-11.3-7M249 247.6l-12.8-7.7M250.4 246.5l-14.1-8.5M252.2 245.1l-15-9.2M254.1 243.8l-15.6-9.7M255.3 242l-15.7-9.3M257.2 240.2l-16.1-9.3"/><path class="kp-b" d="M241.4 249c-1.2-1.1-6.3-4.5-7.1-6.7-.8-2.2 1-4.3 2.1-6.5 1.1-2.2 2.8-4.4 4.5-6.7 1.7-2.3 3.8-4.7 6-7.1 2.1-2.3 4.5-4.8 7-7.2 2.5-2.5 6.6-6.2 7.9-7.5"/>
<path class="kp-p" d="M227.9 275.6c.9 .3 3.9 1.9 5.4 2 1.5 .1 2.6-.7 3.8-1.3 1.2-.6 2.3-1.4 3.3-2.4 1-.9 1.9-2 2.8-3.2 .9-1.2 1.7-2.5 2.4-3.9 .8-1.4 1.5-2.9 2.1-4.4 .7-1.6 1.3-3.2 1.8-5.1 .5-1.8 2.3-5.6 1.1-6-1.2-.4-6.1 2.4-8.5 3.6-2.5 1.2-4.4 2.4-6.4 3.5-1.9 1.2-3.8 2.3-5.5 3.4-1.7 1.1-3.2 2.1-4.6 3.1-1.4 1.1-2.6 2.1-3.6 3-.9 1-1.8 1.9-2.1 2.7-.4 .9-1.3 1.8 0 2.6 1.3 .8 6.7 2 8 2.4 1.4 .4-.9-.3 0 0Z"/><path class="kp-h" d="M228.8 275.9c.9 0 3.4 .6 5.2-.1 1.7-.7 4.4-3.4 5.3-4.1M228.6 275.7c1-.4 3.5-.5 5.9-2.4 2.3-2 6.9-7.7 8.2-9.2M227.9 275.7c.7-.7 1.9-1.7 4.2-4 2.2-2.3 7.9-8.2 9.5-9.8M227.2 275.6c.2-.7-.4-2.2 1.2-4.1 1.5-2 6.9-6.4 8.2-7.7M226.9 275.5c-.1-.6-2-1.9-1-3.7 1-1.8 5.7-5.9 6.9-7.1M226.8 275.2c-.7-.4-4.2-1.4-4.3-2.6-.1-1.2 3-3.9 3.6-4.7M229 276.2l-5.9-1.7M230.5 276.5l-9.4-2.9M232 277.3l-11.8-4.3M232.7 277.4l-12.3-5M233.8 277.1l-13.2-5.4M235.1 276.6l-14.2-5.7M235.8 276l-14.9-6.1M236.9 276l-15-6.4M237.7 275.3l-15.5-6.5"/><path class="kp-b" d="M227.9 275.6c-1.3-.4-6.7-1.6-8-2.4-1.3-.8-.4-1.7 0-2.6 .3-.8 1.2-1.7 2.1-2.7 1-.9 2.2-1.9 3.6-3 1.4-1 2.9-2 4.6-3.1 1.7-1.1 4.6-2.8 5.5-3.4"/>
<path class="kp-p" d="M164.8 230.7c0-2.2 1.1-9.3-.2-13.4-1.2-4.2-4.6-7.7-7.4-11.4-2.8-3.7-6-7.3-9.3-10.9-3.3-3.6-6.8-7.2-10.4-10.8-3.6-3.6-7.4-7.2-11.2-10.8-3.9-3.6-7.8-7.2-11.8-10.8-4-3.6-7.9-7.2-12.3-10.7-4.3-3.6-13-11.1-14-10.4-1 .8 5.3 10.2 8 14.9 2.8 4.7 5.7 9.1 8.6 13.6 2.9 4.4 5.9 8.6 9 12.8 3.1 4.2 6.2 8.2 9.4 12.1 3.3 3.9 6.5 7.7 9.9 11.3 3.3 3.6 6.7 7 10.2 10.2 3.4 3.2 6.9 6.7 10.5 9 3.6 2.4 9.2 4.5 11 5.3 1.9 .9 .1 2.3 0 0Z"/><path class="kp-h" d="M164.4 227.9c-2-4.1-6.1-16.1-12.1-24.4-6.1-8.3-20.1-21.1-24.2-25.3M164.2 228.3c-1.4-2.5-4.3-9.8-8.2-15.2-3.8-5.4-12.6-14.4-15.2-17.3M163.5 228.5c-2.5-3.6-8.7-13.5-15-21.2-6.4-7.7-19.2-20.9-23.1-25.1M163.5 228.9c-4-4.6-14.8-17.2-23.9-27.5-9.1-10.3-25.7-28.7-30.8-34.4M162.8 229c-2.8-2.8-10.6-10-17-16.6-6.3-6.7-17.5-19.4-21-23.3M162.4 229.3c-3.5-3-13.8-10.7-21.2-18.1-7.4-7.4-19.4-21.9-23.2-26.3M164.4 227.6l-6.1-.6M164.4 224l-9.4 1.8M164.1 220.5l-11.9 3.2M163.7 216.7l-14 4.4M161.4 214.1l-14.5 4.3M159.8 210.8l-16.1 5M157.6 207.8l-16.6 5.7M155.5 204.5l-17.5 6.2M152.8 201.7l-17.1 5.9"/><path class="kp-b" d="M164.8 230.7c0-2.2 1.1-9.3-.2-13.4-1.2-4.2-4.6-7.7-7.4-11.4-2.8-3.7-6-7.3-9.3-10.9-3.3-3.6-6.8-7.2-10.4-10.8-3.6-3.6-7.4-7.2-11.2-10.8-3.9-3.6-9.8-9-11.8-10.8"/>
<path class="kp-p" d="M178 260c.4-1.5 2.6-6.2 2.1-8.6-.5-2.3-3.2-3.8-5.3-5.5-2.1-1.8-4.7-3.4-7.3-5.1-2.6-1.6-5.5-3.2-8.5-4.8-2.9-1.6-6.1-3.2-9.3-4.8-3.2-1.5-6.5-3.1-9.9-4.7-3.5-1.6-6.8-3.3-10.6-4.7-3.8-1.5-11.7-5-12.4-4.1-.7 .9 5.4 6.5 8 9.4 2.6 2.9 5.2 5.5 7.8 8 2.7 2.6 5.3 5 8 7.2 2.6 2.3 5.3 4.4 8 6.4 2.7 1.9 5.4 3.7 8 5.3 2.7 1.6 5.4 3.1 8 4.3 2.5 1.1 5.3 2.5 7.5 2.8 2.3 .2 4.9-.9 5.9-1.1 1-.2-.3 1.4 0 0Z"/><path class="kp-h" d="M178.1 258c-1-1.8-1.9-7.4-5.8-11.1-3.9-3.6-14.7-9.1-17.7-10.9M178.1 258.4c-1-1.6-2.6-6.5-6.4-9.9-3.8-3.3-13.7-8.6-16.4-10.3M177.9 258.6c-1.3-1.6-3.5-6.3-7.8-9.8-4.2-3.4-14.7-8.9-17.7-10.6M177.5 258.7c-2.3-2-7.5-7.2-13.9-11.7-6.4-4.5-20.4-12.9-24.4-15.5M177.4 259c-1.6-1.2-5.1-4-9.6-7.1-4.6-3-14.7-9.4-17.7-11.2M177 259.6c-1.5-.9-4.8-2.9-9-5.4-4.2-2.6-13.4-8.2-16.1-9.8M176.9 260c-2-.9-7-2.7-11.9-5.4-4.8-2.7-14.4-9.2-17.3-11.1M177.1 260c-1.8-.6-6.5-1.4-10.8-3.5-4.3-2.1-12.6-7.5-15.1-9M178.2 258l-3.7 2.3M179 255.7l-6.1 4.9M179.3 253.8l-8 6.2M179.6 251.6l-10.8 7.8M177.9 250.1l-11.1 8.4M176.6 248.7l-11.6 8.9M175.1 247.2l-12.3 9.5M173.5 245.9l-12.8 9.7M171.6 244.1l-13.3 10"/><path class="kp-b" d="M178 260c.4-1.5 2.6-6.2 2.1-8.6-.5-2.3-3.2-3.8-5.3-5.5-2.1-1.8-4.7-3.4-7.3-5.1-2.6-1.6-5.5-3.2-8.5-4.8-2.9-1.6-6.1-3.2-9.3-4.8-3.2-1.5-8.3-3.9-9.9-4.7"/>
<path class="kp-p" d="M188.1 273.1c.3-1.1 2.3-4.8 1.8-6.4-.4-1.7-2.6-2.5-4.4-3.6-1.7-1.1-3.9-2.1-6.1-3.1-2.2-.9-4.6-1.8-7.2-2.8-2.5-.9-5.2-1.8-7.9-2.7-2.7-.9-5.6-1.8-8.5-2.7-2.9-.9-5.8-1.8-9.1-2.6-3.3-.8-10.2-2.8-10.7-2-.4 .8 5.3 4.8 7.9 6.9 2.5 2.1 4.8 3.9 7.2 5.7 2.5 1.7 4.9 3.4 7.2 4.9 2.4 1.6 4.8 3 7.1 4.2 2.4 1.3 4.7 2.4 6.9 3.3 2.3 .9 4.5 1.7 6.6 2.3 2 .6 4.3 1.3 5.9 1.1 1.5-.3 2.7-2.1 3.3-2.5 .5-.4-.3 1.1 0 0Z"/><path class="kp-h" d="M188.4 271.7c-.3-1 .3-4.2-1.7-6-2.1-1.8-8.6-4.2-10.3-5M188.4 272.3c-.4-.9-.7-3.9-2.9-5.6-2.2-1.7-8.4-4-10.1-4.7M188 272.1c-1.6-1.2-4.3-4.7-9.4-7.5-5.1-2.7-17.7-7.4-21.3-8.9M188.1 272.5c-1.4-.9-4.1-3.4-8.3-5.6-4.2-2.1-14.1-6.1-16.9-7.3M188 272.6c-2-1-6.6-3-12.1-5.5-5.6-2.6-17.7-8.4-21.3-10M187.8 272.7c-1.5-.5-4.8-1.4-8.9-3.1-4.1-1.8-13.1-6.1-15.8-7.3M187.5 273.2c-1.6-.4-5.5-.5-10-2.1-4.4-1.7-13.7-6.5-16.5-7.8M187.5 273.3c-1.6-.2-5.6 .7-10-.8-4.3-1.4-13.5-6.5-16.2-7.8M188.6 271.5l-2.5 2.9M189 270l-3.8 4.9M189.4 268.5l-5.3 6.2M189.2 266.6l-7.1 8M188.2 265.6l-7.5 8.7M186.8 265.2l-7.8 8.6M185.8 264l-8.3 9.7M184.2 262.8l-8.6 9.7M182.8 262.3l-8.8 9.5"/><path class="kp-b" d="M188.1 273.1c.3-1.1 2.3-4.8 1.8-6.4-.4-1.7-2.6-2.5-4.4-3.6-1.7-1.1-3.9-2.1-6.1-3.1-2.2-.9-4.6-1.8-7.2-2.8-2.5-.9-5.2-1.8-7.9-2.7-2.7-.9-7.1-2.2-8.5-2.7"/>
<path class="kp-p" d="M231.5 278.6c-.1 .6-1.2 2.8-.9 3.3 .3 .4 1.7-.1 2.8-.4 1.2-.3 2.5-.9 3.9-1.6 1.4-.7 2.9-1.5 4.4-2.5 1.6-1 3.2-2.1 4.9-3.3 1.7-1.2 3.4-2.5 5.2-3.9 1.7-1.5 3.4-2.9 5.4-4.7 2-1.7 6.4-5.1 6.3-5.8 0-.7-4.8 1-6.9 1.6-2.1 .6-3.9 1.3-5.7 2-1.9 .7-3.7 1.3-5.5 2-1.7 .7-3.4 1.3-5 2-1.6 .7-3.1 1.4-4.5 2.1-1.4 .7-2.7 1.5-3.7 2.3-1.1 .8-2.5 1.3-2.6 2.5-.1 1.2 1.6 3.7 1.9 4.4 .3 .7 .2-.5 0 0Z"/><path class="kp-h" d="M230.7 277.4l-.1 .4M229.7 274.9l.7 2.3M230.8 273.3l1.1 3.1M232.2 272l1.4 2.7M234.4 270.6l1.4 3.6M236.4 269.6l1.4 3M239.1 268.4l1.6 3.3M241.6 267l1.8 3.6M244.5 265.8l1.4 2.7M247.6 264.7l1.4 3M230.7 280.9l.9-8.2M232.2 281.2l2.1-10.3M234.9 280.4l2.7-11.2M238.1 278.9l3.2-11.4M241.7 276.9l3.6-11.1M245.6 274.3l4-10.2M249.6 271.4l4.5-9M253.9 268l5.2-7.1"/><path class="kp-f" d="M231.4 279.2c1.2-.5 3.6-1 7.4-3.1 3.7-2.1 12.5-7.9 15-9.5M231.3 278.7c1.1-.8 3.1-2.7 6.8-4.9 3.8-2.2 13.1-7.1 15.7-8.5M231 278c1.2-1.1 3.4-4.1 7.2-6.4 3.7-2.4 12.7-6.3 15.2-7.5"/><path class="kp-b" d="M231.5 278.6c-.3-.7-2-3.2-1.9-4.4 .1-1.2 1.5-1.7 2.6-2.5 1-.8 2.3-1.6 3.7-2.3 1.4-.7 2.9-1.4 4.5-2.1 1.6-.7 3.3-1.3 5-2 1.8-.7 4.6-1.7 5.5-2"/>
<path class="kp-p" d="M239.5 267.5c.2 .5 .2 2.7 1.2 2.9 1 .2 3-.7 4.7-1.5 1.8-.7 3.7-1.8 5.6-3 1.9-1.2 3.9-2.7 5.9-4.2 2.1-1.6 4.2-3.3 6.3-5.2 2.1-1.8 4.2-3.8 6.4-5.9 2.2-2.2 4.3-4.3 6.6-6.8 2.3-2.5 7.7-7.4 7.3-8.2-.3-.8-6.4 2.2-9.3 3.4-2.9 1.2-5.3 2.5-7.8 3.8-2.6 1.3-5 2.5-7.4 3.8-2.4 1.2-4.7 2.5-6.8 3.7-2.2 1.3-4.3 2.5-6.2 3.7-1.9 1.3-3.7 2.5-5.2 3.8-1.5 1.3-3.5 2.3-3.7 3.9-.2 1.7 2 4.9 2.4 5.8 .4 1-.2-.4 0 0Z"/><path class="kp-h" d="M239.7 267.8c1.3-.3 4 .3 7.8-1.7 3.8-2 12.4-8.7 14.9-10.4M239.8 267.7c.5-.2 1-.5 2.9-1.6 1.9-1 6.9-4 8.3-4.8M239.3 267.6c1.3-.9 3.8-2.8 7.9-5.6 4.1-2.8 13.8-9.5 16.6-11.4M239.2 267c.9-1 2.1-3.3 5.3-5.8 3.3-2.5 12-7.6 14.4-9.1M239.4 266.8c.3-.8-.1-3.2 1.7-5.1 1.8-1.8 7.7-5.1 9.2-6.1M239.3 266.3c.6-1.3 .8-5.2 3.6-7.9 2.9-2.7 11.2-6.9 13.4-8.3M239.6 267.9l-1.3-3.8M240.2 268.6l-2.7-5.9M240.4 269.4l-2.2-7.9M240.8 270l-1.6-9.5M241.9 269.5l-2.2-10.4M243.5 269.1l-2.6-11M244.6 268.6l-2.5-11.6M246 268l-2.3-12M247.4 266.9l-2.2-11.6"/><path class="kp-b" d="M239.5 267.5c-.4-.9-2.6-4.1-2.4-5.8 .2-1.6 2.2-2.6 3.7-3.9 1.5-1.3 3.3-2.5 5.2-3.8 1.9-1.2 4-2.4 6.2-3.7 2.1-1.2 4.4-2.5 6.8-3.7 2.4-1.3 6.1-3.2 7.4-3.8"/>
<path class="kp-p" d="M198.3 283.7c-.1-.8 0-3.4-.8-4.4-.8-1-2.5-1.2-3.9-1.6-1.5-.5-3.1-.8-4.7-1.2-1.6-.3-3.4-.6-5.2-.9-1.8-.3-3.6-.6-5.5-.9-1.9-.3-3.8-.6-5.7-.8-1.9-.3-3.8-.7-5.9-.8-2.1-.2-6.8-.9-6.6-.3 .2 .7 5.4 2.8 7.8 4 2.5 1.2 4.6 2.2 6.7 3.1 2.2 1 4.3 1.8 6.3 2.6 2.1 .7 4 1.4 5.9 1.9 1.9 .6 3.7 1 5.3 1.4 1.6 .3 3.2 .5 4.5 .6 1.3 0 2.9 .1 3.2-.3 .3-.5-1.1-2-1.4-2.4-.2-.5 .2 .7 0 0Z"/><path class="kp-h" d="M198 282.3l.3 .6M197.5 280.1l.3 2M196 278.7l0 3.2M193.6 277.8l.1 3.7M190.9 277.4l.2 3M188.3 276.7l0 3.2M185.3 276.3l.2 3.3M182.5 275.5l-.4 2.8M179.4 275l-.3 3.1M176.4 274.4l-.7 2.6M197.7 280.5l-.6 5.4M195.3 278.7l-1.5 6.9M191.8 277.7l-1.9 7.1M188 276.8l-2.4 6.9M183.9 276l-3 6.2M179.5 275.3l-3.6 4.9M174.9 274.5l-4.2 3.4M170.2 273.8l-5.2 1.5"/><path class="kp-f" d="M198.3 282.9c-1.7-.7-5.5-2.8-10.1-4.2-4.6-1.3-14.5-3.2-17.4-3.9M198.6 283.4c-1.7-.4-5.2-1.3-9.9-2.5-4.6-1.2-14.9-4-17.9-4.7M198.7 284.1c-1.5-.3-4.9-.3-9.4-1.5-4.6-1.2-14.8-4.6-17.7-5.5"/><path class="kp-b" d="M198.3 283.7c-.1-.8 0-3.4-.8-4.4-.8-1-2.5-1.2-3.9-1.6-1.5-.5-3.1-.8-4.7-1.2-1.6-.3-3.4-.6-5.2-.9-1.8-.3-3.6-.6-5.5-.9-1.9-.3-4.8-.7-5.7-.8"/>
<path class="kp-p" d="M166.6 249.1c0-1.8 1-7.9-.3-10.9-1.3-3-4.7-4.9-7.4-7.2-2.8-2.4-6-4.5-9.2-6.7-3.2-2.1-6.7-4.2-10.2-6.3-3.6-2.1-7.2-4.2-10.9-6.2-3.8-2.1-7.6-4.2-11.5-6.2-3.9-2-7.6-4.2-11.8-6.1-4.3-1.9-13.2-6.2-13.7-5.2-.4 1 7.4 7.7 11 11.2 3.5 3.5 6.8 6.7 10.2 9.8 3.4 3.1 6.8 6.1 10.2 8.9 3.3 2.8 6.7 5.5 10.1 8 3.3 2.5 6.7 4.9 9.9 7 3.3 2.1 6.5 4 9.6 5.7 3.1 1.6 6.5 3.4 8.8 4.2 2.4 .7 4.4 0 5.2 0 .9 .1 .1 1.9 0 0Z"/><path class="kp-h" d="M166.5 247c-2.2-2.8-7-11.4-13.6-16.9-6.5-5.5-21.3-13.5-25.6-16.2M166.3 247.3c-1-1.6-2.7-6.4-6-9.7-3.4-3.3-11.8-8.5-14.1-10.2M166 247.8c-2.9-2.6-9.8-9.8-17.6-15.7-7.9-5.9-24.6-16.4-29.5-19.6M166.1 248.1c-2.4-2-8.1-7.4-14.6-12-6.5-4.7-20.4-13.4-24.4-16M165.8 248.2c-1.8-1.1-5.8-3.3-10.5-6.4-4.8-3.1-14.9-10.2-17.9-12.2M165.3 248.5c-2.7-1.3-9.5-3.8-16.4-8-6.8-4.3-20.5-14.6-24.6-17.5M166.4 246.9l-3.2 2M166.6 243.9l-4.3 4.6M166.2 240.7l-6.2 6.9M165.5 238l-8.1 8.5M163.6 236.3l-8.6 9.3M161.4 234.6l-8.3 10M159.5 232.7l-9.2 9.8M157.1 230.6l-9.3 10.6M154.5 228.6l-9.6 11.2"/><path class="kp-b" d="M166.6 249.1c0-1.8 1-7.9-.3-10.9-1.3-3-4.7-4.9-7.4-7.2-2.8-2.4-6-4.5-9.2-6.7-3.2-2.1-6.7-4.2-10.2-6.3-3.6-2.1-7.2-4.2-10.9-6.2-3.8-2.1-9.6-5.2-11.5-6.2"/>
<path class="kp-p" d="M247.3 253.8c.4 .1 .9 1.3 2.2 .8 1.3-.6 3.8-2.3 5.8-3.9 2.1-1.5 4.3-3.4 6.5-5.5 2.3-2 4.6-4.2 7-6.6 2.3-2.4 4.7-5 7-7.7 2.4-2.7 4.8-5.5 7.1-8.5 2.4-3 4.6-6 7.1-9.4 2.5-3.4 8.1-10 7.8-10.9-.3-.8-6.7 3.9-9.7 5.9-3 2-5.6 4.2-8.3 6.3-2.7 2.1-5.3 4.2-7.9 6.2-2.6 2.1-5.2 4.2-7.6 6.2-2.5 2.1-4.9 4.1-7.2 6.2-2.2 2-4.3 4.1-6.2 6.2-1.8 2.1-4.2 4-4.8 6.4-.6 2.5 1 6.9 1.2 8.3 .2 1.4-.4-.1 0 0Z"/><path class="kp-h" d="M248 253.6c.8-.5 2.3-.7 4.9-2.8 2.6-2.1 9.1-8 10.9-9.6M247.5 253.6c1.1-1 3.1-2.8 6.4-5.8 3.3-3 11.2-10 13.4-12M247.7 253c1.4-1.4 4.2-4.8 8.3-8.8 4.1-4.1 13.7-12.9 16.5-15.5M247.4 252.8c2.1-2.3 6.8-7.9 12.6-13.8 5.7-5.8 18.2-17.6 21.9-21.1M247.5 252.7c1.2-1.9 3.2-7.1 7.1-11.4 3.8-4.3 13.5-12.2 16.2-14.6M247.3 252.4c.5-1.5 .8-5.5 3.1-8.6 2.3-3.1 8.8-8.3 10.6-9.9M247 252.3c.4-1.6 .5-6.1 2.7-9.4 2.2-3.3 8.6-8.6 10.4-10.3M247.6 253.7l-.9-5.2M248.3 254.3l-2.2-7.8M249.1 254.3l-2-9.6M250 253.8l-1.3-10.8M251 252.9l-1-11.5M252.6 251.6l-1.3-12.1M254.1 250.6l-1.5-12.7M256.4 249.2l-2.2-13.1M257.7 248.2l-1.7-13.5"/><path class="kp-b" d="M247.3 253.8c-.2-1.4-1.8-5.8-1.2-8.3 .6-2.4 3-4.3 4.8-6.4 1.9-2.1 4-4.2 6.2-6.2 2.3-2.1 4.7-4.1 7.2-6.2 2.4-2 5-4.1 7.6-6.2 2.6-2 6.6-5.2 7.9-6.2"/>
<path class="kp-p" d="M176.3 265.2c-.3-1.3-.7-5.9-2.1-8-1.4-2-4-3-6.3-4.4-2.3-1.4-4.8-2.5-7.4-3.7-2.5-1.3-5.2-2.4-7.9-3.5-2.7-1.2-5.5-2.3-8.3-3.4-2.9-1.1-5.7-2.1-8.6-3.2-2.9-1.1-5.7-2.3-8.8-3.2-3-.9-9.8-3.3-9.6-2.4 .2 .8 7.4 5.2 10.8 7.5 3.4 2.3 6.4 4.4 9.5 6.4 3.1 1.9 6.1 3.8 9.1 5.5 3 1.8 5.9 3.4 8.7 4.9 2.8 1.5 5.5 2.8 8 4 2.6 1.1 5.1 2.2 7.2 3 2.2 .7 4.8 1.6 5.8 1.7 .9 .1-.1-1-.1-1.2 0-.2 .4 1.3 0 0Z"/><path class="kp-h" d="M175.6 262.7l.2 .6M174.9 260.1l.4 1.4M174.4 257.5l-.5 3.4M172.1 256l-.3 3M170.1 254.4l-.5 3.8M167.9 253.2l-.8 3M165.4 252l-.6 2.8M163 250.7l-.4 4.1M160.6 249.4l-.8 3.7M158 248.2l-.8 3.8M155.3 247.1l-1 3.2M152.6 245.8l-1 4.5M149.8 244.6l-.8 4.1M146.8 243.6l-.9 3.6M144.2 242.5l-1.3 2.9M141 241.4l-1.2 2.2M138.4 240.4l-1.5 2.7"/><path class="kp-f" d="M175.9 263.8c-2.9-2-10-8.2-17.2-12.3-7.2-4-21.8-10-26.1-12M176.1 264.3c-2.8-1.7-10-6.4-17.2-10.2-7.1-3.8-21.4-10.6-25.7-12.7M176.2 264.8c-2.8-1.4-9.6-4.7-16.8-8.3-7.1-3.7-21.7-11.2-26-13.4"/><path class="kp-b" d="M176.3 265.2c-.3-1.3-.7-5.9-2.1-8-1.4-2-4-3-6.3-4.4-2.3-1.4-4.8-2.5-7.4-3.7-2.5-1.3-5.2-2.4-7.9-3.5-2.7-1.2-5.5-2.3-8.3-3.4-2.9-1.1-7.2-2.7-8.6-3.2"/>
<path class="kp-p" d="M155.4 237.1c-.2-2.3 1.4-5.8 2.2-8.7 .7-2.9 1.5-5.8 2.2-8.7 .8-2.9 1.7-5.8 2.5-8.7 .9-2.9 1.7-5.9 2.7-8.8 .9-2.9 1.9-5.9 2.9-8.8 1-2.9 2.1-5.9 3.2-8.8 1.2-3 2.4-6 3.7-9 1.3-2.9 2.7-5.9 4.4-9 1.6-3 2.7-5.9 5.5-9.1 2.9-3.2 9.5-8.4 11.4-10 1.9-1.7-2.3-1.1 0 0 2.3 1.1 10.1 4.2 13.7 6.4 3.6 2.3 5.5 4.9 7.9 7.3 2.4 2.5 4.6 5 6.7 7.5 2.1 2.5 4 5 6 7.5 1.9 2.6 3.7 5.1 5.5 7.6 1.8 2.6 3.6 5.1 5.3 7.7 1.7 2.6 3.3 5.1 4.9 7.7 1.7 2.6 3.2 5.1 4.8 7.7 1.6 2.6 3.1 5.2 4.6 7.8 1.5 2.5 4 5.4 4.5 7.7 .4 2.3-.4 4-1.8 6.1-1.4 2-3.7 4.2-6.7 6.2-2.9 1.9-6.8 3.9-11 5.7-4.2 1.7-9.2 3.3-14.2 4.6-5 1.3-10.6 2.4-16 3.2-5.4 .8-11.1 1.2-16.3 1.4-5.2 .1-10.4-.1-15-.6-4.5-.5-8.7-1.4-12.1-2.5-3.4-1-6.2-2.5-8.1-4-2-1.6-3.2-3-3.4-5.4Z"/>
<path class="kp-t" d="M196.1 147.5q0 0 0 0M190.9 154.5q1.8-.7 3-2.2M204.7 157q-2.3 .4-2.9-1.9M184.7 156.9q.9-1.6 2.3-2.7M194.5 163.2q.9-1.4 1-3.1M212.9 159.2q-1-1.7-2.9-1.4M183.1 164.4q-.3-1.9 1.4-2.7M204.1 166.5q1.1-1.7 0-3.5M188.3 170.1q1.6-1.2 1-3.2M214.1 166.6q-.7-1.4-1.5-2.6M178.7 167.9q.4-1.6 .9-3.2M198.8 173.2q1.8-1.4 .5-3.3M220 164.8q-2-.4-2.6-2.4M181.8 174q-.3-2.2 1.5-3.5M211 173.3q-.2-1.5-1.3-2.4M191.4 178.1q0-1.9 1.1-3.5M220.6 171.1q-1.3-.9-2-2.3M176.7 175.9q.2-1.4 .4-2.8M204.8 179.1q-1.2-1.1-1.7-2.6M224.1 167.8q-1.3-.9-2.7-1.7M183.6 181.2q-1.1-2.2 .8-3.6M217.7 177.3q-.3-1.5-1-2.9M174.2 176.2q1.3-1.8 .4-3.7M196.5 183.7q.8-1.3 .2-2.7M225.7 173.6q-1.6-.7-1.2-2.5M177 182.7q.2-1.4 .7-2.7M211.5 183.1q-1.1-1.2-.6-2.7M187.5 186.9q-.7-1.3-.3-2.7M223.8 179.7q-.8-1-1.5-2.2M172.7 182.6q.2-1.5 1.2-2.7M202.9 187.9q-.2-1.4 .5-2.6M229.2 175.2q-.9-1.5-2.1-2.7M179.2 188.6q1.5-1.4 1.2-3.5M218.3 185.6q-2.1-.8-1.5-3M193 191.5q.2-1.6 .3-3.2M228.9 181.1q-.5-1.6-1.2-3.2M173 188.6q.2-2 1.8-3.2M210 190.9q-.8-1.7-1-3.5M230.9 176.2q-1.2-1.2-2.7-2M183.3 193.6q1.9-.9 1.2-2.8M224.8 187.2q1-2.3-1.1-3.6M170 187.5q.6-1.8 .3-3.8M199.7 195.1q-1.3-1.4-1.3-3.3M232.7 181.8q.1-1.9-1-3.3M175.1 194.1q.8-1.1 1.6-2.2M217.3 192.9q-.1-1.8-.2-3.7M188.9 197.9q-.5-2.1 1-3.5M230.5 188q-.4-1.3-1.1-2.4M169.8 193.2q1.5-1.1 1.6-2.9M207.2 197.7q-.2-1.6-1.5-2.7M234.9 182.1q-.9-1-1.9-1.8M179 199q-1.2-1.4 .1-2.7M224.4 194q-.3-1.4-1-2.6M168.2 191q1.7-1 1.9-2.9M195.8 201.2q.7-1.5 .2-3.1M234.9 188.1q-1.9-1-1.3-3M171.4 198.5q.9-1.6 .8-3.5M215 199.4q.2-1.7-1.1-2.9M184.5 203.1q1-1.9-.7-3.3M230.7 194.4q-.1-1.6-1.1-2.8M167.3 196.6q-.8-1.9 .4-3.5M203.5 203.7q0-1.9-1.2-3.4M237.8 187.9q.6-2-1.4-2.7M174.8 203.3q-1.8-1.9 0-3.7M222.7 200.3q.4-2.4-2-2.9M191.3 206.5q.7-1.7-.7-3M236 194.2q.4-2-1.4-2.8M168.2 201.9q-.4-1.7 0-3.5M211.7 205.4q-.8-1.3-.7-2.7M239 187.5q-1.9-.2-1.8-2.1M179.9 207.5q.4-1.7 .2-3.4M229.8 200.5q-.5-1.3-.3-2.7M165.6 199.3q.8-1.2 1.2-2.5M199.2 209q1.6-1.4 .4-3.1M239.8 193.6q-.1-1.9-1.8-2.8M170.9 206.9q.1-1.8 1.4-3.1M220 206.2q.2-2.2-1.9-2.7M186.5 211q.5-1.5 .1-2.9M236 200q-.1-2.1-2.2-2.7M165.6 204.7q-.5-1.8 1-2.9M207.7 210.8q-.6-1.8-.3-3.7M241.9 192.8q-1.7-1-2.6-2.7M175.5 211.2q-.7-2.4 1.6-3.2M227.9 206.3q-1.6-.9-1.3-2.7M164.7 201.4q.9-1.6 2.1-2.9M194.4 213.8q1-1.3 .2-2.7M240.7 199.2q-2.5 0-2.6-2.5M167.5 209.7q1.8-.7 1.1-2.5M216.5 211.7q.7-1.7-1-2.6M242 192q-.4-1.4-1.7-2.1M181.7 215q.8-1.3-.1-2.6M234.9 205.7q.7-2-.8-3.6M163.7 206.8q1.3-1.6 .2-3.3M203 215.7q-1.4-1.3-.2-2.8M243.8 198.1q-1.2-1.4-1.4-3.3M171.3 214.3q1.5-.7 1.4-2.4M225 211.8q-1.5-1.5-1-3.5M189.3 217.9q1.4-2-.5-3.7M240.7 204.7q-.2-2.4-2.6-2.4M164.6 212q.3-1.4 .5-2.7M212.2 216.7q-.3-1.5 .3-2.9M245 196.9q.1-1.9-1.8-2.3M176.9 218.3q-.2-2 .9-3.6M232.9 211.3q.4-2-1.3-2.9M162.6 208.4q2.2-.5 1.9-2.7M197.9 220.1q-.8-1.2-1-2.5M244.9 203.4q-2.3-1.1-1.5-3.5M167.5 216.8q.2-1.8 1.6-3.1M221.3 217q-.4-1.3-1.3-2.3M184.1 221.6q1.4-1.3 .6-3M239.7 210.2q-1-1.2-2.2-2.1M162.4 213.7q.7-1.8 .2-3.6M207.3 221.4q-1.9-1.1-1.4-3.2M247.2 201.9q-1.9-.5-2.9-2.3M172.3 221.1q.2-1.6 0-3.2M230 216.6q-.2-1.8 0-3.5M192.5 224q1.2-1.7 .4-3.7M245 208.7q-.3-1.3-.8-2.6M164.3 218.7q.7-1.5 0-3M216.8 221.9q.1-1.7-1.3-2.7M247.5 200.4q-.8-1.7-2.5-2.6M178.9 224.7q1.5-1 1.1-2.7M237.7 215.5q-.1-1.6-1.7-2M161 215q-.1-1.9-.1-3.7M201.9 225.7q-1.9-1.5-.5-3.5M248.5 207q.1-2-1.8-2.7M168.2 223.3q2.2-1.3 1.1-3.6M226.2 221.6q-1.8-.5-1.4-2.3M187 227.5q-.4-1.7-.2-3.5M244.1 213.9q-.5-1.8-1.6-3.3M161.7 220.2q.9-1.2 1.1-2.7M211.8 226.5q-.2-1.9-.1-3.8M249.9 205.2q.1-1.8-1.4-2.9M174 227.3q-.9-1.3-.1-2.7M234.8 220.7q-1.3-1.3-1.4-3.1M160.4 215.9q-.6-1.5 .2-2.8M196.3 229.5q-1-1.2-.4-2.7M248.8 212.1q.7-1.9-.7-3.5M164.5 225.1q-.3-1.8 .8-3.3M221.7 226.4q.3-1.6-.6-3M181.5 230.5q.9-1.6 .5-3.4M242.3 219.1q-1.1-1.4-1.1-3.1M159.8 221.3q.2-1.4 1-2.4M206.2 230.7q1.1-1.6-.3-2.9M251.5 210.1q-1.8-.3-1.9-2.1M169.4 229.4q1.7-1.1 1-3M231.1 225.6q.7-1.8-.7-3.2M190.4 232.9q-1.2-1.3-.1-2.6M248.2 217.2q-1.4-1.3-.9-3.2M161.5 226.4q.7-1.3 1.2-2.8M216.5 230.9q-.7-1.3-.1-2.7M252.1 208.1q.7-2.2-1.3-3.4M176.2 233q.1-1.8-.2-3.6M239.5 224.2q-.5-1.2-1.5-2.1M158.8 222q1.9-1.6 .5-3.7M200.4 234.5q.6-1.5-.5-2.6M252.2 215q1.3-2.2-.7-3.7M165.3 231q-.4-1.4 .1-2.7M226.6 230.4q-1.3-1.5-.3-3.2M184.6 235.9q.5-1.5 .8-3.1M246.6 222.3q-.2-2-1.9-3M159.2 227.3q.2-1.9-.3-3.7M210.8 235.1q.5-1.5 .2-3.1M254.1 212.8q-1.2-.9-2.2-2M171.2 235.1q.4-1.6-.6-3M235.9 229.2q-.7-1.5-.1-3M194.3 237.8q.2-1.6 1-3.1M251.9 220q-1.2-.8-1.6-2.2M161.8 232.3q.8-1.1 1.3-2.3M221.4 234.9q0-1.4-.5-2.8M253.7 210.7q-1.9-.4-2.1-2.3M178.9 238.3q.7-2.1-.8-3.7M244.1 227.3q-.2-1.7-1.9-2.2M157.7 227.9q1.2-1.2 .3-2.6M204.8 238.9q-.1-1.4-1-2.5M255.1 217.6q-.9-1.6-2.1-2.9M166.6 236.7q1.2-1.2 1.5-3M231.5 233.9q-1.8-1.4-.7-3.3M188.1 240.8q-1-1.6 .6-2.7M250.6 225q-1.5-1.2-1.7-3.2M159 233.1q-.3-1.5 .6-2.6M215.6 239.1q.1-1.9 .5-3.7M256.1 215.2q-.5-1.4-1.4-2.5M173.4 240.4q-.6-1.8-.6-3.7M240.6 232.2q-.5-1.8-1.6-3.3M157.1 228.1q.4-1.9 1.6-3.3M198.5 242.3q.2-2-1.3-3.2M255.2 222.5q-1.9-1.4-.8-3.5M162.6 237.8q2.1-1.2 1.4-3.4M226.4 238.4q-1.1-.9-1.3-2.3M182 243.3q.2-1.4 1.1-2.6M248.4 230q-.5-1.8-.6-3.6M157 233.5q1.7-1.4 1.1-3.5M209.5 243q.6-1.8-1.1-2.4M257.6 219.9q-.6-1.7-1.5-3.3M168.4 242q.4-1.4 .4-2.8M236.4 237q-.1-1.5-1.4-2.3M192 245.3q-.7-1.5 .6-2.6M254.3 227.5q.9-1.7-.6-2.9M159.3 238.6q-.2-1.7 .8-3.1M220.6 242.7q1.4-1.3 .3-2.8M257.7 217.4q-1.5-.6-2.2-2M176.2 245.4q-.7-2 1-3.3M245.2 234.9q.1-1.6-1-2.8"/><path class="kp-d" d="M197.4 145.5h.1M205.7 156.6h.1M202.9 165.7h.1M210.3 173.6h.1M217.4 176.7h.1M227.2 174.8h.1M212.9 184.8h.1M229.4 173.7h.1M216.3 184.3h.1M210 191.2h.1M230.4 174.8h.1M215.8 191.9h.1M235.8 186.6h.1M214 197.9h.1M237.1 187.5h.1M223.5 200.8h.1M213.5 204.7h.1M240.8 187.9h.1M230.7 199.3h.1M240.4 192.5h.1M221.9 205.9h.1M243.7 193.3h.1M227.7 207.7h.1M242.2 198.1h.1M226.9 212.3h.1M242.2 202.8h.1M246.1 198.7h.1M244.7 203.6h.1M244.5 206.7h.1M217.3 221.9h.1M247 199.3h.1M239.3 217.2h.1M250.4 205.5h.1M234.2 219.8h.1M243 217.5h.1M232.9 225.8h.1M250.1 217h.1M250.7 208.9h.1M240.3 224.8h.1M227.1 228.8h.1M245.3 223h.1M254.3 212.5h.1M221.7 233.1h.1M255.4 209.8h.1M255.4 216.3h.1M229.8 232.1h.1M249 224.2h.1M257 213.8h.1M239.1 232.5h.1M256.6 224.5h.1M249.5 229.8h.1M258.8 219.2h.1M236.2 238.6h.1M256.3 216.3h.1"/>
<path class="kp-p" d="M253.8 239.6c.5-.3 1.3-.2 3-1.5 1.7-1.3 4.7-4.1 7.3-6.5 2.6-2.5 5.5-5.3 8.3-8.3 2.8-2.9 5.8-6.1 8.7-9.5 2.9-3.4 5.9-7 8.8-10.7 3-3.8 5.9-7.7 8.9-11.7 2.9-4.1 5.8-8.1 8.8-12.6 3.1-4.5 9.9-13.3 9.7-14.3-.3-.9-7.7 5.7-11.3 8.6-3.5 2.9-6.6 6-9.8 9-3.3 3-6.4 6.1-9.6 9.1-3.1 3-6.3 6-9.3 9-3 3-6 6-8.9 9-2.8 3-5.6 6-8 9.1-2.4 3.1-5.4 5.9-6.5 9.5-1.1 3.5 0 9.8-.1 11.8 0 1.9-.4 .2 0 0Z"/><path class="kp-h" d="M254.5 239c1.7-1.7 5.3-5.1 10-9.9 4.6-4.8 14.8-15.7 17.8-18.9M254.4 238.8c2.2-2.4 7.5-8.1 13.5-14.7 6.1-6.6 19-20.8 22.8-25M254.5 238.6c1.2-1.7 3.7-5.9 7.3-10.2 3.7-4.4 12.3-13.1 14.7-15.7M254.4 238c2.3-3.2 7.7-11.6 14.1-19.2 6.4-7.6 20.4-22.1 24.5-26.5M254 237.8c2.1-3.1 6.9-11.4 12.7-18.4 5.8-7 18.3-19.7 21.9-23.6M254.1 237.6c1.2-2.5 3.4-9.4 7.3-14.8 3.9-5.4 13.5-14.7 16.2-17.6M254.3 237.3c1.3-2.8 3.5-10.7 7.8-16.6 4.2-5.9 14.9-15.7 17.9-18.8M253.9 237.3c1.3-3 3.4-11.6 7.5-17.6 4.2-6 14.4-15.4 17.3-18.4M254.4 239l-.4-6.4M255.2 238.5l-.9-9.5M256.2 238.2l-1.2-11.5M257 237.3l.3-13.1M259.3 235.7l-.6-14.5M261.3 233.8l-.5-14.8M263.3 232.2l-.7-15.6M265.2 229.9l-.2-15.7M267.6 227.8l-.4-16.2"/><path class="kp-b" d="M253.8 239.6c.1-2-1-8.3 .1-11.8 1.1-3.6 4.1-6.4 6.5-9.5 2.4-3.1 5.2-6.1 8-9.1 2.9-3 5.9-6 8.9-9 3-3 6.2-6 9.3-9 3.2-3 8-7.6 9.6-9.1"/>
<path class="kp-p" d="M229.3 282.1c-.9 .5-4.8 2.2-5.5 2.6-.8 .5 .5 .1 1.2-.1 .7-.2 1.8-.7 3-1.2 1.2-.5 2.7-1.2 4.3-1.9 1.5-.8 3.2-1.7 5-2.6 1.9-1 3.8-2.1 5.8-3.3 2-1.1 3.9-2.3 6.4-3.8 2.4-1.4 7.2-4.1 8.2-4.8 .9-.6-1.8 .4-2.7 .7-1 .4-2 .9-3 1.3-1 .4-2.1 .9-3.2 1.4-1.1 .4-2.3 .9-3.5 1.4-1.2 .4-2.4 .9-3.7 1.5-1.2 .5-2.5 1.1-3.8 1.8-1.3 .7-2.7 1.1-4.1 2.2-1.4 1.2-3.7 4-4.4 4.8-.7 .8 .9-.4 0 0Z"/><path class="kp-h" d="M230.7 280.8l-1.3 .2M233.1 278.1l-2.8 1.7M235.1 276.6l-3.3 2.7M237.5 275.3l-4.1 3.4M239.8 274.2l-4.2 3.4M241.6 273.5l-4.3 3.4M244 272.7l-4.6 3.1M245.6 271.6l-3.7 3.4M247.6 270.9l-3.5 2.7M249.8 269.9l-2.7 2.4M225.3 283.9l10.9-7.8M225.1 284.2l14.2-9.6M226.9 283.6l15.4-10.4M229.6 282.5l15.6-10.5M232.9 281l15.2-10.2M236.9 279l13.9-9.3M241.3 276.6l12-8M246 273.8l9.8-6.2"/><path class="kp-f" d="M228.4 282.4c.8-.4 1.7-.9 5-2.5 3.2-1.5 12.1-5.9 14.6-7.1M229.2 282c1.2-.7 3.8-2.4 7.3-4.2 3.4-1.8 11-5.5 13.2-6.6M229.5 281c1.6-.9 6-3.6 9.5-5.3 3.5-1.8 9.7-4.4 11.7-5.3"/><path class="kp-b" d="M229.3 282.1c.7-.8 3-3.6 4.4-4.8 1.4-1.1 2.8-1.5 4.1-2.2 1.3-.7 2.6-1.3 3.8-1.8 1.3-.6 2.5-1.1 3.7-1.5 1.2-.5 2.4-1 3.5-1.4 1.1-.5 2.7-1.2 3.2-1.4"/>
<path class="kp-p" d="M202.5 286.5c-1-.5-4.4-2.4-6.2-3-1.7-.6-3-.6-4.3-.8-1.4-.2-2.6-.3-3.8-.4-1.2-.1-2.4-.2-3.4-.3-1.1-.1-2.1-.2-3-.3-1-.1-1.9-.2-2.7-.3-.9-.1-1.7-.2-2.4-.3-.7 0-2.9-.2-1.7 .1 1.2 .4 6.3 1.3 8.9 1.9 2.6 .6 4.7 1.1 6.8 1.5 2.2 .5 4.2 .9 6 1.3 1.9 .3 3.7 .6 5.2 .8 1.5 .3 3 .4 4.1 .5 1.1 .1 2.2 .2 2.7 .1 .6 0 1.7-.1 .7-.2-1.1-.2-5.8-.5-6.9-.6-1.1-.2 1 .4 0 0Z"/><path class="kp-h" d="M200.6 285.3l1.8 .5M197.2 284l4.5 .8M194.8 283.3l4 1.4M192.5 282.8l4.7 1.5M190.3 282.6l5 1.7M188.2 282.5l6.6 2M186.4 282.4l4.6 1.4M184.4 281.9l5.4 1.9M182.7 282l5.3 1.4M181.2 281.7l4.9 1.6M198.1 284.2l10 2.8M194.5 283.2l11.8 3.8M191.3 282.8l12.3 4M188.4 282.5l11.8 3.9M185.6 282.3l10.6 3.4M183.1 282l8.5 2.8M180.8 281.7l5.7 2M178.6 281.4l1.9 1"/><path class="kp-f" d="M201.3 286c-1.6-.3-6.1-1.6-9.6-2.2-3.4-.7-9.2-1.3-11.1-1.6M202.5 286.3c-1.2-.3-3.8-.8-7-1.5-3.3-.6-10.4-2-12.5-2.4M203.2 286.1c-.7-.1-1.2-.2-4.1-.7-3-.4-11.3-1.7-13.5-2"/><path class="kp-b" d="M202.5 286.5c-1-.5-4.4-2.4-6.2-3-1.7-.6-3-.6-4.3-.8-1.4-.2-2.6-.3-3.8-.4-1.2-.1-2.4-.2-3.4-.3-1.1-.1-2.1-.2-3-.3-1-.1-2.3-.2-2.7-.3"/>
<path class="kp-p" d="M158.3 240.5c-.7-2-2.1-8.6-4.3-12-2.2-3.3-5.9-5.7-9.1-8.4-3.1-2.7-6.6-5.3-10-7.9-3.5-2.5-7.1-5-10.7-7.5-3.6-2.5-7.4-4.9-11.1-7.3-3.8-2.4-7.6-4.7-11.4-7.1-3.9-2.4-7.6-4.8-11.7-7.1-4-2.2-12.6-7.1-12.6-6.2 0 .8 8.7 7.7 12.7 11.3 4.1 3.6 7.8 6.9 11.7 10.2 3.8 3.3 7.7 6.4 11.5 9.5 3.7 3 7.5 6 11.1 8.8 3.6 2.8 7.2 5.5 10.7 8 3.4 2.5 6.9 4.9 10 7.1 3.2 2.2 6.8 4.4 9 5.8 2.2 1.5 3.5 2.3 4.2 2.8 .7 .4 .8 1.9 0 0Z"/><path class="kp-h" d="M157.4 238c-2.1-2.7-6.8-10.7-12.2-15.9-5.3-5.2-16.7-12.7-20-15.3M157.4 238.5c-3.4-3.4-11.7-13.7-20.1-20.8-8.4-7-25.2-18-30.3-21.6M157.5 238.6c-3.6-3.3-12.6-12.9-21.5-20.1-8.9-7.1-26.7-19-32.1-22.7M157.3 238.8c-3.8-3.2-13.2-11.9-22.5-19.3-9.4-7.3-27.9-20.6-33.5-24.8M157.4 239.3c-2.8-2.4-9.5-8.8-16.7-14.4-7.2-5.6-22-16-26.4-19.2M157.2 239.6c-2.8-2-9.5-6.8-16.7-12.2-7.1-5.3-21.7-16.6-26-19.9M157.5 237.9l-1.9 .6M156.3 234.5l-1.9 3.4M155.2 231.3l-3 5.3M153.6 228.2l-3.3 6.2M151.1 226l-3.6 7.2M148.3 223.8l-3.1 7.8M145.9 221.6l-3.7 7.8M143.3 219.2l-3.9 8.4M140.8 217.1l-3.8 8.2"/><path class="kp-b" d="M158.3 240.5c-.7-2-2.1-8.6-4.3-12-2.2-3.3-5.9-5.7-9.1-8.4-3.1-2.7-6.6-5.3-10-7.9-3.5-2.5-7.1-5-10.7-7.5-3.6-2.5-7.4-4.9-11.1-7.3-3.8-2.4-9.5-5.9-11.4-7.1"/>
<path class="kp-p" d="M190.4 279.2c-1-.7-4-3.5-6.1-4.6-2.1-1-4.2-1.2-6.3-1.6-2-.5-4.1-.9-6.2-1.2-2-.4-4.1-.7-6.1-1-2.1-.3-4.1-.6-6.1-.9-1.9-.3-3.9-.7-5.8-1-1.9-.4-3.8-.8-5.7-1.1-1.8-.2-6.5-1-5.5-.4 1 .5 8 2.6 11.4 3.8 3.5 1.1 6.4 2.1 9.4 3.1 2.9 .9 5.8 1.8 8.5 2.5 2.7 .8 5.4 1.4 7.8 2 2.4 .5 4.7 .9 6.7 1.2 2 .4 3.9 .6 5.4 .7 1.4 .1 3.4 .2 3.2-.1-.2-.2-3.8-1.1-4.6-1.4-.7-.2 1 .8 0 0Z"/><path class="kp-h" d="M188.6 277.8l.5 .2M185.1 275.2l2.2 1.2M181.9 274.2l3.8 2.5M178.5 273.3l3.6 2.5M174.8 272.6l4.6 2.8M171.5 272l3.3 2.5M168 271.2l3.3 2.7M164.6 270.6l4 3.1M161 270.1l3.9 2.8M157.9 269.7l2.2 1.6"/><path class="kp-f" d="M189.6 278.3c-2.8-.8-10.5-3.2-16.4-4.6-6-1.5-16.2-3.5-19.4-4.2M190.5 278.8c-2.3-.6-8-2-13.8-3.3-5.8-1.3-17.4-3.8-20.9-4.6M190.9 278.9c-1.9-.3-5.3-.7-11-1.9-5.6-1.2-18.9-4.3-22.7-5.1"/><path class="kp-b" d="M190.4 279.2c-1-.7-4-3.5-6.1-4.6-2.1-1-4.2-1.2-6.3-1.6-2-.5-4.1-.9-6.2-1.2-2-.4-4.1-.7-6.1-1-2.1-.3-4.1-.6-6.1-.9-1.9-.3-4.8-.8-5.8-1"/>
<path class="kp-p" d="M258 226.3c.7-1 2-3.5 3.8-6.3 1.8-2.9 4.8-6.9 7.3-10.7 2.5-3.8 5.1-7.9 7.7-12.2 2.6-4.2 5.3-8.6 8-13.2 2.7-4.5 5.4-9.3 8-14.1 2.7-4.8 5.3-9.8 7.9-14.9 2.6-5.1 5.1-10.2 7.8-15.6 2.7-5.4 8.6-16.2 8.3-17-.2-.8-6.6 8-9.7 12.1-3.1 4.2-5.8 8.4-8.7 12.6-2.8 4.2-5.6 8.5-8.5 12.7-2.8 4.2-5.6 8.4-8.4 12.7-2.8 4.2-5.6 8.4-8.2 12.7-2.6 4.3-5.2 8.6-7.5 12.9-2.4 4.4-5.3 8.5-6.5 13.2-1.3 4.7-1.1 12.6-1.3 15.1-.2 2.6-.6 1.1 0 0Z"/><path class="kp-h" d="M258.7 224.6c2-3.2 6.8-11.5 11.6-19.4 4.8-8 14.3-23.7 17.1-28.4M259 224.3c1.6-3.1 5.4-11.3 9.7-18.8 4.2-7.5 13.3-21.6 16-25.9M258.6 223.7c1.4-3.1 4.5-11.3 8.4-18.3 3.9-7.1 12.4-20.2 14.9-24.3M258.6 223.8c1.9-4.3 6.4-16.5 11.6-26 5.2-9.5 16.4-25.8 19.7-30.9M258.4 223.2c2.1-4.7 7-18.2 12.4-28.4 5.5-10.2 17-27.2 20.4-32.7M258.4 223.2c1.7-4.6 5.4-18.2 10.3-27.8 4.9-9.6 15.8-24.7 19-29.6M258.7 224.6l.3-7.9M259.8 223.1l-.4-10.3M260.8 221.1l0-12M262.2 219.1l.1-13.3M264.1 215.9l.2-13.7M265.9 213.2l.3-15M267.9 210.3l-.2-15.6M270.2 207.4l-.5-15.8M272.3 203.6l-.1-15.7"/><path class="kp-b" d="M258 226.3c.2-2.5 0-10.4 1.3-15.1 1.2-4.7 4.1-8.8 6.5-13.2 2.3-4.3 4.9-8.6 7.5-12.9 2.6-4.3 5.4-8.5 8.2-12.7 2.8-4.3 5.6-8.5 8.4-12.7 2.9-4.2 7.1-10.6 8.5-12.7"/>
<path class="kp-p" d="M220.7 285.8c-1.9 .3-9.1 1.2-11.4 1.6-2.2 .3-1.9 .4-2.3 .5-.3 .1-.1 .1 .2 .1 .4-.1 1.1-.2 2-.4 .8-.2 1.9-.5 3.2-.8 1.2-.4 2.6-.8 4.2-1.2 1.6-.5 3.1-1 5.3-1.6 2.2-.6 6-1.5 8-2 1.9-.5 2.8-.8 3.8-1 .9-.2 1.4-.2 1.9-.3 .6-.1 .9-.1 1.2-.2 .2 0 .3-.1 .2-.1-.1 0-.3 0-.7 .1-.5 .1-1 .2-2 .4-.9 .3-1.5 .2-3.7 1-2.3 .8-8.3 3.3-9.9 3.9-1.6 .7 1.9-.2 0 0Z"/><path class="kp-h" d="M223.7 284.7l-2.7 .4M229 282.3l-7.7 2.1M231.4 281.6l-8.6 2.3M233.6 281.1l-8.9 2.3M234.8 280.7l-9.4 2.7M235.7 280.9l-12.4 3.1M236 280.5l-8.8 2.4M236.3 280.8l-8.8 2.2M236.2 280.5l-8.7 2.2M235.7 280.9l-7.4 1.8M212.5 286.8l19.6-5.3M209.2 287.4l24.8-6.3M208.5 287.6l26.6-6.7M209.1 287.5l26.5-6.7M210.5 287.2l25-6.4M213 286.6l21.9-5.7M216 285.8l17.8-4.7M219.6 284.7l12.3-3.3"/><path class="kp-f" d="M218.9 285.9c-.5 0-3.5 .4-2.8 .1 .8-.4 6.1-2 7.3-2.4M220.7 285.3c.2-.2 .6-.8 1.6-1.2 1-.3 3.9-.8 4.6-1M221.5 285.2c1.2-.5 5.7-2.2 7.2-2.7 1.4-.6 1.3-.5 1.5-.6"/><path class="kp-b" d="M220.7 285.8c1.6-.6 7.6-3.1 9.9-3.9 2.2-.8 2.8-.7 3.7-1 1-.2 1.5-.3 2-.4 .4-.1 .6-.1 .7-.1 .1 0 0 .1-.2 .1-.3 .1-1 .2-1.2 .2"/>
<path class="kp-p" d="M236.8 273.5c-.9 .5-5.2 2.6-5.7 3-.5 .4 1.3-.2 2.5-.6 1.2-.4 2.9-1.1 4.7-1.9 1.8-.8 3.9-1.8 6.1-2.9 2.2-1.1 4.6-2.3 7.1-3.7 2.5-1.4 5.2-2.9 7.9-4.6 2.8-1.6 5.4-3.3 8.6-5.3 3.3-2 9.7-5.8 10.8-6.7 1.1-.8-2.9 .9-4.4 1.5-1.5 .6-3.1 1.4-4.7 2.2-1.6 .7-3.3 1.4-5 2.2-1.7 .7-3.4 1.4-5.2 2.2-1.8 .8-3.6 1.5-5.5 2.4-1.8 .8-3.7 1.7-5.6 2.6-1.9 1-3.9 1.6-5.8 3.2-1.9 1.6-4.8 5.3-5.8 6.4-.9 1.1 1-.5 0 0Z"/><path class="kp-h" d="M238.6 271.6l-1.2 .4M241.6 268l-3.5 2.9M244.9 265.8l-4.5 4.4M248 264.3l-4.7 4.2M251.2 262.6l-5.1 4.7M254.2 261.1l-5.2 4.9M257.4 260l-5.5 4.8M260.3 258.5l-3.4 3.6M263.4 257.3l-3.1 3.1M266.3 256.1l-3.6 3.4"/><path class="kp-f" d="M236.3 273.7c1.4-.7 3.4-1.9 8.2-4.4 4.8-2.5 17.2-8.8 20.7-10.6M236.8 272.9c1.9-1 6.1-3.6 11.2-6.2 5.1-2.7 16.2-8 19.5-9.6M237.7 272.6c2.4-1.5 8.8-5.8 14.1-8.6 5.2-2.8 14.6-6.8 17.5-8.2"/><path class="kp-b" d="M236.8 273.5c1-1.1 3.9-4.8 5.8-6.4 1.9-1.6 3.9-2.2 5.8-3.2 1.9-.9 3.8-1.8 5.6-2.6 1.9-.9 3.7-1.6 5.5-2.4 1.8-.8 3.5-1.5 5.2-2.2 1.7-.8 4.2-1.9 5-2.2"/>
<path class="kp-p" d="M211.5 287.2c-1.7-.1-8-.7-10.4-.8-2.4-.1-2.8 0-3.7 .1-1 0-1.5 .1-1.9 .1-.4 0-.5 .1-.5 .1 0-.1 .1-.1 .4-.2 .3 0 .8-.1 1.3-.2 .6-.2 1.1-.3 2.2-.5 1-.1 2.2-.3 4.1-.4 2-.1 5.5-.1 7.7-.2 2.1 0 3.6 .1 5.1 .1 1.5 0 2.9 0 4.1 0 1.2 0 2.2 0 3 0 .8-.1 1.4-.1 1.7-.1 .3-.1 .5-.1 .1-.1-.4 .1-.1-.1-2.3 .3-2.2 .3-9.1 1.5-10.9 1.8-1.8 .3 1.8 .1 0 0Z"/><path class="kp-h" d="M208.3 287.1l2.5-.5M202.8 286.6l7.2-.8M199.9 286.3l9.1-.4M197.9 286.3l10.8-.2M197.1 286.6l9.7-.6M196.2 286.6l9.6-.7M195.8 286.6l11.4-.6M195.8 286.5l9.6-.2M195.8 286.7l11-.7M196.5 286.5l8.8-.8M204 286.5l18.9-1.3M200.1 286.4l23.2-1.2M198 286.5l24.6-1.2M196.9 286.5l24.2-1.1M196.4 286.6l22.4-1.2M196.6 286.5l19.2-1.1M197.3 286.3l14.9-1M198.4 286l9.1-.7"/><path class="kp-f" d="M210.1 286.8c-1.1-.1-5.2-.4-6.5-.6-1.3-.2-1.1-.4-1.3-.5M211.7 286.6c-.3-.2-1-.7-1.9-.9-1-.1-3.3 0-3.9 0M213.3 286.9c.5-.2 3.4-1.3 2.7-1.5-.8-.2-5.9 .3-7.1 .4"/><path class="kp-b" d="M211.5 287.2c-1.7-.1-8-.7-10.4-.8-2.4-.1-2.8 0-3.7 .1-1 0-1.5 .1-1.9 .1-.4 0-.5 .1-.5 .1 0-.1 .1-.1 .4-.2 .3 0 1.1-.2 1.3-.2"/>
<path class="kp-p" d="M244.7 260.8c-.9 .3-4.9 1.9-5.1 1.8-.3-.1 1.9-1.3 3.4-2.3 1.5-1 3.5-2.3 5.6-3.8 2.1-1.4 4.5-3.1 7-4.9 2.5-1.9 5.1-3.9 7.9-6.1 2.7-2.1 5.6-4.4 8.6-6.9 3-2.4 5.8-4.9 9.2-7.7 3.5-2.9 10.4-8.3 11.4-9.2 1-1-3.5 2.1-5.3 3.4-1.8 1.3-3.6 2.8-5.5 4.2-1.9 1.4-3.9 2.8-5.9 4.3-2 1.4-4 2.8-6.1 4.3-2.1 1.4-4.2 2.8-6.4 4.3-2.1 1.6-4.3 3.1-6.5 4.7-2.2 1.7-4.5 3-6.5 5.3-2.1 2.3-4.8 7.2-5.8 8.6-1 1.5 .9-.3 0 0Z"/><path class="kp-h" d="M246.5 258l-1.1 .3M248.4 255.4l-2.4 1.6M250.2 252.6l-3.6 3.5M252.3 250.9l-3.2 3.4M254.6 248.9l-3.9 3.8M256.6 247.2l-3.5 3.6M259 245.7l-4.6 4.7M260.9 244.1l-4.8 5.1M263.2 242.5l-4.2 4.4M265.3 241l-4.3 4.6M267.6 239.7l-3.4 3.8M269.8 237.9l-4.4 4.9M271.7 236.7l-3.8 3.9M273.8 235.3l-3.3 3.2M275.7 233.6l-2.6 3.4M277.7 232.4l-2.3 2.5M279.7 230.8l-2.6 3"/><path class="kp-f" d="M244.1 260.5c1.9-1.6 5.5-5 11.1-9.4 5.7-4.5 19-14.4 22.8-17.3M244.9 259.5c2.3-2 8-7.1 13.9-11.8 5.8-4.7 17.5-13.6 21-16.3M245.3 259.3c2.7-2.4 9.8-9.6 15.9-14.5 6.1-4.9 17.1-12.2 20.5-14.7"/><path class="kp-b" d="M244.7 260.8c1-1.4 3.7-6.3 5.8-8.6 2-2.3 4.3-3.6 6.5-5.3 2.2-1.6 4.4-3.1 6.5-4.7 2.2-1.5 4.3-2.9 6.4-4.3 2.1-1.5 4.1-2.9 6.1-4.3 2-1.5 4.9-3.6 5.9-4.3"/>
<path class="kp-p" d="M197.7 281.4c-1.7-.6-7.5-2.9-10.2-3.7-2.7-.8-4.1-.9-5.8-1.2-1.8-.4-3.2-.6-4.6-.8-1.4-.3-2.6-.5-3.7-.8-1.1-.2-2-.5-2.9-.8-.8-.3-1.6-.6-2.2-.9-.6-.4-1.3-.8-1.5-1-.3-.3-2.1-.9-.2-.6 2 .3 8.3 1.6 11.7 2.3 3.4 .8 6 1.5 8.7 2.1 2.7 .7 5.2 1.3 7.5 1.8 2.3 .5 4.4 .9 6.3 1.3 1.8 .4 3.5 .7 4.8 .9 1.3 .3 2.4 .4 2.8 .6 .5 .1 1.7 .1-.1 .3-1.8 .1-8.9 .4-10.6 .5-1.8 .1 1.7 .7 0 0Z"/><path class="kp-h" d="M194.6 280.4l2.4-.5M189.1 278.4l5.7 .5M185.7 277.4l7.4 .8M182.4 276.7l8.3 1.3M179.8 276.3l9.3 1.3M177.2 275.5l9.1 1.5M175.2 275.1l8.6 1.5M173.5 275l8.7 1M171.7 274.3l9.4 1.3M170.4 273.8l7.8 1.3"/><path class="kp-f" d="M195.9 280.8c-2.1-.7-8.6-3-12.6-4.3-4.1-1.2-9.6-2.6-11.5-3.1M197.9 281c-1.4-.5-4.6-2.3-8.3-3.4-3.8-1.1-11.7-2.9-14-3.5M198.9 281c-.6-.5-.3-1.7-3.6-2.8-3.3-1-13.6-3-16.3-3.6"/><path class="kp-b" d="M197.7 281.4c-1.7-.6-7.5-2.9-10.2-3.7-2.7-.8-4.1-.9-5.8-1.2-1.8-.4-3.2-.6-4.6-.8-1.4-.3-2.6-.5-3.7-.8-1.1-.2-2-.5-2.9-.8-.8-.3-1.8-.8-2.2-.9"/>
<path class="kp-p" d="M227.9 278.1c-2 .4-9.8 1.6-12.1 1.9-2.2 .3-1.4 .1-1.4-.1 0-.2 .7-.6 1.5-1.1 .8-.4 2-1 3.4-1.7 1.4-.7 3.1-1.6 4.9-2.5 1.8-.9 3.9-1.9 6.1-3 2.2-1.1 4.3-2.3 7.2-3.7 2.9-1.3 8.1-3.7 10.2-4.4 2.1-.8 1.7-.1 2.1 0 .5 .2 .5 .6 .5 1 0 .3-.2 .6-.4 1-.3 .4-.7 .7-1.3 1.1-.5 .5-1.2 .9-2.2 1.4-.9 .5-1.9 1-3.3 1.7-1.4 .7-2.5 1-5 2.4-2.5 1.4-8.5 5-10.2 6-1.7 1.1 2-.3 0 0Z"/><path class="kp-h" d="M231.1 276.3l-2.5 .5M236.6 273.1l-8.4 2.4M239.6 271.3l-8.2 2.7M242.2 270.1l-12 4.1M244 269l-11.4 4M246 268.2l-10.2 3.3M247.3 267.2l-11.9 4.2M248.3 266.7l-9.3 3.2M249.1 266l-10.4 3.5M249.6 265.3l-7.2 2.4"/><path class="kp-f" d="M226.1 278.3c-.3-.4-3.5-.9-1.5-2.6 1.9-1.6 11-6.2 13.2-7.4M227.3 277.4c.8-.7 2.5-2.8 4.9-4.5 2.3-1.7 7.7-4.8 9.3-5.7M229.2 277.2c1.6-1.1 6.7-4.7 9.4-6.6 2.7-1.9 5.7-3.8 6.8-4.6"/><path class="kp-b" d="M227.9 278.1c1.7-1 7.7-4.6 10.2-6 2.5-1.4 3.6-1.7 5-2.4 1.4-.7 2.4-1.2 3.3-1.7 1-.5 1.7-.9 2.2-1.4 .6-.4 1-.7 1.3-1.1 .2-.4 .3-.9 .4-1"/>
<path class="kp-p" d="M251.8 246.3c-.9 0-4.9 .6-5.1-.3-.3-.9 2-3.1 3.5-5 1.5-1.9 3.5-4.1 5.6-6.4 2.1-2.4 4.5-5 7-7.7 2.5-2.7 5.1-5.6 7.8-8.7 2.7-3 5.5-6.3 8.4-9.6 2.9-3.4 5.6-6.7 9-10.5 3.4-3.7 10.3-10.9 11.2-11.9 .8-1.1-4 3.6-5.9 5.6-1.9 2-3.8 4.3-5.7 6.6-2 2.2-3.9 4.4-6 6.7-2 2.2-4.1 4.5-6.2 6.8-2.2 2.3-4.3 4.6-6.5 7-2.1 2.5-4.3 4.9-6.4 7.5-2.1 2.6-4.5 4.8-6.3 8.1-1.7 3.4-3.7 9.9-4.4 11.8-.8 2 .8 .1 0 0Z"/><path class="kp-h" d="M253.3 242.8l-1.1-.6M254.7 238.9l-2.8 1.5M255.9 234.8l-2 2.4M257.9 232.3l-2.7 3.1M260.3 229.6l-3.4 3.6M262.2 226.8l-3.8 4.4M264.5 224.2l-2.8 3.3M266.5 221.6l-2.8 3.6M268.6 219.1l-3.3 4.4M270.6 217.1l-3.3 4M273.1 214.7l-3.5 4.1M275.1 212.1l-3 4M277.1 209.7l-3.4 4.6M279.3 207.4l-2 2.8M281.4 205.3l-2.6 3.1M283.6 202.9l-2 2.3M285.4 200.6l-1.9 2.6"/><path class="kp-f" d="M250.7 244.9c1.9-2.9 5.6-9.9 11.2-17.1 5.6-7.1 18.8-21.6 22.5-25.9M251.5 244.1c2.2-3.4 7.2-12.8 13-20.2 5.8-7.3 18.2-19.9 21.9-23.9M252.2 243.5c2.5-3.8 9.3-15.2 15.2-22.8 6-7.6 17.2-18.9 20.6-22.7"/><path class="kp-b" d="M251.8 246.3c.7-1.9 2.7-8.4 4.4-11.8 1.8-3.3 4.2-5.5 6.3-8.1 2.1-2.6 4.3-5 6.4-7.5 2.2-2.4 4.3-4.7 6.5-7 2.1-2.3 4.2-4.6 6.2-6.8 2.1-2.3 5-5.6 6-6.7"/>
<path class="kp-p" d="M183.1 270.9c-1.6-1.1-6.8-4.9-9.8-6.5-2.9-1.5-5.4-1.9-8-2.8-2.6-.9-5-1.6-7.4-2.3-2.4-.7-4.7-1.4-6.9-2.1-2.2-.7-4.4-1.3-6.4-2-2.1-.7-4.1-1.4-6-2.1-1.9-.7-3.8-1.5-5.5-2.1-1.7-.6-6.4-2-4.7-1.4 1.6 .6 10.2 3.5 14.6 5.1 4.4 1.5 8 3 11.7 4.3 3.7 1.4 7.3 2.6 10.6 3.8 3.3 1.1 6.5 2.1 9.4 3.1 2.9 .9 5.6 1.7 7.9 2.4 2.3 .7 4.4 1.3 5.9 1.8 1.4 .4 3.8 .8 2.9 .9-.9 .2-6.9-.1-8.3-.1-1.4 0 1.6 1.1 0 0Z"/><path class="kp-h" d="M180.3 269.1l1.5-.3M176.9 266.9l4.5 .7M173.8 264.5l5 1.8M171.3 263.6l6.9 2.8M168.5 262.8l7.4 2.8M165.7 261.7l7.2 2.8M163.3 260.9l8 3.3M161.1 260.3l6.1 2.4M158.3 259.6l7.3 2.8M156.1 258.6l8.5 3.5M153.7 258l8.1 3.2M151.3 257.3l8.3 3.4M149.3 256.8l8.4 2.8M147.2 255.9l7.4 3M144.8 255.4l6.9 2.6M143 254.6l4.4 1.8M141 254.1l5.6 2"/><path class="kp-f" d="M181.6 269.3c-3.3-1.4-12.9-6-19.9-8.6-6.9-2.6-18-5.8-21.6-7M183.1 269.7c-2.6-1.1-8.7-4.3-15.3-6.9-6.7-2.5-20.6-6.8-24.7-8.1M184.2 270.5c-1.8-.9-4.6-2.9-11-5.3-6.4-2.4-22.8-7.6-27.4-9.1"/><path class="kp-b" d="M183.1 270.9c-1.6-1.1-6.8-4.9-9.8-6.5-2.9-1.5-5.4-1.9-8-2.8-2.6-.9-5-1.6-7.4-2.3-2.4-.7-4.7-1.4-6.9-2.1-2.2-.7-4.4-1.3-6.4-2-2.1-.7-5-1.8-6-2.1"/>
<path class="kp-p" d="M169.2 257.3c-1.5-1.7-5.8-7.7-9-10.6-3.2-2.9-6.8-4.5-10.2-6.6-3.4-2.2-6.9-4.1-10.3-6-3.4-2-6.8-3.8-10.2-5.7-3.4-1.9-6.8-3.7-10.1-5.6-3.3-1.9-6.5-3.8-9.7-5.7-3.2-1.8-6.3-3.9-9.5-5.6-3.1-1.8-10.3-5.8-9.3-5 1 .9 10.7 6.7 15.6 9.8 4.8 3 8.9 5.9 13.3 8.6 4.3 2.8 8.5 5.4 12.6 7.9 4 2.5 8.1 4.8 11.9 7 3.7 2.2 7.4 4.3 10.8 6.2 3.4 1.9 6.6 3.7 9.3 5.2 2.8 1.6 6.2 3.2 7 4.2 .8 1-1.9 1.6-2.2 1.9-.4 .4 1.4 1.8 0 0Z"/><path class="kp-h" d="M166.6 254l0-.6M163.3 250.5l2 .6M160.6 247.1l1.9 1.9M157.2 244.8l3.3 2.7M153.7 242.7l3.3 2.9M150.6 240.4l2.4 2.3M146.8 238.5l3.7 3.2M143.5 236.2l4.4 3.8M139.9 234.3l3.5 3.2M136.6 232.3l2.8 3M133.1 230.4l3.3 3.1M129.8 228.5l2.9 3.1M126.2 226.8l2.3 2M122.8 224.8l2.1 2.1M119.4 223.1l2.2 1.7M116.1 221.1l1.8 1.7M112.8 219l1.4 1.5"/><path class="kp-f" d="M167.5 254.5c-4.5-3.3-17.3-13.2-27.1-19.5-9.9-6.3-26.7-15.5-32-18.6M168.2 255.2c-4.1-2.9-15-11-24.7-17.2-9.6-6.1-27.8-16.5-33.4-19.8M168.8 256.2c-3.6-2.7-12.5-9.9-22-15.9-9.5-6.1-29.1-17.1-34.9-20.5"/><path class="kp-b" d="M169.2 257.3c-1.5-1.7-5.8-7.7-9-10.6-3.2-2.9-6.8-4.5-10.2-6.6-3.4-2.2-6.9-4.1-10.3-6-3.4-2-6.8-3.8-10.2-5.7-3.4-1.9-6.8-3.7-10.1-5.6-3.3-1.9-8.1-4.7-9.7-5.7"/>
<path class="kp-p" d="M213.6 281.4c-2.1 0-10-.3-12.7-.4-2.8 0-3 0-3.9-.1-.9-.1-1.2-.3-1.4-.5-.2-.3-.1-.6 .2-.9 .3-.4 .9-.8 1.6-1.3 .7-.5 1.5-1.1 2.6-1.7 1-.7 2-1.4 3.6-2.1 1.7-.8 4-2.1 6.3-2.4 2.3-.3 5.5 .4 7.5 .7 2.1 .3 3.5 .7 4.9 1 1.5 .4 2.7 .7 3.7 1 1.1 .3 2 .5 2.6 .8 .6 .2 1 .4 1.1 .7 .1 .2 0 .4-.6 .8-.7 .3-.7 .2-3.3 1-2.6 .7-10.2 2.9-12.2 3.4-2 .6 2.1 .1 0 0Z"/><path class="kp-h" d="M217.3 280.3l-2.8 0M223.8 278.4l-7.9 .6M226.4 277.5l-10.6 1.5M228.3 277.2l-11.1 1M228.5 276.8l-12.8 1.1M228.7 276.1l-15.2 1.6M228.2 275.9l-12.7 1.3M227.4 275.2l-13.5 1.5M226 275.1l-12.2 1.1M223.9 274.6l-11.6 .9"/><path class="kp-f" d="M212 281.1c-1.1-.4-5.9-1.2-6.7-2.2-.9-1 1.3-3.1 1.6-3.7M213.6 280.7c-.1-.4-.6-1.4-1-2.4-.5-1-1.5-3-1.8-3.6M215.3 280.6c.8-.7 5-2.8 4.9-3.8-.2-1.1-4.9-2.2-5.9-2.6"/><path class="kp-b" d="M213.6 281.4c-2.1 0-10-.3-12.7-.4-2.8 0-3 0-3.9-.1-.9-.1-1.2-.3-1.4-.5-.2-.3-.1-.6 .2-.9 .3-.4 .9-.8 1.6-1.3 .7-.5 2.1-1.4 2.6-1.7"/>
<path class="kp-p" d="M162 246.6c-1.5-1.9-5.8-8.3-9-11.6-3.1-3.3-6.5-5.7-9.8-8.3-3.3-2.7-6.6-5.3-9.8-7.8-3.3-2.6-6.5-5-9.7-7.5-3.2-2.5-6.4-5-9.5-7.4-3.1-2.5-6.2-5-9.2-7.4-3.1-2.5-6.1-5-9.1-7.4-2.9-2.3-9.7-7.3-8.8-6.7 .8 .7 9.6 7.3 13.9 10.7 4.4 3.4 8.3 6.5 12.2 9.7 4 3.2 7.8 6.2 11.6 9.2 3.7 3 7.4 5.8 11 8.6 3.5 2.7 7 5.4 10.2 7.9 3.2 2.5 6.3 4.9 9 7.2 2.8 2.2 6.1 4.5 7.3 6.3 1.1 1.8-.3 3.7-.3 4.5-.1 .8 1.4 1.9 0 0Z"/><path class="kp-h" d="M159 242.9l.3-.9M156.4 238.9l.8-.3M153.4 235.1l1.4 1.1M150 232.4l2.7 1.8M146.8 229.9l1.7 .7M143.5 226.8l2.2 1.7M140.3 224.4l2.5 1.8M136.8 221.9l2.7 1.8M133.8 219.2l1.7 1.4M130.3 216.6l2.1 1.4M127.1 214.1l2.8 2.2M123.9 211.6l2.4 2M120.8 209.2l1.3 1.1M117.5 206.4l1.7 1.5M114.4 204.1l1.9 1.5M111 201.4l1.1 .6M108.1 198.8l.7 .8"/><path class="kp-f" d="M159.9 243.5c-4.5-4.2-17.4-16.9-26.8-25.1-9.4-8.1-24.7-19.7-29.6-23.6M160.6 243.9c-4.1-3.8-15.4-15.1-24.7-23.1-9.3-8-26.1-20.6-31.3-24.7M161.3 244.3c-3.8-3.6-13.1-13.6-22.3-21.4-9.1-7.7-27.2-21-32.7-25.2"/><path class="kp-b" d="M162 246.6c-1.5-1.9-5.8-8.3-9-11.6-3.1-3.3-6.5-5.7-9.8-8.3-3.3-2.7-6.6-5.3-9.8-7.8-3.3-2.6-6.5-5-9.7-7.5-3.2-2.5-6.4-5-9.5-7.4-3.1-2.5-7.7-6.2-9.2-7.4"/>
<path class="kp-p" d="M256.3 233.4c-.2-.9-1.7-2.9-1-5.3 .8-2.4 3.5-5.9 5.6-9.1 2.1-3.3 4.5-6.8 7-10.5 2.5-3.6 5.2-7.4 7.9-11.4 2.7-3.9 5.6-8 8.5-12.2 2.8-4.3 5.8-8.6 8.8-13 3-4.5 5.9-8.9 9.2-13.7 3.3-4.8 10-14.1 10.7-15 .6-.8-4.7 6.5-7 9.9-2.3 3.4-4.5 7-6.8 10.5-2.4 3.6-4.7 7.1-7.1 10.7-2.4 3.6-4.9 7.1-7.4 10.8-2.4 3.6-5 7.2-7.5 10.9-2.5 3.6-5.1 7.3-7.6 11.1-2.5 3.9-5.2 7.4-7.4 11.8-2.3 4.4-4.9 12-5.9 14.5-1 2.4 .1 .8 0 0Z"/><path class="kp-h" d="M258.2 228.9l-.2-1.9M260 223.9l-.7-.5M261.9 219.3l-1 .8M264.2 215.2l-.9 1.4M266.7 211.5l-1.2 1.7M269.6 207.5l-2 2.2M271.9 203.7l-1.8 2M274.3 199.8l-1.3 1.8M276.9 196.2l-1.6 1.9M279.4 192.7l-1.7 1.9M282 188.9l-1.4 1.6M284.7 185.3l-2 2.1M287.2 181.4l-1 1.1M289.5 178l-1.1 1.4M291.9 174.2l-.9 1.6M294.6 170.8l-1.3 1.1M296.9 167.1l-.7 .6"/><path class="kp-f" d="M256.8 231c2.8-5 9.8-19.1 16.6-30.2 6.9-11.1 20.5-30.4 24.5-36.4M257.2 230.5c3-5.4 11.3-20.7 18.3-32 7-11.3 19.8-29.8 23.7-35.8M257.3 229.7c3.2-5.6 12.2-22.2 19.5-33.6 7.2-11.4 20-29.1 24-34.9"/><path class="kp-b" d="M256.3 233.4c1-2.5 3.6-10.1 5.9-14.5 2.2-4.4 4.9-7.9 7.4-11.8 2.5-3.8 5.1-7.5 7.6-11.1 2.5-3.7 5.1-7.3 7.5-10.9 2.5-3.7 5-7.2 7.4-10.8 2.4-3.6 5.9-8.9 7.1-10.7"/>
<path class="kp-p" d="M234.2 267c-1.8 .1-9.1 .6-10.9 .2-1.9-.4-.5-1.5 0-2.5 .4-1 1.5-2.3 2.8-3.7 1.3-1.4 2.9-2.9 4.8-4.6 1.8-1.7 3.8-3.5 6.1-5.5 2.2-1.9 4.6-4 7.2-6.2 2.5-2.2 4.9-4.5 8.2-7 3.2-2.5 9.1-7.2 11.1-8 2-.9 .9 1.9 .9 3.1 .1 1.2-.3 2.6-.7 3.9-.4 1.3-1 2.6-1.6 4-.7 1.3-1.6 2.6-2.6 3.9-1 1.4-2.2 2.7-3.5 4.1-1.4 1.5-2.9 2.9-4.7 4.5-1.8 1.6-3.4 2.7-6.2 5-2.9 2.3-9.1 7.4-10.9 8.8-1.8 1.5 1.9 0 0 0Z"/><path class="kp-h" d="M237.7 264.3l-1.7-.4M241.2 261.4l-4.2 .5M244.5 258.7l-7.5 2.1M246.3 256.9l-8.2 2.9M248.6 255.3l-8.4 2.8M250.5 253.4l-8.1 2.8M252.2 251.9l-11 3.8M253.6 250.7l-10.7 3.7M255.2 249l-9.5 3.1M256.6 247.6l-12.4 4.3M257.8 246.2l-10.2 3.5M258.8 244.9l-9.5 3.1M259.6 243.4l-7.9 2.8M260.7 242l-8.6 2.8M261.6 240.7l-10.3 3.7M262.1 239.5l-7.9 2.5M262.7 238l-7.9 2.6"/><path class="kp-f" d="M232.5 266c.5-1.6-.3-5.4 2.9-9.8 3.3-4.4 13.8-13.7 16.6-16.4M234.4 265.6c1.3-2 4.4-7.6 8-12.1 3.5-4.4 11.2-12.3 13.4-14.8M235.4 265.1c2.2-2.4 9.3-9.5 13.3-14.2 4-4.7 8.7-11.5 10.5-13.8"/><path class="kp-b" d="M234.2 267c1.8-1.4 8-6.5 10.9-8.8 2.8-2.3 4.4-3.4 6.2-5 1.8-1.6 3.3-3 4.7-4.5 1.3-1.4 2.5-2.7 3.5-4.1 1-1.3 1.9-2.6 2.6-3.9 .6-1.4 1.3-3.3 1.6-4"/>
<path class="kp-p" d="M199.1 273.3c-2.4-.5-10.7-2.4-14.2-3.3-3.5-.8-4.8-1.1-6.7-1.6-1.8-.6-3.2-1.1-4.5-1.7-1.3-.6-2.2-1.3-3-2-.8-.6-1.4-1.4-1.8-2.1-.5-.8-.7-1.6-.8-2.4-.1-.9-.3-1.9 .2-2.8 .4-.9 .1-2.7 2.5-2.7 2.5 0 8.7 1.9 12.2 2.9 3.5 1 6.1 2 8.8 2.9 2.8 .9 5.3 1.8 7.6 2.5 2.3 .8 4.4 1.6 6.1 2.3 1.8 .7 3.4 1.3 4.5 1.9 1.2 .6 2.1 1.2 2.3 1.7 .3 .5 1.4 .8-.9 1.5-2.2 .8-10.3 2.4-12.3 2.9-2.1 .5 2.3 .6 0 0Z"/><path class="kp-h" d="M194.6 272.1l2-.4M190.4 271.1l4.4-.7M185.6 270l8.7-.1M183.6 269.6l10-.3M181.3 269.1l12.9-.5M179 268.2l14.4 .1M177.7 267.7l14.3 0M176.1 267.1l13.7 0M174.5 266.5l13.6-.2M173.6 265.9l14.6-.2M172.6 265.3l14.6-.2M171.7 264.6l11.9-.1M170.9 264l11.4-.4M170.3 263.1l10.7-.1M169.7 262.7l10.8-.5M169.3 261.8l10.2-.4M168.8 260.7l9.6-.3"/><path class="kp-f" d="M196.5 272.1c-2.5-1-10.9-4-14.8-6.2-3.9-2.1-7.1-5.5-8.5-6.6M198.6 272.5c-1.4-1-4.8-4.1-8.2-6.2-3.5-2.2-10.4-5.8-12.4-6.9M200.7 272.2c-.6-1-.1-3.8-3.1-6-3-2.2-12.5-5.9-15-7.1"/><path class="kp-b" d="M199.1 273.3c-2.4-.5-10.7-2.4-14.2-3.3-3.5-.8-4.8-1.1-6.7-1.6-1.8-.6-3.2-1.1-4.5-1.7-1.3-.6-2.2-1.3-3-2-.8-.6-1.4-1.4-1.8-2.1-.5-.8-.7-2-.8-2.4"/>
<path class="kp-p" d="M217.1 271.8c-2.5-.2-11.9-.9-15-1.5-3.2-.5-3.2-1.1-4-1.9-.8-.7-1-1.5-1-2.4 .1-.9 .5-1.9 1.1-3 .7-1 1.6-2.2 2.7-3.4 1.1-1.2 2.4-2.5 4-3.9 1.5-1.4 2.9-2.9 5.2-4.5 2.3-1.5 5.7-4.4 8.4-4.9 2.6-.4 5.5 1.3 7.5 2.1 2.1 .8 3.3 1.9 4.7 2.7 1.3 .9 2.4 1.8 3.3 2.7 .9 .9 1.6 1.7 2.1 2.6 .4 .9 .6 1.8 .5 2.7-.2 .9-.6 1.8-1.5 2.9-1 1-1.2 1.7-4.2 3.3-3 1.6-11.5 5.4-13.8 6.5-2.3 1.1 2.5 .3 0 0Z"/><path class="kp-h" d="M221.3 269.6l-3.9-.3M225.5 267.5l-7.2 .3M229.9 265.6l-9 .9M231.7 264.5l-13.4 1.5M232.9 263.3l-14.2 1.7M234.1 262.3l-14.7 1.8M234.7 261.2l-15.1 2.1M234.9 260.1l-12.9 1.8M235.6 259.2l-14.7 2.1M235.6 258.4l-14.8 1.9M235.1 257.5l-15.1 1.9M235.2 256.6l-15.3 1.8M234.6 255.5l-15.3 2.1M233.7 254.9l-11.9 1.3M233.1 253.9l-12.5 1.3M232 253l-13.7 1.6M230.8 252.1l-11.3 1.2"/><path class="kp-f" d="M215 270.7c-1.1-1.3-6-4.7-6.4-7.7-.3-3 3.6-8.6 4.3-10.3M217.2 270.4c0-1.5-.2-5.6-.1-8.7 .2-3.1 .8-8.2 .9-9.9M218.7 270.1c1.1-1.7 6.3-7 7-10.2 .6-3.1-2.5-7.3-3-8.8"/><path class="kp-b" d="M217.1 271.8c2.3-1.1 10.8-4.9 13.8-6.5 3-1.6 3.2-2.3 4.2-3.3 .9-1.1 1.3-2 1.5-2.9 .1-.9-.1-1.8-.5-2.7-.5-.9-1.2-1.7-2.1-2.6-.9-.9-2.8-2.2-3.3-2.7"/>
<path class="kp-p" d="M238.3 255.1c-1.7-.2-8.5-.2-10.1-1-1.6-.7-.1-2.2 .6-3.6 .7-1.4 2-3 3.4-4.8 1.4-1.7 3.3-3.6 5.3-5.7 1.9-2 4.2-4.2 6.6-6.5 2.4-2.2 5-4.6 7.7-7.2 2.8-2.5 5.3-5.1 8.7-8 3.4-2.8 9.6-8.3 11.6-9.1 1.9-.8 .4 2.6 .2 4.2-.2 1.5-.8 3.2-1.5 4.9-.6 1.6-1.4 3.2-2.3 4.9-.9 1.6-2 3.3-3.2 5-1.2 1.7-2.5 3.4-4 5.2-1.6 1.8-3.2 3.6-5.2 5.6-2 1.9-3.8 3.5-6.7 6.1-3 2.7-9.2 8.3-11.1 10-1.8 1.6 1.7 .1 0 0Z"/><path class="kp-h" d="M241.8 252l-2.7-.1M245.4 248.9l-4.5 .3M248.8 245.4l-6.2 1.7M250.8 243.4l-8.4 2.8M253.3 241.2l-9.9 3.3M255.3 239.5l-10.4 3.2M257.3 237.4l-11.2 3.9M258.8 235.4l-8.6 2.8M260.7 233.7l-9.4 3.1M262 231.9l-8.7 2.9M263.5 230.3l-10.5 3.7M264.7 228.5l-8.6 2.5M265.8 226.9l-9.5 2.9M266.8 224.8l-9.2 3.4M268 223.4l-7.2 2M268.6 221.5l-7.1 2.2M269.6 219.9l-7.6 2.2"/><path class="kp-f" d="M236.9 254.2c.9-2.3 1.3-8.2 5.2-13.8 3.9-5.5 15.1-16.1 18.1-19.4M238.5 253.6c1.6-2.7 5.6-10.3 9.7-15.9 4.2-5.6 12.6-14.8 15.2-17.7M239.8 252.7c2.4-2.9 10.3-11.7 14.8-17.5 4.6-5.7 10.4-14 12.5-16.9"/><path class="kp-b" d="M238.3 255.1c1.9-1.7 8.1-7.3 11.1-10 2.9-2.6 4.7-4.2 6.7-6.1 2-2 3.6-3.8 5.2-5.6 1.5-1.8 2.8-3.5 4-5.2 1.2-1.7 2.3-3.4 3.2-5 .9-1.7 2-4.1 2.3-4.9"/>
<path class="kp-p" d="M183.3 262.3c-2.4-1.4-10.3-6.1-14.2-8.4-3.9-2.3-6.3-3.7-9-5.5-2.8-1.8-5.2-3.5-7.4-5.3-2.3-1.8-4.3-3.6-6.1-5.4-1.9-1.8-3.6-3.7-5.1-5.6-1.5-1.9-2.9-3.8-4.1-5.8-1.2-2-2.4-4.1-3.1-6.1-.7-1.9-3.5-6-1.3-5.6 2.2 .3 10.3 5.2 14.6 7.7 4.4 2.5 7.8 4.9 11.4 7.3 3.6 2.3 7 4.6 10.2 6.7 3.3 2.2 6.3 4.3 9.1 6.2 2.7 2 5.3 3.8 7.4 5.6 2.1 1.8 4.1 3.4 5.4 5 1.2 1.6 3.4 2.9 2.1 4.5-1.3 1.5-8.3 3.9-9.9 4.7-1.7 .8 2.3 1.4 0 0Z"/><path class="kp-h" d="M179 259.4l1.8-.9M174.3 256.7l4.1-.8M169.6 253.9l7.5 .4M166.8 252.1l9.1 .5M163.8 250.3l11 .7M160.7 248.5l10.8 .5M158.4 246.7l9.5 .3M155.9 244.9l11.9 .8M153.4 243l10.9 .6M151.5 241.3l12.9 1.1M149.1 239.4l9.5 .4M147.4 237.9l9.1 .2M145.6 236l9.7 .3M143.6 233.9l11.2 .5M142 232l9.5 .4M140.8 230l9.4 .3M139.4 228.2l6.6-.3"/><path class="kp-f" d="M180.6 259.9c-3.5-2.9-14-11.5-20.5-17.4-6.6-5.8-15.5-14.6-18.6-17.6M182.8 259.9c-2.7-2.7-9.9-10.6-16.1-16.3-6.2-5.8-17.7-15.1-21.3-18.1M184 260.2c-1.8-2.6-5.2-9.8-11-15.6-5.8-5.7-19.9-15.8-23.8-19"/><path class="kp-b" d="M183.3 262.3c-2.4-1.4-10.3-6.1-14.2-8.4-3.9-2.3-6.3-3.7-9-5.5-2.8-1.8-5.2-3.5-7.4-5.3-2.3-1.8-4.3-3.6-6.1-5.4-1.9-1.8-3.6-3.7-5.1-5.6-1.5-1.9-3.4-4.8-4.1-5.8"/>
<path class="kp-p" d="M242.2 243.2c-1.2-.8-6.1-2.7-7-4.7-.9-2 .7-4.5 1.6-7 .9-2.6 2.2-5.3 3.7-8.1 1.5-2.7 3.2-5.7 5.1-8.7 1.8-3.1 3.9-6.3 6-9.6 2.1-3.3 4.3-6.7 6.7-10.2 2.4-3.5 4.6-7 7.4-10.8 2.8-3.8 8.1-11.1 9.6-11.8 1.5-.7-.1 5-.5 7.7-.4 2.6-1.1 5.5-1.8 8.2-.7 2.8-1.6 5.6-2.5 8.4-1 2.7-2.1 5.5-3.3 8.3-1.3 2.8-2.7 5.5-4.2 8.3-1.6 2.9-3.2 5.7-5.1 8.7-1.9 2.9-3.6 5.6-6.2 9.1-2.6 3.6-7.9 10.2-9.5 12.2-1.6 2 1.2 .8 0 0Z"/><path class="kp-h" d="M245.2 239.3l-1.4-1.2M248.2 235.4l-2.7-.7M251.3 231.4l-5.9 1.1M253.1 228.2l-4.8 .8M255.2 225.4l-7.7 1.7M257.4 222.2l-6.5 1.3M258.9 219.2l-5.9 1.2M260.7 216.3l-7.2 1.9M262.3 213.6l-8 1.9M263.8 210.5l-7.8 2.3M265.3 207.6l-7.5 2M266.8 205.2l-6.8 1.3M267.8 202.2l-7.6 1.9M269.1 199.5l-6.1 .8M270.2 196.5l-6.3 1M271.1 193.8l-6 .8M271.8 190.8l-5.4 .8"/><path class="kp-f" d="M241.4 241.1c1.2-4 3.4-15.1 7.2-23.8 3.9-8.6 13.2-23.3 15.9-28M242.8 240.6c1.7-4.2 6.4-16.5 10.5-25.2 4.1-8.8 11.9-22.9 14.2-27.4M243.5 239.9c2.5-4.5 10.5-18.2 14.9-27.1 4.4-8.8 9.6-21.8 11.5-26.1"/><path class="kp-b" d="M242.2 243.2c1.6-2 6.9-8.6 9.5-12.2 2.6-3.5 4.3-6.2 6.2-9.1 1.9-3 3.5-5.8 5.1-8.7 1.5-2.8 2.9-5.5 4.2-8.3 1.2-2.8 2.3-5.6 3.3-8.3 .9-2.8 2.1-7 2.5-8.4"/>
<path class="kp-p" d="M180.1 252.5c-2.2-1.6-9.7-6.6-13.3-9.3-3.7-2.7-5.9-4.8-8.4-7.1-2.6-2.3-4.8-4.5-6.8-6.8-2.1-2.2-4-4.5-5.7-6.7-1.7-2.3-3.3-4.5-4.8-6.8-1.4-2.2-2.8-4.5-3.9-6.8-1.2-2.3-2.3-4.7-3.1-7-.8-2.3-3.4-6.9-1.4-6.6 1.9 .2 9.3 5.4 13.3 8 4 2.7 7.1 5.4 10.5 8 3.3 2.5 6.4 5 9.4 7.5 2.9 2.4 5.8 4.8 8.3 7.1 2.5 2.4 4.9 4.7 6.8 6.9 2 2.3 3.8 4.5 5.1 6.6 1.2 2.2 3.2 4.1 2.2 6.3-1 2.2-6.8 5.6-8.2 6.7-1.3 1.1 2.3 1.5 0 0Z"/><path class="kp-h" d="M175.9 249.5l2.4-1.7M171.8 246.4l3.9-1.3M167.3 243.2l8.1-.2M164.8 240.8l8.7-.2M162 238.5l9-.3M159.2 236l9.1-.2M157 233.9l8.6-.3M154.6 231.6l10.3 0M152.3 229.5l11.2-.3M150.4 227.1l10.7 0M148.2 224.7l10 0M146.7 222.7l7.6-.5M144.7 220.1l8-.3M143.4 218l8.5-.5M141.7 215.9l7.4-.6M140.4 213.6l6.3-1M138.9 211l6-.6"/><path class="kp-f" d="M177.6 249.5c-3.4-3.6-14.2-14.7-20.4-21.8-6.3-7.1-14.3-17.3-17.2-20.7M179.4 250c-2.5-3.5-9.3-14.3-15.1-21.4-5.9-7.1-16.8-17.7-20.2-21.2M180.7 250.4c-1.9-3.5-5.7-14.1-11.3-21.2-5.6-7.2-18.6-18.1-22.3-21.7"/><path class="kp-b" d="M180.1 252.5c-2.2-1.6-9.7-6.6-13.3-9.3-3.7-2.7-5.9-4.8-8.4-7.1-2.6-2.3-4.8-4.5-6.8-6.8-2.1-2.2-4-4.5-5.7-6.7-1.7-2.3-3.3-4.5-4.8-6.8-1.4-2.2-3.3-5.6-3.9-6.8"/>
<path class="kp-p" d="M220 260.6c-2.4-.5-11.4-1.8-14.4-2.9-2.9-1.1-2.7-2.4-3.3-3.8-.7-1.3-.6-2.8-.4-4.3 .2-1.6 .9-3.3 1.7-5 .8-1.8 1.9-3.7 3.1-5.6 1.3-2 2.8-4.1 4.5-6.3 1.6-2.2 3.2-4.4 5.6-6.8 2.4-2.3 6.2-6.8 8.7-7.4 2.6-.5 4.9 2.8 6.6 4.3 1.8 1.5 2.8 3.2 3.9 4.8 1.1 1.6 2 3.2 2.6 4.8 .7 1.6 1.2 3.1 1.4 4.7 .2 1.5 .2 3.1-.1 4.6-.4 1.6-.9 3.2-2 4.9-1.1 1.7-1.5 3-4.5 5.4-3 2.3-11.1 7.2-13.4 8.6-2.2 1.4 2.4 .5 0 0Z"/><path class="kp-h" d="M224.2 258l-3-.7M228.4 254.9l-5.2-.4M232.4 252.3l-11.1 1.3M234.3 250.3l-12.1 1.5M235.5 248.8l-14 1.5M237.1 246.9l-13.1 1.4M237.5 245.3l-13.6 1.5M238.4 243.5l-12.8 1.5M239.1 242.1l-14.9 1.8M238.9 240.5l-13.9 1.6M238.9 238.8l-14.7 1.8M239.2 237.3l-14.2 1.5M238.8 235.5l-11.7 1.3M238.4 234.2l-14.8 1.5M237.7 232.6l-11.1 .8M236.9 230.9l-11.3 1.1M236 229.2l-10.7 .8"/><path class="kp-f" d="M218 259.3c-1-2.2-5.8-8.4-5.8-13.5 .1-5.1 5.2-14.3 6.3-17.1M220.1 258.6c.2-2.4 .7-9.6 1.3-14.8 .6-5.1 2-13.4 2.4-16M221.6 258.4c1.3-2.6 6.5-10.7 7.7-16 1.1-5.2-.6-13-.7-15.6"/><path class="kp-b" d="M220 260.6c2.3-1.4 10.4-6.3 13.4-8.6 3-2.4 3.4-3.7 4.5-5.4 1.1-1.7 1.6-3.3 2-4.9 .3-1.5 .3-3.1 .1-4.6-.2-1.6-.7-3.1-1.4-4.7-.6-1.6-2.2-4-2.6-4.8"/>
<path class="kp-p" d="M199.6 263.1c-2.4-.8-10.8-3.1-14.2-4.4-3.5-1.4-4.7-2.3-6.5-3.5-1.8-1.2-3.1-2.4-4.3-3.7-1.1-1.3-2-2.7-2.7-4.1-.7-1.5-1.2-2.9-1.5-4.5-.3-1.5-.5-3.2-.5-4.9 0-1.7 0-3.5 .6-5.4 .6-1.8 .6-5.5 2.9-5.6 2.3-.1 7.8 3.4 10.9 5.1 3.2 1.7 5.6 3.5 8 5.1 2.5 1.7 4.8 3.2 6.9 4.7 2 1.5 4 2.9 5.6 4.3 1.6 1.4 3 2.8 4.1 4.1 1 1.3 1.9 2.5 2.1 3.8 .3 1.2 1.3 2.2-.6 3.7-1.9 1.5-9 4.4-10.8 5.3-1.8 .8 2.4 .7 0 0Z"/><path class="kp-h" d="M195.1 261.7l1.6-1.1M190.7 260.1l5-1.2M186.2 258.6l9.3-1M184.1 257.4l10.4-1.1M181.6 256.4l9.9-1.4M179.7 255.2l10.2-1.4M178.2 253.8l12-1.1M176.8 252.5l12.7-1M175.5 251.5l14.4-1.7M174.6 250.2l13.3-1.5M173.5 248.7l12.1-1.4M172.7 247.1l12.8-1.6M172.3 245.6l10.3-1.1M171.8 244.3l9.5-1.6M171.1 242.6l8.7-1.4M171 241.2l9.2-1.8M170.7 239.6l7.4-1.5"/><path class="kp-f" d="M197.1 261.5c-2.3-2-9.9-7.8-13.6-12.1-3.6-4.3-6.9-11.4-8.3-13.7M199.2 261.4c-1.4-2-5.6-7.6-8.8-11.9-3.3-4.3-9-11.7-10.8-14M200.5 261.7c-.6-2.1-.4-8.3-3.2-12.7-2.8-4.4-11.3-11.3-13.6-13.6"/><path class="kp-b" d="M199.6 263.1c-2.4-.8-10.8-3.1-14.2-4.4-3.5-1.4-4.7-2.3-6.5-3.5-1.8-1.2-3.1-2.4-4.3-3.7-1.1-1.3-2-2.7-2.7-4.1-.7-1.5-1.2-2.9-1.5-4.5-.3-1.5-.4-4.1-.5-4.9"/>
<path class="kp-p" d="M198.3 253c-2.2-1.2-9.7-4.7-12.8-6.9-3.1-2.2-4.2-4.1-5.8-6.2-1.6-2-2.7-4.2-3.8-6.3-1-2.2-1.8-4.3-2.4-6.6-.6-2.2-1-4.5-1.3-6.8-.3-2.3-.4-4.7-.4-7.1 0-2.4 0-4.9 .5-7.3 .5-2.5 .6-7.3 2.6-7.4 2-.1 6.7 4.5 9.4 6.8 2.8 2.3 4.8 4.7 7 7 2.1 2.3 4.1 4.5 5.9 6.8 1.8 2.2 3.5 4.4 4.9 6.6 1.4 2.2 2.7 4.4 3.7 6.5 .9 2.2 1.7 4.3 1.9 6.5 .3 2.1 1.2 4-.4 6.4-1.6 2.4-7.5 6.7-9 8-1.6 1.3 2.1 1.2 0 0Z"/><path class="kp-h" d="M194.5 251l1.5-2.2M190.1 248.4l5-2.1M186.2 246.2l7.2-1.9M184.1 243.9l9-1.9M182.5 242l9.7-2.1M180.6 239.8l10.9-1.9M179.3 237.7l10.6-1.9M177.8 235.5l10-2M176.7 233.6l9.4-2.1M175.9 231.5l11-2.2M175.2 229l9.7-2.1M174.4 226.8l9.6-1.9M173.7 224.6l9.3-2.2M173.3 222.3l8-2.1M172.7 219.9l8.2-2M172.4 217.5l8.6-2.1M172.5 215.3l8.1-2"/><path class="kp-f" d="M196 250.7c-2.1-3.3-9.5-13.1-12.7-19.9-3.3-6.7-5.6-17.2-6.7-20.6M197.8 250.4c-1.4-3.3-5.4-13.1-8.3-19.9-2.9-6.8-7.5-17.3-9-20.7M198.9 250.5c-.6-3.3-1-13.2-3.5-20.1-2.4-6.8-9.5-17.6-11.4-21.1"/><path class="kp-b" d="M198.3 253c-2.2-1.2-9.7-4.7-12.8-6.9-3.1-2.2-4.2-4.1-5.8-6.2-1.6-2-2.7-4.2-3.8-6.3-1-2.2-1.8-4.3-2.4-6.6-.6-2.2-1-4.5-1.3-6.8-.3-2.3-.4-5.9-.4-7.1"/>
<path class="kp-p" d="M221.6 249.9c-1.8-.9-8.8-3.3-11-5.1-2.2-1.8-1.9-3.8-2.2-5.8-.3-2.1-.2-4.3 .2-6.5 .3-2.3 .9-4.7 1.7-7.2 .8-2.5 1.8-5.1 2.9-7.8 1.2-2.7 2.5-5.4 3.9-8.3 1.5-2.8 2.8-5.8 4.9-8.8 2-3.1 5.3-9 7.3-9.4 2-.5 3.6 4.4 4.8 6.7 1.3 2.3 2 4.8 2.7 7.2 .7 2.3 1.3 4.7 1.7 7 .4 2.3 .6 4.7 .6 7 .1 2.3-.1 4.6-.5 6.9-.4 2.3-1 4.6-2 6.9-1 2.4-1.6 4.4-4.1 7.3-2.5 2.8-9.1 8.2-10.9 9.9-1.8 1.6 1.9 .8 0 0Z"/><path class="kp-h" d="M225 246.9l-3-1.3M228.5 243.4l-4.9-.5M231.9 240.1l-8.9 .4M233.3 237.8l-8.9 .2M234.4 235.5l-8.9 .5M235.7 233l-11.2 .8M236.6 230.4l-10.8 .9M237.2 228.3l-12.8 1.1M238 225.7l-10.6 .9M237.9 223.5l-12.4 1.4M238.4 221.4l-10.8 .6M238.5 218.9l-11.2 .8M238.1 216.5l-11.6 1M238.1 214.2l-11.7 1M237.8 212l-9.8 .4M237.1 209.3l-8.8 .4M236.9 207.1l-8.1-.1"/><path class="kp-f" d="M219.9 247.6c-.4-3.3-3.1-12.2-2.4-19.4 .7-7.2 5.5-19.7 6.6-23.6M221.7 247.5c.4-3.4 1.4-13.4 2.3-20.7 .9-7.3 2.7-19.2 3.2-23.1M222.8 247.4c1.4-3.7 6.7-14.9 8-22.3 1.4-7.4 .2-18.4 .2-22.1"/><path class="kp-b" d="M221.6 249.9c1.8-1.7 8.4-7.1 10.9-9.9 2.5-2.9 3.1-4.9 4.1-7.3 1-2.3 1.6-4.6 2-6.9 .4-2.3 .6-4.6 .5-6.9 0-2.3-.2-4.7-.6-7-.4-2.3-1.4-5.9-1.7-7"/>
<path class="kp-h" d="M243.7 276l.4 .8M242.4 266.6l-.3-3.6M246.4 274.1l.5 .8M245.2 265.5l-.6-3.6M249.3 272l0 .8M248.3 264.3l.2-3.6M252.2 269.7l.9 .8M251.3 263.2l-.9-3.6M255.2 267.2l.7 .8M254.6 262.1l-.6-3.6M258.5 264.3l0 .8M258 261l-.5-3.6M181.5 275.3l-.4-3.5M184.3 283.6l.7 .7M178.5 274.8l-1.1-3.5M181 282.5l.4 .7M175.3 274.3l-.5-3.5M177.5 281.1l.3 .7M172 273.9l-1.1-3.5M174 279.6l1.2 .7M168.7 273.4l-.5-3.5M170.2 277.9l.5 .7M165.3 273l-1.2-3.5M166.3 276l.2 .7M149.3 244.4l-.4-3.5M151.9 255.6l.6 .7M144.6 242.5l-.5-3.5M147 252.9l.6 .7M139.8 240.6l-.7-3.5M141.9 249.8l.7 .7M135 238.8l-.3-3.5M136.8 246.7l-.1 .7M130.1 237l-.7-3.5M131.5 243.1l.5 .7M125 235.3l-.9-3.5M125.9 239.3l1 .7M234.4 280.3l-1.9-.1M246.6 271.3l1.3-2.7M237.3 278.9l-1.9-.1M248.5 270.5l2.1-2.7M240.4 277.1l-1.4-.1M250.4 269.7l1.9-2.7M243.7 275.3l-1.3-.1M252.2 269l1.6-2.7M247.2 273.2l-1.5-.1M253.8 268.2l1.8-2.7M251.2 270.8l-2.3-.1M255.5 267.6l1.4-2.7M183.7 282l-2.4-2M199.7 286.3l1.7-.8M182 281.8l-1.8-2M196.8 285.9l1.8-.8M180.5 281.6l-2.1-2M193.5 285.2l2-.8M179 281.4l-1.6-2M190.1 284.5l2-.8M177.6 281.3l-2.4-2M186.3 283.6l1.5-.8M176.4 281.2l-2.1-2M182.1 282.7l2.6-.8M163.4 270.5l-1.6-2.5M176.4 277.9l1.5-.3M160 270l-1.9-2.5M172.1 276.8l1.4-.3M156.7 269.4l-1.4-2.5M167.4 275.4l2.1-.3M153.4 268.9l-2.3-2.5M162.5 274l1.8-.3M150.2 268.2l-1.9-2.5M157.3 272.2l2-.3M147.1 267.8l-2.4-2.5M151.7 270.4l1.8-.3M210.7 287.2l-2.5-.9M236.7 280.5l2.1-1.9M212.5 286.7l-2.6-.9M236.5 280.6l2.6-1.9M214.8 286.1l-1.7-.9M236 280.7l2.3-1.9M217.2 285.4l-2.1-.9M235.3 280.8l2.2-1.9M220.2 284.5l-2.1-.9M234.2 280.9l2.1-1.9M223.6 283.6l-2.6-.9M232.8 281.2l1.9-1.9M247.4 269.5l-2.2 0M261.4 258.1l1.1-2.8M251.4 267.4l-1.6 0M264.4 256.9l2.3-2.8M255.8 264.9l-1.7 0M267.2 255.6l1.6-2.8M260.2 262.3l-1.4 0M270 254.4l1.4-2.8M265 259.3l-1.6 0M272.6 253.1l2.2-2.8M270.2 256.1l-1.7 0M275.2 252l1.8-2.8M195.4 286.6l-1.7-1.3M221.4 285.3l2.3-1.5M195.7 286.5l-2-1.3M219.8 285.3l2.3-1.5M196.3 286.4l-2.6-1.3M217.5 285.3l2.7-1.5M197.1 286.2l-2-1.3M215.2 285.3l2.1-1.5M198.3 286l-1.7-1.3M212.4 285.3l2.3-1.5M199.8 285.7l-2.1-1.3M209 285.3l1.6-1.5M258.9 249l-1.3 .1M272.2 236.3l1.6-2.9M263.3 245.7l-1.1 .1M275.7 233.9l1.3-2.9M268.1 241.9l-1 .1M279 231.5l1.3-2.9M272.9 237.9l-1.1 .1M282.2 229.1l1.2-2.9M278.1 233.6l-1.8 .1M285.3 226.7l2.1-2.9M283.7 229l-1.1 .1M288.4 224.5l1.5-2.9M172.5 274.6l-1.6-1.7M198 278.5l1.9-1.1M170.9 274.2l-2.4-1.7M194.5 277.8l2-1.1M169.6 273.7l-1.6-1.7M190.3 276.8l1.9-1.1M168.4 273.1l-2-1.7M186.1 275.8l1.9-1.1M167.5 272.6l-1.8-1.7M181.3 274.7l2.1-1.1M166.8 272.1l-2.1-1.7M175.9 273.4l1.9-1.1M221.6 276l-2.5-.7M248.9 266.3l2-2.1M224.3 274.6l-2-.7M249.6 265.6l2.6-2.1M227.6 273l-2-.7M249.9 265l1.9-2.1M231.1 271.2l-2.2-.7M250 264.5l1.7-2.1M235.1 269.2l-2.5-.7M249.8 263.9l2.2-2.1M239.6 267l-1.8-.7M249.3 263.6l1.7-2.1M266.1 223.3l-1.5 .3M277.7 209.3l1.6-3.1M270.4 218.4l-1.3 .3M281.3 205.5l1.2-3.1M275.1 213.1l-1.1 .3M284.6 201.7l1.6-3.1M279.8 207.7l-2 .3M288 197.9l1-3.1M284.8 201.8l-1.4 .3M291.2 194.2l1.7-3.1M290.3 195.7l-1.4 .3M294.4 190.7l1.6-3.1M148.6 256.5l-2.4-2.2M170.7 264.5l2.1-.6M145 255.3l-2.5-2.2M165.4 262.8l2-.6M141.6 254.2l-2.6-2.2M159.6 260.7l2.3-.6M138.3 253l-2.6-2.2M153.6 258.6l1.5-.6M135.2 251.8l-2-2.2M147.1 256.2l1.8-.6M132.2 250.8l-2.6-2.2M140 253.6l1.9-.6M125.6 226.3l-2.1-2.7M139.4 236.9l1.7-.1M120 223.1l-1.3-2.7M132.7 233l1.8-.1M114.5 220l-2.3-2.7M125.7 228.6l2.1-.1M109 216.8l-1.8-2.7M118.6 224.2l2.1-.1M103.7 213.6l-1.4-2.7M111.2 219.3l1.9-.1M98.4 210.5l-2.1-2.7M103.3 214.3l1.2-.1M196.7 278.9l-1.6-1.1M227.3 275.2l2.3-1.7M197.6 278.2l-1.9-1.1M225.9 274.7l1.7-1.7M199 277.3l-2.5-1.1M223.9 274.2l1.6-1.7M200.5 276.3l-1.8-1.1M221.7 273.7l1.8-1.7M202.5 275.1l-2.2-1.1M219 273.1l2.1-1.7M205 273.9l-2.7-1.1M215.8 272.5l2.8-1.7M120 208.5l-1.8-2.7M131.3 217.2l2.1-.1M114.7 204.3l-2-2.7M125.1 212.4l1.4-.1M109.5 200.2l-2-2.7M118.7 207.2l2.1-.1M104.3 196l-1.8-2.7M112.2 202.1l2-.1M99.2 191.9l-1.9-2.7M105.4 196.6l2-.1M94.2 187.9l-2.2-2.7M98.2 191l1.5-.1M279.3 192.1l-.8 .4M287.6 180.9l1.1-3.2M284 185.2l-1.5 .4M291.7 174.8l1.1-3.2M288.9 178l-1.2 .4M295.7 168.8l1-3.2M293.9 170.7l-1.5 .4M299.7 162.9l1-3.2M299 163l-1 .4M303.5 157l1-3.2M304.4 155.1l-1.4 .4M307.4 151.2l1.8-3.2M233.6 254.1l-1.5-.6M260.3 243.2l2.4-2.2M237 251.1l-2.2-.6M261.7 240.9l2.4-2.2M240.9 247.6l-1.8-.6M262.7 238.7l1.9-2.2M245 244.1l-2.4-.6M263.6 236.5l2.6-2.2M249.6 240.2l-2.5-.6M264 234.3l2.6-2.2M254.7 236.1l-2.2-.6M264.1 232.2l2.6-2.2M170.3 263.9l-2.2-1.4M202.7 264.4l2.2-1.4M169.2 262.7l-2.8-1.4M199.3 263.1l1.9-1.4M168.7 261.3l-2.7-1.4M195.2 261.7l2.4-1.4M168.3 259.9l-2.6-1.4M190.9 260.3l2.1-1.4M168.4 258.4l-2.5-1.4M186 258.7l2.6-1.4M168.9 256.8l-2.7-1.4M180.4 257l2.2-1.4M199.7 261.6l-1.6-1M234.9 255.4l1.9-1.8M201.1 259.7l-2.4-1M233.8 254l1.7-1.8M203.3 257.5l-2.3-1M232 252.5l1.7-1.8M205.5 255.3l-1.7-1M230 251l1.7-1.8M208.4 252.8l-2.4-1M227.5 249.4l1.6-1.8M211.9 250.2l-2.1-1M224.4 248l2.3-1.8M240.4 237.3l-1.7-.5M266.3 226.3l1.9-2.3M244.1 233.7l-1.4-.5M268.1 223.5l1.6-2.3M248.3 229.7l-2.1-.5M269.5 220.7l1.4-2.3M252.7 225.6l-2.1-.5M270.8 218l1.6-2.3M257.5 221.2l-2-.5M271.6 215.2l2.4-2.3M262.9 216.5l-2.3-.5M272.1 212.6l1.7-2.3M144.9 235.5l-2.7-1.7M174.3 240l2.2-1.1M142 232.4l-1.9-1.7M169.3 236.5l2.5-1.1M139.6 229.1l-1.9-1.7M163.7 232.8l2.2-1.1M137.4 225.9l-2-1.7M157.9 229l2-1.1M135.6 222.4l-2-1.7M151.6 224.9l2.5-1.1M134.1 219.1l-2.2-1.7M144.6 220.7l2.7-1.1M248.2 210.8l-2.3-.5M268.3 201.7l1.6-2.3M251.5 205.4l-1.7-.5M270.1 197l2.5-2.3M255.2 199.7l-2.5-.5M271.6 192.3l2-2.3M259 194l-1.8-.5M273 187.6l1.9-2.3M263.2 187.9l-2.1-.5M274 183l2-2.3M267.7 181.7l-1.9-.5M274.8 178.5l1.7-2.3M144.3 219.9l-2-1.7M170.6 223.1l2.3-1.1M141.6 216.1l-2.5-1.7M166 219.1l2.3-1.1M139.3 212.3l-1.8-1.7M160.8 214.9l2.5-1.1M137.1 208.5l-2.1-1.7M155.4 210.7l2.1-1.1M135.4 204.5l-2.1-1.7M149.6 206.3l2.1-1.1M133.9 200.7l-2.6-1.7M143.2 201.8l2.5-1.1M205.2 242.3l-2.6-1M239.1 235.3l1.9-1.8M206.9 239.1l-2.3-1M238.4 232.6l2.3-1.8M209.3 235.7l-2.2-1M237 229.9l2.1-1.8M211.9 232.1l-2.1-1M235.5 227.3l2.7-1.8M215 228.3l-1.9-1M233.3 224.5l2.1-1.8M218.7 224.4l-2.6-1M230.7 222l1.9-1.8M171.6 245.6l-2.7-1.3M202.2 244.5l2.4-1.5M170.8 243.1l-2.3-1.3M199.1 242.1l1.7-1.5M170.4 240.4l-1.7-1.3M195.4 239.5l2.6-1.5M170.2 237.6l-2.4-1.3M191.5 236.8l2.7-1.5M170.5 234.6l-2.4-1.3M187 234l2.3-1.5M171.2 231.5l-1.8-1.3M182 231.1l1.7-1.5M173.3 224.3l-1.7-1.3M199.9 223l2-1.5M172.5 220.4l-1.8-1.3M197.2 219.2l2.3-1.5M172.2 216.5l-2-1.3M193.9 215.4l1.7-1.5M172 212.5l-1.7-1.3M190.5 211.6l2.1-1.5M172.2 208.4l-2.4-1.3M186.7 207.7l2-1.5M172.9 204.3l-2.6-1.3M182.3 203.8l1.8-1.5M211.8 222.1l-2.3-.9M238.6 216.2l1.9-1.9M213.4 217.8l-1.9-.9M238.2 212.2l2.4-1.9M215.5 213.1l-1.9-.9M237.4 208.3l1.9-1.9M217.7 208.5l-2.3-.9M236.4 204.3l2.7-1.9M220.4 203.5l-2.3-.9M234.9 200.3l1.8-1.9M223.5 198.5l-2.4-.9M233 196.4l2-1.9"/>
</g>
</svg>
