<svg xmlns="http://www.w3.org/2000/svg" viewBox="0 0 900 380" width="900" height="380" role="img" aria-label="Pencil sketch of Table Mountain">
<title>Pencil sketch of Table Mountain</title>
<desc>A pencil sketch of Table Mountain from the bay: Devil's Peak on the left, the flat Table with its cliffs and a little tablecloth cloud, Lion's Head and Signal Hill on the right, stone pines, the city as tiny blocks and the water in front. Original artwork generated by tools/make-art.mjs.</desc>
<defs><filter id="tpc" x="-3%" y="-3%" width="106%" height="106%" color-interpolation-filters="sRGB">
<feTurbulence type="fractalNoise" baseFrequency="0.035" numOctaves="2" seed="13" result="w"/>
<feDisplacementMap in="SourceGraphic" in2="w" scale="1.3" xChannelSelector="R" yChannelSelector="G" result="d"/>
<feTurbulence type="fractalNoise" baseFrequency="1.3" numOctaves="2" seed="16" result="g"/>
<feColorMatrix in="g" type="matrix" values="0 0 0 0 0 0 0 0 0 0 0 0 0 0 0 2.4 0 0 0 -.3" result="ga"/>
<feComposite in="d" in2="ga" operator="in"/>
</filter><filter id="tsm" x="-10%" y="-40%" width="120%" height="180%"><feGaussianBlur stdDeviation="6"/></filter><style>.tm-s{fill:none;stroke:var(--art-pencil,#5a564e);stroke-linecap:round;stroke-linejoin:round}</style></defs>
<g opacity=".16" fill="var(--art-pencil,#5a564e)" filter="url(#tsm)"><path d="M420 80.3c.3-2.1 8-.6 12-.8 4-.1 8 .4 12-.2 4-.5 8-2.7 12-3 4-.3 8 1.3 12 1.1 4-.1 8-1.7 12-2 4-.2 8 .6 12 .4 4-.3 8-1.4 12-1.7 4-.3 8-.1 12 .1 4 .2 8 1.2 12 .9 4-.3 8-2.5 12-2.7 4-.2 8 1.6 12 1.6 4 0 8-1.5 12-1.6 4 0 8 .8 12 1.3 4 .5 8 1.5 12 1.9 4 .3 8 .2 12 .4 4 .2 8 .4 12 .8 4 .4 8 1.5 12 1.6 4 .2 8-1.1 12-.7 4 .4 8 2.4 12 3 4 .7 10-2.8 12 1.1 2 3.9 10 17.2 0 22.2-10 5-40 7.3-60 8-20 .7-40-2.3-60-4-20-1.7-41.7-3.3-60-6-18.3-2.7-40-6.4-50-10-10-3.6-10.3-9.6-10-11.7Z"/></g>
<g class="tm-s" filter="url(#tpc)">
<path d="M322.4 102.7l42.9 1.5M389.5 102.4l31.9 1M444.4 103.3l54.3-.9M514.3 103.1l53.8-.8M604.5 103.1l37.2-1.5M328.4 109.4l52.8-.2M412 109.3l33 .9M482.1 108.8l41.2 .1M540.7 108.9l42.7 .7M593.8 108.6l22.3 .9M309.5 118.1l53.7-.6M378.8 118.4l36.9 .3M450.1 117.6l38.3-.7M502.6 117.1l38.2-1.2M566.3 117.1l45.9-.6M629.6 117l44.9 .5M315.8 126.1l40.6-.1M381.7 124.8l44.5 .1M439.1 125.2l40.6 .9M517.4 126.2l52.1 1.2M584.8 125.4l46.8 1M323.2 133.8l49.6 .2M384.5 134.4l51.9 1.3M460 132.7l35.2 .5M511.8 132.7l44.1-.4M587.6 133.4l49.2-.7M317.5 142.4c-.8 5.1-2.1 19.7-4.6 30.4-2.5 10.7-8.8 28.2-10.5 33.8M317.9 142.5c-1.1 5-3.8 19.2-6.3 29.9-2.6 10.7-5.3 22.5-9.2 34.2-3.9 11.7-11.8 30-14.2 36M320 142.5l6.8 7.5M315 159.2l8.9 6.7M310 175.9l7.7 5.3M305 192.5l7.9 7.6M300 209.2l6 7M295 225.9l6.3 7.1M364.5 152.6c-.9 5-3.1 19.4-5.7 30-2.6 10.7-8.3 28.4-9.9 34.1M363.3 152.3c-.9 5-3.1 19.4-5.6 30.1-2.5 10.7-5.6 22.4-9.5 34.1-3.8 11.7-11.4 30.1-13.7 36.2M366 152.5l4.7 7.8M361 169.1l6.4 4.3M356 185.8l8.7 6.3M351 202.5l4.2 7.3M346 219.1l5.8 6M341 235.8l7.9 4.3M425.9 141c-.9 5-2.8 19.4-5.6 30.1-2.7 10.6-9 28.1-10.9 33.7M425.1 140.8c-.9 5-3.3 19.3-5.7 30-2.5 10.8-5.2 22.6-9.1 34.3-3.9 11.7-12 29.9-14.4 35.9M428 141l5.8 5.9M423 157.7l4.7 5.9M418 174.3l8.8 7.3M413 191l6.2 4.1M408 207.7l7.5 7.5M403 224.3l6.8 6.9M505.6 137.3c-1 5-3.5 19.3-6.1 30-2.6 10.7-7.9 28.4-9.5 34.1M506.7 137.6c-1.1 4.9-4.2 19.1-7 29.7-2.8 10.7-6 22.4-9.9 34-3.9 11.7-11.4 30.1-13.7 36.1M508 137.4l8.8 4.7M503 154.1l6.5 7.4M498 170.7l4.8 5.4M493 187.4l7.3 7.1M488 204.1l4.7 4.4M483 220.7l8.7 5.9M578.2 151.9c-1 5-3.1 19.4-5.8 30.1-2.8 10.6-6.7 22.1-10.7 33.8-3.9 11.7-10.9 30.3-13.1 36.3M580 151.9l8.5 6.4M575 168.6l8.1 7.3M570 185.2l6.5 7.8M565 201.9l7.2 5.9M560 218.6l4.2 4.1M555 235.2l4.1 5.7M624.3 143.7c-1.2 5-4.1 19.2-6.9 29.8-2.8 10.6-8.4 28.3-10.1 33.9M623.1 143.5c-.9 5-2.7 19.4-5.4 30.1-2.7 10.6-7 21.9-10.8 33.7-3.8 11.7-10 30.6-12 36.7M626 143.6l8.7 4.7M621 160.3l6.9 4.2M616 177l8 7M611 193.6l7 4.9M606 210.3l4.7 4.5M601 227l7.6 5.9M149.6 128.2c2.9 5.4 10.6 21.1 17.3 32.5 6.6 11.3 15 23.2 22.3 35.8 7.3 12.5 17.8 32.7 21.4 39.2M195.7 118.2c2.9 5.4 10.5 21.5 17.4 32.3 6.9 10.9 17.2 22.4 23.9 32.9 6.6 10.5 13.4 25 16 30M846 214.7l-3 7.2M851.2 217.3l-3 9.4M858.3 218.8l-3 7.9M865.2 221.2l-3 11.2M872.3 224l-3 10.7M878.2 224.8l-3 10.4M884.5 225.9l-3 9.7M891.9 227.8l-3 6.3M897.1 228.5l-3 6.9M420 80.1c2 0 8-.5 12-.5 4 0 8.1 1 12.1 .5 4-.5 8-2.8 11.9-3.2 4-.4 8 1 12 .7 4-.3 8-2.1 12-2.4 4-.4 8 .4 12 .3 4-.1 8-.7 12-.8 4-.1 8 .1 12 .2 4 .2 10 .6 12 .7M504 74.7c2 .1 7.9 .4 12 .6 4 .1 8 .9 12 .4 4.1-.5 8-3 12-3.4 4-.3 8 1 12 1.2 4 .1 8-.6 12-.4 4 .2 7.9 1 11.9 1.4 4 .5 8 1.1 12.1 1.4 4 .2 8-.1 12-.1 4 .1 8.1-.1 12.1 .2 4 .2 10 1.1 12 1.3M600 75.3c2 .2 8 .8 12 1.4 4 .6 8 1.9 12 2.2 4 .3 7.9-.7 11.9-.4 4 .4 8.1 1.9 12.1 2.4 4 .4 10 .2 12 .3" stroke-width=".7" opacity=".45"/>
<path d="M303.9 92.4l1 22.9M307.3 89.4l0 25.1M311.6 91.4l.7 41M315.2 89.6l1.2 35M316.8 91.1l1.3 36.4M320.6 91l-1 35.2M323.5 89.8l-.9 23.7M327.5 89.9l1.3 46.4M343.4 90l-.6 26.2M345.9 89.3l.6 31.4M348.8 90.6l-.6 35.5M351.7 90l1.2 45.6M354.8 90.2l.1 32.5M357.4 89.4l.1 23.1M360.4 90.3l1.2 48.8M364.3 89.6l-1 50.8M367.9 90.1l.4 25.8M369.6 88.1l-1 35.4M372.7 90.4l-.8 44.3M377.3 89.5l1.2 33.2M381 88.6l.5 43.6M383.4 89.7l0 59.6M386.5 89.4l-.5 28M388.7 89.1l.8 45.2M398.4 88.8l-1.1 38M401.5 91.2l0 49.4M404.8 89.7l.7 29.5M407.9 89.2l1.1 49.4M411.5 88.9l.2 45.6M414.3 88.4l.9 32.2M417.9 89.2l-.3 41M420.2 88.2l.7 39.6M424 88.6l1.2 49.4M427.9 89l.2 21M430.4 87.5l1 36.2M432.5 88.8l-.9 21.3M435.5 89.9l-.5 44.6M438.6 89.7l-.8 20.5M441.8 87.8l.6 28.6M445.5 89.4l-1.3 32.6M447.7 87.4l-.8 31M451.6 87.4l.6 22.3M481.8 90l.8 36.2M486.1 89.5l1.3 38.5M488.4 87.5l.6 38.5M492.9 89l0 31.9M494.2 88.1l1.2 34.7M497 87.5l.9 41.1M500.1 88.7l1 22.4M503 87.9l-1.4 32.5M506.6 89.4l-.8 38M510.3 89.6l.6 32.9M511.8 88.6l-.3 26.4M514.7 88.2l-1 51.1M516.8 88.5l.3 23.8M520.8 89.4l.3 34.6M523.1 88.1l-.6 36.8M526.5 88.6l.7 24.1M528.9 89.5l-.6 31.5M532 89l0 32.6M535.7 87.8l.9 41.2M537.9 88.9l.7 37.6M558.3 89.4l1 30.1M560.7 87l.2 30.6M563.1 88.3l.8 44.6M565.6 87.9l.7 41.3M569.2 87.1l-.9 42.2M571.3 88.6l.4 31.4M575.2 87.9l.3 44M577.2 88.6l.2 27.3M580.6 89.3l.2 46.2M584.1 88.8l.2 51.1M588.4 89.2l.1 35.9M592.1 88.4l-1.2 37.5M593.4 88.3l1.1 26M597.6 89.7l0 42M607.3 88.8l1.3 29.7M609.4 87.8l.9 38.2M611.3 87.8l.9 38.4M614.3 86.7l1.3 47.3M617.6 88l1 54.7M619.9 87.4l-.1 41M623.3 87.6l-1.1 39.6M626.9 89l1.3 33.7M652.7 88.9l1.2 45.5M657.1 87.7l.3 46.4M658.7 87.7l1 42.1M309.2 145.4c1-.2 3.9-.5 5.9-1.4 2-.8 3.9-3 6-3.7 2-.7 4.1-.3 6.1-.2 2 .1 5 .6 6 .7M381 150.7c1 .1 4 .2 6 .3 2.1 .2 4.2-.4 6.2 .4 2 .8 3.9 4.5 5.8 4.5 2-.1 4.9-4.1 5.9-4.9M435.4 141.5c1 .1 4 .4 6 .5 2 .2 4 .3 6 .4 2 .1 4 .2 6 .3 2 .1 4 .2 6 .3 2 .1 5 .2 6 .3M505.2 138.2c1 .4 4 1.3 6 2.3 2 1 4.1 3 6.1 3.7 2 .7 3.9 1.2 5.9 .5 1.9-.6 3.9-3.1 5.9-4.3 2-1.1 5.1-2 6.2-2.4M560.3 153.2c1 0 4 .1 6 .2 2 0 4 .2 6 0 2-.2 4-.9 5.9-1.3 2-.5 5-1.2 6-1.4M610 148.5c1-.4 4.1-1.8 6.2-2.7 2-.8 4-2.6 6-2.6 2 .1 3.9 2 5.9 3 2 1.1 4 2.8 6 3.5 2 .8 5.1 .8 6.1 1M336.3 139.6c-.3 2.1-.3 8.3-1.3 12.5-1.1 4.2-4 10.4-4.8 12.5M340.6 139.4c-.8 3.8-2.2 15-4.4 22.4-2.2 7.5-7.2 18.6-8.6 22.3M397.6 152.7c-.2 3.7-.4 15.1-1.2 22.7-.7 7.6-2.7 19.1-3.3 22.9M392 154.4c-.5 3-1.6 11.8-3.2 17.6-1.5 5.9-5 14.8-6.1 17.7M394.5 151.8c0 1.8 .7 7.4 .2 11.2-.4 3.7-2.6 9.4-3.1 11.3M469.2 142.4c-.6 3.6-1.4 14.4-3.3 21.6-1.8 7.2-6.3 17.9-7.6 21.5M468.3 147.1c-.5 3.7-1.5 14.6-2.6 22-1.2 7.3-3.7 18.5-4.5 22.2M469.2 144.4c-.8 5.6-2.9 22.3-5.1 33.5-2.3 11.1-7 27.9-8.4 33.5M472.4 141.4c-.2 3 .1 12.1-.8 18.1-.9 6-3.7 15-4.5 18M547.6 139.2c-.5 3.2-1.6 12.6-3 18.9-1.4 6.4-4.5 16.2-5.4 19.4M548.6 140.4c-.9 5.1-2.9 20.4-5.1 30.7-2.2 10.2-6.9 25.6-8.3 30.8M602.8 147.9c0 3.8 .4 15.1-.4 22.6-.8 7.5-3.9 18.8-4.6 22.6M598.6 148.4c.1 2.4 1.2 9.4 .8 14.1-.4 4.7-2.6 11.7-3.2 14.1M600.3 145.1c-.7 3.2-2.4 12.8-4.5 19.2-2.1 6.3-6.6 16-7.9 19.2M602 148.5c-.3 2.9-.8 11.6-1.8 17.5-.9 5.9-3.2 14.8-3.8 17.8M638.6 150.3c-.2 4.9 .2 19.4-.7 29-1 9.6-4.4 24.1-5.2 28.9M641.5 153.5c-.2 2.7 .2 10.7-.8 16-1.1 5.3-4.7 13.2-5.7 15.8M642.4 150.2c-.6 4.4-1.8 17.6-3.6 26.3-1.7 8.8-5.8 22-6.9 26.4M303.3 302l.2-1.8M295.8 305.4l-.2-2.9M294.4 299.9l.3-4M308.6 301.9l-.4-1.5M299.1 301.3l.5-2.1M285.8 301l.4-2.9M301.7 302.5l-.1-4.3M321.4 305.9l.3-1.7M294.8 301.7l.2-3.1M308.1 302.8l.3-4.5M297.4 296.6l-.3-2.1M300.2 298.6l-.2-3.3M264.7 292.9l-.3-3.1M271 299l-.2-3.4M246.9 295.7l-.3-2.1M264.3 294.4l.3-2.3M264.3 295.8l.5-2.9M268.8 292.6l.2-3M266.5 295.8l-.2-2.7M678.7 281l-.3-3.3M696.8 283.9l0-3.6M672.8 280.7l-.2-3.1M660.4 286.9l0-2.4M671.3 282.9l-.1-3.4M661.1 287.3l-.4-3.4M686 286.3l.4-4.4M677 286.9l.3-2.1M663.2 284.8l.3-3.4M671.8 285.7l-.5-3.2M682.1 284.3l-.2-3.9M419.4 294.5l-.3-3.6M423.9 293.6l.4-2.6M431.9 296.6l-.3-3.4M424.9 294.2l-.1-4.1M411 292.6l-.2-2.7M428.3 294.3l.1-2.2M421.2 293.4l.5-3.8M441 295.1l-.2-3.7M439.6 290l-.4-3.1M275.9 287.4l-.2-2.4M262.3 288.1l-.1-2.4M254.1 290.9l-.3-3.9M235.2 287.6l.1-2.5M248.4 286.7l.3-3M244.5 286.5l.3-4.4M257 288.6l-.1-1.5M272.1 289l.5-1.7M275.5 291l-.2-2.6M262.5 291.7l.3-1.7M247.4 290.1l-.3-1.8M250.1 285.9l-.3-2.7M515.9 282l-.2-3.9M507.3 282.7l0-2.6M501.3 284.1l-.1-2.7M479.1 282.5l.2-3M489.3 280.6l-.4-1.9M499 282.4l-.2-2.9M496 282.9l.4-3.6M516.6 281.1l-.1-4.2M503.2 281.8l.5-2.3M501.3 288.3l.4-1.9M335 292.1l-.2-3.5M361.9 291.2l-.1-4.3M347.7 288.4l-.1-3.2M334.3 288.3l.1-2.3M349.6 291.4l-.1-3.7M353.5 288.4l.2-4.4M350 290.3l-.3-1.8M330.2 289.1l.3-3.8M343.6 293.7l.5-4M350.5 292.4l.3-2.9M340.2 288.4l-.2-3M335.7 290.4l-.4-3.1M338.2 291.1l-.2-2.6M338.4 289.4l0-3M347.6 292.4l-.1-4M396.6 295.6l.3-3.7M407.9 295l0-3.6M398.4 298.5l-.1-3.8M396.2 298.3l-.4-3.3M400.8 292.5l-.3-4.3M391.8 294.2l0-2.1M389.2 295.1l.1-2.1M389.3 296.9l.4-3.3M395.1 291.6l.5-3.4M395.2 295.7l.3-3.4M398.3 298.7l.2-3.5M411.8 298.1l-.2-2.9M399.2 293.9l.2-2.1M414.5 295.9l.2-3M415.8 295.2l0-3.4M380.8 292.2l.3-4.1M375.3 289.7l-.4-2.9M375.7 293.4l-.4-3.7M387.8 290.2l-.4-3M376.2 292.2l-.1-2.2M381 290l.4-2.2M380.2 288.9l-.1-3.6M275.9 288.5l.5-2.7M264.4 283.9l.2-3.7M267.5 278.9l0-3.8M255.4 283.3l.2-2.7M245.1 285l-.2-2.6M254.9 281.9l-.1-3.1M245.9 282l.1-4.5M253.3 279.8l.4-4M273.4 282.7l-.5-3.4M259.1 278.6l.1-3.9M259.8 282.2l-.1-4.1M247.6 280.4l-.1-3.3M251.7 281l.2-3.6M255.5 282.5l-.2-3.5M257.1 280.4l-.5-1.8M403.4 294.5l.1-3.2M402.9 298.3l-.3-3M383.1 295.1l.3-4M389.4 299.1l-.1-2.5M385.1 293.7l-.1-2.6M403.1 300.7l-.2-2.6M377.6 302.9l.1-3.9M389.4 301.4l.4-3.5M401.5 300l-.5-2.5M389 294.8l.1-4.4M537.2 298.2l-.2-2.5M542.7 292.4l-.4-3.2M519 297.7l-.4-4.2M544.3 290.1l.3-2.4M533.8 296.5l.2-2.4M533 294.8l-.2-2.1M525.9 290.9l.2-2.3M532.9 294.9l-.3-3.6M537.2 292.9l0-2.1M528.5 291.4l-.3-3.8M538.4 292.2l-.4-2.3M537.1 297l-.2-2.7M533.3 295.1l-.2-1.6M519.5 296.3l.4-4.2M513.3 294.9l.1-3.5M542.7 296.6l-.2-2.9M289.8 285.9l-.3-4.1M277.3 282.4l-.4-2.5M296.6 285.3l.1-2.6M287.2 290l0-1.8M290.2 289.5l0-4.1M293.1 289l.1-2.8M289.7 287.7l-.5-4.3M286.2 288.1l.3-3.8M280.5 288.2l.5-3.7M275.3 289l-.4-1.9M293.9 287.9l.3-3.6M504.6 289.7l.5-3.2M489.6 291l.2-4.3M483.2 290.8l.5-2.1M509.2 295.6l.1-4.5M495 292.3l-.3-3M489.5 289.7l-.3-2M498.1 291.3l-.4-3.1M489.8 289.6l-.1-3.6M511.2 292.2l-.3-3.3M511 290.8l-.1-2.7M488.6 290.6l-.2-2.9M493.4 292.9l.5-3.7M494 291.7l.1-3M251.8 287.4l.4-2.6M249.6 287.7l.2-2.2M240 291.6l.1-4.5M245.5 290l.3-4M255.3 291.6l-.4-2M250.8 293.2l-.4-4.3M264.7 293.5l.4-2.5M281.8 293.4l.3-3M253.1 293.8l.3-4.4M249.3 293.5l-.1-3.4M262.9 291.5l-.4-3.1M251.1 295.3l.1-4M370.8 303.4l.1-3M355.4 296.1l.2-4.1M365.3 299.8l0-2.5M364.5 302l.4-2M360.3 298.3l-.4-4.1M361.7 307.8l.4-4M349.3 305l.4-3M359.9 301.1l-.2-2.9M357.9 306.9l-.4-2.4M351.7 304.4l-.2-4.1M362 304.3l-.4-3.8M370.5 303.8l-.3-2.9M233.2 155.7l-2.7 6.9M230.1 157.9l-4.8 14.7M228.7 155.7l-7 19.9M226.9 152l-5.7 15.3M224.2 151.6l-.8 3.5M239.6 134.3l-2.4 10.4M237.6 131.3l-2.4 14.6M233.9 135.2l-4 21.1M232.1 131l-3.4 16M229.6 133.2l-2.8 18.2M226.8 132l-1.6 13.8M224.6 132.5l-1.2 9.1M273.7 154.1l-1.2 2.3M271.2 152.4l-3.9 8.9M267.9 154.2l-5.1 11.8M264.7 153l-5.1 9M262.1 151.4l-3.5 5.9M259 150.7l-1.8 2.8M248.6 141.7l-2.3 6.9M245.7 142.7l-6.6 17.2M242.2 143.2l-8.9 23.6M241.4 139.2l-10.2 23.8M239.3 136.4l-7 16.8M235.8 138.6l-3.7 10.8M72.4 231.5l2.4 4.8M68.4 232l2.5 5.8M66.1 235l3.4 6.6M139.1 159.3l2.6 5.1M136.3 162.4l7.1 16.9M133.1 161.4l4.8 12.4M130.1 163.6l3.2 6.9M76.5 213.5l1.2 4.3M73.1 216.1l3.7 9.6M69.5 216.8l4.2 11M65.4 217.2l2.2 4M75.4 225.9l2.3 4.6M72.2 227.2l1.5 6.3M69.6 229.6l3.9 9.3M66.7 229.2l2.9 7M64.2 229.3l2 6.1M128.4 170.4l4.8 8.7M125.5 170.5l8 12.5M122.6 172.8l8.6 14.3M120.1 173.3l5.6 10.3M119.1 178l2.6 4.1M89.7 224.5l2.8 6.7M86.3 225.3l5.3 11.6M82.8 223.8l5.7 12.6M81.4 228l5 11.1M78.3 227.6l3 8.1M75.4 229.1l2.6 5.8M127.1 177l2.4 5.4M123.6 179.2l4.5 10.4M120.5 179.4l2.8 6.1M116.9 180l.5 3.5M165.7 124.8l4.9 7.3M162.9 127.1l7.5 11.6M159.8 128.4l4.1 6.5M156.2 127.7l1.5 3.1M62.3 245.8l5.2 10.6M58.3 246.6l7.2 16.3M56.9 249.3l7.8 17.7M55.4 252l7.7 17.8M51.5 252.2l2.6 5.4M141.8 149l3.2 6.9M137.9 148.8l4 6.7M135.9 150.8l3.9 5.9M820.4 197.2l-2.7 7.7M817.9 195.5l-4.1 11.2M815.9 192.8l-3.2 10.6M812.2 194.4l-3 10.8M809.9 194.2l-2.4 7.5M808.5 192.1l-1 4.8M804.9 191.8l-3.2 8.4M802.4 190.2l-1.6 5.9M798.2 190.5l-1.5 4.5M755.1 227.2l-1.7 6.8M753.9 223.8l-3.1 11.3M751.1 221.9l-4.3 13.9M749 221.3l-4.1 13.5M745.8 222.1l-3.4 10M841.2 220.2l-.7 4.9M838.5 216.6l-2.5 10.8M835.3 218.7l-2.3 7.1M833.7 215.6l-2.3 10.3M830.7 215.6l-3.4 9M767.6 193.3l-2.5 7M765.1 192.8l-3.1 8.1M762.6 189.7l-2.7 5.9M797.4 180.5l-2.6 4.4M793.7 181.8l-6 15.7M791 178l-4.8 13.5M788 175.1l-2.7 4.9M833.4 207.9l-3.3 6.1M830.1 207l-4.8 11.3M826.7 208.8l-3.1 8.3M762.6 207.2l-1.9 5.6M760.3 206.7l-3.5 10.5M757.3 208.6l-3.5 10.4M754.5 204.9l-1.9 7.1M775.5 185.6l-1.3 2.9M772.9 183.6l-2.6 5.2M768.7 183.7l-4.9 10.1M766 181.3l-3.2 5.9M763.7 179.6l-2.6 4.6M700.7 176.8l2 6.8M698.1 179l3.8 9.7M695.7 180.2l3.3 11.4M690.5 177.9l1 5.2M734.3 185.6l3.5 8.4M730.2 185.9l5.7 14.5M726.8 187.2l3.9 12.2M709 179.7l2.4 4.5M705.8 181.4l2.3 8.7M703.5 183.4l2.9 9.9M700.8 183.4l3.1 9.8M698.4 183.7l1.4 3.8M717.8 174.5l3.3 7.9M714.4 175.8l3.4 9.9M711.8 177.7l3.5 9.9M708.7 177l2.9 8" stroke-width=".7" opacity=".55"/>
<path d="M.1 265.8c.9-.5 3.9-1.5 5.9-2.8 2-1.3 3.9-3.3 5.8-5 2-1.6 4-3.6 6-5 2-1.5 4-2 5.9-3.5 2-1.5 4-3.8 6-5.4 2-1.7 4-2.6 6.1-4.4 2.1-1.8 4.3-4.7 6.5-6.6 2.2-1.9 4.4-3 6.7-4.7 2.2-1.8 4.4-3.9 6.6-5.7 2.1-1.8 4.1-3.2 6.2-5.1 2.1-1.9 4.1-4.8 6.2-6.6 2.1-1.8 4.4-2.4 6.5-4.2 2.1-1.8 4.3-4.4 6.1-6.6 1.9-2.2 3.5-4.4 5.2-6.5 1.8-2.1 3.6-4 5.5-6.1 2-2.1 4.2-4.3 6.2-6.5 2.1-2.3 4.1-4.6 6.2-6.9 2.1-2.3 4.4-4.3 6.5-6.9 2.1-2.6 4-5.9 6-8.6 2-2.7 3.9-5.3 5.8-7.8 1.9-2.5 3.8-4.5 5.6-7 1.9-2.5 3.7-5.4 5.6-8 2-2.5 4-4.9 6.2-7.1 2.1-2.3 4.5-3.8 6.7-6.2 2.2-2.3 4.2-4.9 6.4-7.9 2.2-3 4.6-7.1 6.7-10 2.2-3 4-5.1 6.1-7.5 2.2-2.4 4.2-6.2 6.6-6.7 2.5-.5 5.9 2.3 8.1 3.6 2.2 1.4 3.5 2.9 5.2 4.4 1.7 1.5 3.4 3.1 5.2 4.6 1.8 1.6 3.8 3.8 5.7 5 1.9 1.2 3.9 1.5 5.8 2.3 1.9 .9 3.7 1.8 5.5 2.7 1.8 .9 3.6 1.6 5.4 2.5 1.9 .9 3.7 1.9 5.5 2.7 1.8 .9 4.5 2.1 5.4 2.5M212.9 115.5c.9 .5 3.7 1.8 5.5 2.6 1.8 .8 3.6 1.7 5.4 2.5 1.8 .7 3.5 1.6 5.3 2.2 1.8 .6 3.6 .8 5.5 1.4 1.8 .6 3.5 2 5.4 2.1 1.9 .2 4.2-.8 6.2-1.1 2-.4 3.9-.7 5.9-1 2.1-.2 4.2 .4 6.2-.5 2-1 4-3.5 6-5.1 2-1.6 4-3 6-4.4 2-1.5 4.2-3.1 6-4.5 1.9-1.5 3.6-2.8 5.3-4.3 1.8-1.5 3.3-3.4 5-4.7 1.7-1.3 3.4-2.2 5.1-3.3 1.7-1 3.4-1.9 5.1-3 1.6-1 3.2-2.5 5.1-3.3 1.9-.8 4-1.2 6-1.4 2.1-.1 4 .3 6 .4 2 .1 4.1 .3 6.1 .2 1.9 0 3.9-.1 5.9-.3 2-.2 4-.6 5.9-.9 2-.3 4-.8 6-.9 2-.2 4-.1 6-.1 2 .1 3.9 .3 5.9 .4 2 .2 4 .5 6 .5 2 0 4-.5 6-.5 2-.1 3.9 .2 5.9 .4 2 .1 4 .4 6 .5 2 .1 4 .2 6 .2 2 0 4-.2 6-.2 1.9 .1 3.8 .3 5.8 .4 2 0 4 .2 6 0 2-.1 4-.7 6-1 2-.2 4-.3 6-.3 2 0 5 .4 6 .4M403.4 89.9c1-.1 4-.5 6-.7 2-.1 4-.3 6-.3 2 0 4 .3 6 .4 2 0 4-.2 5.9-.3 2 0 4 0 6-.2 1.9-.1 3.9-.4 5.9-.5 2-.2 4-.3 6-.4 2-.1 4-.3 6-.3 2 0 3.9 .2 5.9 .4 2 .1 4 .3 6 .3 2 .1 4-.1 6-.1 2 .1 3.9 .4 5.9 .4 2 0 4-.4 6-.5 2-.1 4 .1 6 0 2-.1 3.9-.4 5.9-.5 2 0 4 .1 6 .2 2 .1 4 .2 5.9 .4 2 .3 4 .8 6 .9 2 .2 4 .2 6 .1 2-.1 4-.5 6-.8 2-.2 3.9-.4 5.9-.6 2-.2 4-.6 6-.5 2 0 4 .8 6 .9 2 .2 4-.1 5.9-.1 2-.1 4-.1 6 0 2 .1 4 .6 6 .5 2 0 4-.6 6-.7 2-.1 3.9 .1 5.8 .2 2 0 4 .2 6 .3 2 .2 4 .8 6 .7 2 0 4-.8 6-1.1 2-.3 3.9-.5 5.9-.7 2-.1 4-.3 6-.2 2 .1 4 .7 6 .8 2 .1 4-.3 6-.4 2-.1 3.9-.2 5.9-.2 2 .1 4 .5 6 .6 2 0 4-.1 6-.2 2 0 3.9-.2 5.9-.2 2-.1 4-.1 6-.1 2 0 4 .2 6 .2 2 0 4-.2 5.9-.1 2 .1 5 .6 6 .7M648.1 88.3c1-.1 4-.3 5.9-.2 2 0 3.8-1.9 5.8 .5 2 2.3 4 7.1 6.2 13.7 2.2 6.6 4.8 18.9 7.1 25.9 2.2 7 4.6 10.7 6.4 16.2 1.8 5.5 2.5 11.7 4.4 16.8 1.8 5 4.6 8.8 6.8 13.4 2.2 4.7 4.5 10.9 6.4 14.5 2 3.6 3.6 4.7 5.4 7.3 1.7 2.7 3.4 6.2 5.3 8.8 1.9 2.6 3.8 4.9 6 6.8 2.3 1.9 5 2.9 7.4 4.5 2.3 1.6 4.5 5.4 6.7 5.1 2.3-.3 4.3-4.4 6.7-6.7 2.4-2.4 5.5-4 7.8-7.5 2.2-3.5 3.6-9.4 5.6-13.6 1.9-4.1 4.1-7.7 5.9-11.3 1.8-3.6 3.5-6.7 5-10.3 1.5-3.6 2.3-7.3 4.2-11.1 1.9-3.9 4.6-8.7 7.1-12 2.5-3.3 5.8-6.5 7.9-7.9 2.2-1.4 3.2-.6 4.9-.4 1.7 .2 2.9-.6 5.1 1.5 2.2 2.1 5.7 8 8.1 11.3 2.4 3.3 4.2 5.9 6.3 8.8 2.1 2.8 4.3 5.8 6.3 8.4 1.9 2.6 3.6 4.7 5.5 7.2 1.9 2.5 3.9 4.9 5.9 7.7 1.9 2.8 4 6.5 5.9 8.8 1.8 2.4 3.5 3.6 5.3 5.4 1.7 1.9 3.3 3.9 5.1 5.6 1.8 1.6 3.6 2.9 5.5 4.5 1.9 1.6 3.8 4.1 5.8 5.1 2 1.1 4.2 .7 6.2 1.1 2 .5 3.9 .9 5.9 1.6 1.9 .7 3.8 1.7 5.8 2.6 2 .8 4.2 1.9 6.2 2.3 1.9 .4 3.8 0 5.7 0 2 0 3.9-.3 5.8 .1 1.9 .4 3.7 1.5 5.6 2.1 1.8 .5 3.6 .8 5.4 1.3 1.8 .4 4.6 1.1 5.5 1.4M329.9 89l-.4 44.7M333.5 89.1l1 48.4M336.3 90.2l-.4 52.3M339.3 88.9l-.6 52.8M341.4 90.1l.4 25.2M390.9 88.3l.3 59.2M393.1 89.4l-.3 30.3M394.4 90.1l-.7 53M455 89.7l.1 28.7M479.7 88.1l-.1 55.5M540.1 87.3l.9 40M543.8 89.2l-.9 48.4M546.2 89l-.2 52.8M548.2 88l1.1 51.8M552.5 88.9l.5 56.2M554.3 88.8l-1 34.8M599.2 88.5l1 44.5M602.9 87.6l1.3 45.9M630.8 88l-1.1 48.3M633.8 87.7l-.5 60.1M647.5 88l.2 69.5M649.2 87.6l-1.2 65.5M336.4 142.3c-.6 3.5-1.9 14-3.4 21.1-1.5 7-4.7 17.8-5.7 21.4M333.6 139.2c-.1 2.6 .3 10.6-.7 15.8-1 5.3-4.6 13-5.5 15.6M465.9 145.9c-.7 4.2-2.3 16.6-4.5 25-2.2 8.3-7 20.8-8.5 25M472.4 146.6c0 3.6 .4 14.4-.3 21.6-.8 7.2-3.7 18-4.4 21.6M546.1 143.4c-.1 2.6 .1 10.3-.7 15.5-.9 5.1-3.7 12.8-4.4 15.4M545.9 143.1c0 2.3 .6 9 0 13.5-.6 4.5-3 11.2-3.6 13.5M642.6 153c-.2 4-.3 16-1.3 24-1 8-3.8 20-4.6 23.9M641.1 149.5c-.6 2.9-1.9 11.8-3.7 17.7-1.7 5.9-5.9 14.8-7.1 17.8M214.1 152.1l-1.2 4.5M211.1 152.6l-1.5 10M208 151.4l-1.8 11.9M206.8 148.2l-3.3 11.7M204.7 148.1l-2.6 11.5M201.6 149.1l-2.3 12.3M199.4 150l-1.7 6.5M196.5 148.2l-.9 3.3M201.2 146.5l-2.5 6.5M199.7 141.9l-4.2 9.3M197 143.5l-7.2 18.6M195 141.4l-10 22.2M190.9 142.5l-5.8 12M190.3 138.8l-3.1 8.4M187.7 140.2l-3.3 5.7M216.6 129.5l-2.4 4.5M214.3 129.5l-3.5 10.7M211.6 128.1l-3.6 9.8M207.3 130.6l-3.7 10.8M204.6 128.1l-2.1 7.5M203.4 125.8l-4 9.8M200 125.9l-1.5 4M194.1 108.6l-3.3 6.1M190 110.9l-6.5 14.9M188.6 108.4l-5.7 9.5M185.6 108.2l-8.1 16.5M184.7 104.6l-4.6 8.8M182.2 102.8l-1.5 3.8M185.6 125.7l-5.1 10.9M183.7 125.4l-8.7 18.5M180.7 126.3l-6.3 14.7M180.1 121.3l-6.1 12.1M178.1 121.2l-3 4.8M772 146.8l-.3 9.8M773.9 144.9l.1 8.9M776.2 142.6l.3 9.5M778.1 140.8l.3 13.6M779.5 140.7l.5 13.1M781.6 140.6l-.5 15.1M783.2 140.6l-.2 9.5M784.6 141.1l.5 11.1M764.1 157.8c1.3 .7 4.2 3.7 7.9 4.3 3.6 .6 11.7-.7 14-.8M764 157.9c1.4 .7 4.4 3.4 8 3.9 3.7 .6 9.4 .1 14-.6 4.7-.6 11.7-2.7 14-3.3" stroke-width=".9" opacity=".75"/>
<path d="M.1 264.7c1.1-.4 4.1-1.3 6.2-2.5 2-1.2 4.1-3 6.1-4.6 2-1.7 4-3.6 6-5 2-1.4 4-2 6-3.5 1.9-1.5 3.9-3.9 5.8-5.6 2-1.7 3.8-2.9 5.8-4.8 2.1-1.9 4.3-4.6 6.4-6.6 2.2-1.9 4.3-3.2 6.4-5.1 2.2-1.8 4.3-4.1 6.4-5.9 2.2-1.8 4.4-2.9 6.5-4.8 2.1-1.9 4.2-4.7 6.3-6.5 2.1-1.8 4.2-2.6 6.3-4.4 2-1.9 4-4.6 6-6.7 2-2.1 4-3.8 6-5.7 2-1.8 4.1-3.5 6.1-5.5 2-2.1 4.1-4.5 6.1-6.8 2-2.3 4-4.7 5.9-7.1 2-2.4 4.1-4.6 6-7.3 1.9-2.8 3.7-6.2 5.6-9 1.9-2.8 3.9-5.3 5.8-7.8 1.9-2.4 3.7-4.6 5.7-6.9 2-2.4 4.2-5 6.3-7.4 2.2-2.3 4.2-4.7 6.4-6.9 2.2-2.1 4.5-3.8 6.7-6.1 2.2-2.3 5.6-6.6 6.7-7.9M140 128.2c1.2-1 4.5-3.8 6.8-6.1 2.2-2.3 4.5-4.9 6.8-7.9 2.2-2.9 4.5-7.1 6.6-10 2.1-2.9 4-5 6-7.5 2-2.4 3.5-6.5 5.8-7.1 2.3-.6 5.8 2 8 3.3 2.3 1.3 3.6 2.8 5.4 4.2 1.7 1.5 3.5 2.9 5.3 4.6 1.7 1.6 3.4 4 5.2 5.5 1.7 1.4 3.6 2.2 5.4 3.2 1.8 1 3.6 2 5.5 2.8 1.9 .8 3.8 1.3 5.7 2 1.9 .7 3.8 1.4 5.7 2.2 1.8 .8 3.6 1.7 5.4 2.4 1.8 .8 3.6 1.7 5.4 2.3 1.7 .7 3.5 1 5.4 1.6 1.8 .5 3.7 1.8 5.6 1.7 1.9-.1 3.9-1.8 5.9-2.4 2-.7 4-1.4 6-1.7 2-.2 3.9 .7 5.9-.1 2-.7 4.1-2.9 6.1-4.3 2-1.5 4-2.9 6-4.4 2-1.5 5-3.8 6-4.6M263.8 116.7c1-.7 4-2.9 6-4.3 2-1.5 4.1-3.1 6-4.6 1.9-1.4 3.6-2.7 5.4-4.1 1.8-1.4 3.6-3.1 5.4-4.2 1.8-1.2 3.7-1.8 5.5-2.7 1.7-1 3.4-1.9 5.1-2.9 1.6-1.1 3.1-2.7 4.9-3.5 1.8-.8 3.9-1.1 5.9-1.4 2-.2 4 .1 5.9 .1 2-.1 4-.2 6-.3 2-.1 4-.3 6-.3 2-.1 4 0 5.9-.1 2-.1 4-.3 6-.5 2-.1 4-.3 6-.4 2-.1 3.9-.1 5.9-.1 2 .1 4 .5 6 .6 2 0 4-.3 6-.3 2-.1 3.9 0 5.9-.1 2 0 4-.1 6-.2 2 0 4-.1 6-.2 1.9-.1 3.9-.3 5.9-.2 2 .1 4 .4 6 .7 2 .2 4 .8 5.9 .9 2 .2 4 .1 6 .1 2-.1 4-.1 6-.1 2-.1 4-.2 6-.4 2-.1 4-.2 5.9-.4 2-.2 5-.8 6-.9M415.4 87.8c1 0 4 .1 6 0 1.9-.1 3.9-.5 5.9-.6 2 0 4 .1 6 .1 1.9 .1 3.9 .1 5.9 .1 2 0 4 0 6-.2 2-.1 4-.5 6-.6 2-.1 3.9 .1 5.9 .2 2 .1 4 .2 6 .2 2 0 4-.2 6-.2 2 .1 3.9 .6 5.9 .6 2 .1 4-.1 6-.1 2 0 4 .2 6 .1 2-.1 4-.7 5.9-.8 2-.2 4-.3 6-.3 2-.1 4-.3 6-.2 2 .1 3.9 .6 5.9 .8 2 .3 4 .7 6 .8 2 .1 4 .2 6 .1 2-.1 4-.3 6-.6 1.9-.3 3.9-.9 5.9-1 2-.1 5 .5 6 .6M528.8 87.5c1-.1 3.9-.7 5.9-.8 2 0 4 .5 6 .5 1.9-.1 3.9-.4 5.9-.5 2-.1 4-.2 6-.3 2 0 4 .1 6 0 2-.1 3.9-.7 5.9-.8 2-.1 4 .1 6 .2 2 .2 4 .3 6 .6 2 .2 3.9 .8 5.9 .9 2 .1 4-.3 6-.4 2-.1 4-.1 5.9-.3 2-.1 4-.5 6-.5 2 0 4 .4 6 .4 2 0 4-.4 6-.5 2-.1 3.9-.2 5.9-.1 2 0 4 .5 6 .6 2 .1 4-.1 6-.1 2 0 3.9 0 5.9 .1 2 0 4 .1 6 .2 2 .1 4 .3 6 .3 2 0 3.9-.4 5.9-.4 2 0 4.1-1.9 6.1 .5 2 2.4 4.9 11.7 5.8 14M654.1 85.9c1.1 .2 4.4-1.7 6.4 .9 2 2.5 3.1 7.7 5.4 14.3 2.2 6.7 6.2 18.5 8.3 25.5 2.1 7.1 2.8 11.3 4.4 16.9 1.5 5.6 3 11.6 5.1 16.5 2.1 5 4.8 8.8 7.3 13.3 2.4 4.5 5.4 10.3 7.5 13.8 2.1 3.6 3.4 4.7 5.1 7.4 1.7 2.7 3.4 6.1 5.1 8.8 1.7 2.7 3.1 5.4 5.1 7.5 2.1 2 4.8 3.1 7.2 4.8 2.3 1.6 4.7 5.5 7 5.3 2.3-.3 4.6-4.5 6.9-6.9 2.3-2.5 4.8-4.5 6.9-8.1 2.1-3.6 3.6-9.4 5.6-13.6 1.9-4.1 4.2-7.6 6.1-11.2 1.9-3.6 3.4-6.7 5.1-10.2 1.7-3.5 3.3-6.9 5.3-10.7 1.9-3.8 4.1-8.8 6.5-12.2 2.3-3.4 5.5-6.8 7.6-8.2 2.1-1.4 3.3-.4 5-.2 1.7 .2 2.9-.7 5.2 1.4 2.2 2.1 5.9 7.8 8.3 11.2 2.3 3.4 4 6.1 5.9 9.1 1.9 3 3.7 6.2 5.6 8.9 1.9 2.7 3.8 4.6 5.8 7 2 2.4 4 4.8 6 7.6 2 2.7 4.1 6.4 5.9 8.8 1.9 2.4 3.6 3.7 5.4 5.4 1.8 1.8 3.6 3.5 5.5 5.1 1.8 1.6 3.7 2.8 5.6 4.5 1.9 1.6 3.7 4.2 5.7 5.3 1.9 1 4.1 .6 6.1 1 2 .3 4.1 .5 6.1 1 2 .6 4 1.6 6 2.4 1.9 .9 3.9 2.3 5.8 2.9 1.9 .7 3.8 .8 5.6 1.1 1.9 .2 3.7 .2 5.6 .5 1.9 .3 3.8 1.1 5.7 1.5 1.9 .3 3.8 .2 5.7 .4 1.8 .2 4.6 .8 5.6 .9M459.1 89.4l-.3 49.9M460.3 92.4l.7 42.4M461.4 88.8l-1 53.8M462.6 91.8l-.1 45.8M465 88.7l0 51.8M465.6 91.7l.7 44M468.3 89.9l-1.2 54.5M468.9 92.9l.7 46.3M470.8 88.1l.4 53.9M472.1 91.1l-.5 45.8M474 89.7l-1.1 52.5M475.3 92.7l.3 44.6M477.6 88.9l.6 54.2M478.3 91.9l-.5 46.1M637.2 88.1l-.1 59.8M638.4 91.1l-.2 50.8M641.2 88.3l1 57.3M641.9 91.3l.5 48.7M644.6 89.2l0 63.4M645.4 92.2l.2 53.9M786.3 141.6l.6 9.6M788 142.2l.2 16.5M789.8 144.8l.2 8.6M791.8 147.6l.6 9.1M793.2 149.6l-.2 11.6M795.3 152.5l.3 13.1M797.2 155.3l-.2 8.2M799.5 158.8l-.3 8.6" stroke-width="1.35" opacity=".92"/>
<path d="M471.2 85.3c.5 1.7 2.7 6.7 3.1 10.2 .3 3.4-1.1 8.8-1.3 10.5M490.4 84.7c.6 1.6 3.2 6.1 3.4 10 .2 3.8-1.8 10.8-2.2 13M525 85.1c.5 1.7 2.9 6.7 3.2 10 .2 3.4-1.4 8.5-1.6 10.2M545.5 84.4c.6 1.7 3.4 5.8 3.5 10.2 .1 4.4-2.4 13.5-2.9 16.2M577.6 84.2c.7 1.7 3.8 6.1 3.9 10.2 .2 4.2-2.3 12.3-2.8 14.7M605.4 84.3c.6 1.7 3.1 6.6 3.4 10.3 .3 3.8-1.3 10.2-1.6 12.3M629.1 84.2c.4 1.7 2.7 5.4 2.9 10.2 .2 4.8-1.4 15.5-1.7 18.6" stroke-width=".7" opacity=".4"/>
<path d="M212.4 313v-3.9h3.7v3.9M224.1 314v-4.3h6.3v4.3M238.6 315v-3.7h4.4v3.7M246.4 312.8v-5.5h7.5v5.5M252.3 313.2v-2.9h3.4v2.9M260.1 314.2v-2.9h6.7v2.9M267.3 313.6v-3.8h3.8v3.8M273.3 314.1v-5.9h6.7v5.9M278.9 314.8v-5.9h6.5v5.9M284.2 314v-3.4h5.9v3.4M288.2 313.6v-3.6h5.3v3.6M293.7 314.1v-2.8h7.5v2.8M301 314v-3.9h7.2v3.9M308.4 313.5v-3.8h7.4v3.8M315.6 314.4v-3.3h5.6v3.3M322.2 313.7v-5.7h7.4v5.7M325.9 314.3v-5.3h5.6v5.3M331.9 314.6v-5.8h3.4v5.8M339.6 313.3v-3.8h6.7v3.8M343.2 315.2v-5.2h3.2v5.2M350.2 313.7v-4.7h6.4v4.7M356.6 315v-4.1h5.9v4.1M361.5 313.3v-2.9h5.4v2.9M366.8 314v-3.8h4v3.8M371.6 313.8v-11.3h3.5v11.3M375.6 313.9v-12.8h5v12.8M380.7 314.4v-3.1h6v3.1M386.2 312.9v-2.7h4.1v2.7M390.6 315.1v-16.3h5.8v16.3M397.9 313.1v-4.3h3.4v4.3M403.6 314.1v-6h3.3v6M407.5 314.4v-4.6h5.2v4.6M412.8 314.6v-2.9h5.7v2.9M419.2 314.6v-3.6h4.9v3.6M425.7 314.5v-22.1h5.1v22.1M429.9 315.1v-18.7h4.5v18.7M436.9 313.2v-5.1h7.3v5.1M442.8 313v-19.9h3.6v19.9M449.1 313v-4.4h5.5v4.4M456.3 314.1v-4.4h7.1v4.4M460 313.6v-3.1h4.1v3.1M464.6 314.5v-6.4h7.2v6.4M469.2 314.3v-4.1h5.8v4.1M476.4 314.2v-3.7h5.8v3.7M484.4 313.8v-25.2h4.9v25.2M488 313.1v-6.2h6v6.2M492.1 313.4v-4.5h3.8v4.5M499.5 313.8v-23.3h4.2v23.3M505.4 313v-5h7.5v5M512.6 313.2v-17.8h3.6v17.8M519.4 313.1v-3.9h3.5v3.9M526.3 314.9v-18.9h5.6v18.9M529.9 314.3v-6.5h3v6.5M537.3 314v-12.7h4.4v12.7M544.5 314.1v-4.7h6.3v4.7M552.3 314.2v-3.3h3.4v3.3M559.2 313.2v-6.3h6.9v6.3M567.1 313.4v-2.7h6.5v2.7M574.2 315v-2.6h8v2.6M580 314.6v-5.5h5.7v5.5M587.6 314.5v-4.2h3.3v4.2M594.3 314.5v-4.8h3.7v4.8M600.9 313.3v-5.8h7.8v5.8M607.5 313.7v-3h6.3v3M613.4 315v-4.4h5.3v4.4M619.9 313.9v-3.4h7.1v3.4M624.2 313.6v-5.2h6.5v5.2M630.6 312.9v-3.1h4.5v3.1M638.4 315.1v-6.1h4.9v6.1M642.7 313.2v-4.5h4.5v4.5M650.2 312.9v-2.9h7v2.9M655.3 313.3v-5.5h7.5v5.5M658.8 314.1v-5.7h3.7v5.7M663.1 314.3v-4h5.1v4M667.3 314.7v-5.7h3.2v5.7M672.8 313.6v-2.5h4.9v2.5M677.8 314.6v-5.6h5v5.6M690.2 313.4v-3.6h7.4v3.6M705.2 314v-4.4h3.2v4.4M719.8 314v-2.6h3.7v2.6" stroke-width=".7" opacity=".7"/>
<path d="M215.1 310.1v2.9M242.1 312.2v2.7M254.7 311.3v1.9M265.7 312.3v1.9M270.2 310.7v2.8M292.5 311v2.6M300.2 312.3v1.8M314.8 310.6v2.8M320.2 312.1v2.3M328.5 309v4.7M330.5 310v4.3M334.4 309.8v4.8M345.4 311v4.2M361.5 311.9v3.1M374.1 303.5v10.3M372.6 305.5h1.5M372.6 308.1h1.5M372.6 310.7h1.5M376.6 304.1h3M376.6 306.7h3M376.6 309.3h3M376.6 311.9h3M385.8 312.3v2.1M389.3 311.2v1.7M395.4 299.8v15.3M391.6 301.8h3.8M391.6 304.4h3.8M391.6 307h3.8M391.6 309.6h3.8M391.6 312.2h3.8M417.6 312.7v1.9M429.8 293.5v21.1M426.7 295.5h3.1M426.7 298.1h3.1M426.7 300.7h3.1M426.7 303.3h3.1M426.7 305.9h3.1M426.7 308.5h3.1M426.7 311.1h3.1M430.9 299.4h2.5M430.9 302h2.5M430.9 304.6h2.5M430.9 307.2h2.5M430.9 309.8h2.5M430.9 312.4h2.5M443.2 309.2v4.1M445.4 294.1v18.9M443.8 296.1h1.6M443.8 298.7h1.6M443.8 301.3h1.6M443.8 303.9h1.6M443.8 306.5h1.6M443.8 309.1h1.6M462.4 310.7v3.4M470.8 309.1v5.4M474 311.2v3.1M481.2 311.5v2.7M485.4 291.5h2.9M485.4 294.1h2.9M485.4 296.7h2.9M485.4 299.3h2.9M485.4 301.9h2.9M485.4 304.5h2.9M485.4 307.1h2.9M485.4 309.7h2.9M493 307.9v5.2M495 309.9v3.5M502.7 291.5v22.3M500.5 293.5h2.2M500.5 296.1h2.2M500.5 298.7h2.2M500.5 301.3h2.2M500.5 303.9h2.2M500.5 306.5h2.2M500.5 309.1h2.2M500.5 311.7h2.2M511.9 309v4M513.6 298.4h1.6M513.6 301h1.6M513.6 303.6h1.6M513.6 306.2h1.6M513.6 308.8h1.6M527.3 299h3.6M527.3 301.6h3.6M527.3 304.2h3.6M527.3 306.8h3.6M527.3 309.4h3.6M527.3 312h3.6M531.9 308.9v5.5M538.3 304.4h2.4M538.3 307h2.4M538.3 309.6h2.4M549.8 310.4v3.7M554.6 311.8v2.3M589.9 311.2v3.2M607.6 308.4v4.8M612.8 311.7v2M626 311.6v2.4M629.7 309.4v4.2M634.1 310.9v2.1M646.2 309.7v3.5M656.2 310.9v1.9M661.8 308.8v4.5M676.7 312.1v1.5M681.8 310.1v4.6M696.6 310.8v2.6" stroke-width=".6" opacity=".55"/>
<path d="M160 317.6c23.3 .3 86.7 1.9 140 2 53.3 .1 150-1.1 180-1.3M160 318c23.3 .3 86.7 1.3 140 1.4 53.3 0 123.3-1 180-1.1 56.7 0 110 1 160 .9 50-.1 116.7-1.2 140-1.4M395.2 326.1l88.1-.3M267 330.2l71.1 0M595.2 331.8l29.8-.2M562.2 335.5l65-.4M622.5 339.9l28.2-.7M427.6 343l47.8-.2M540.8 346.8l38.6 0M457.9 349.4l52.2 .4M728.4 353.8l13.8-.5M645.9 356.9l17.8 .4M507 360l34.2-.2M329.2 364l23.1 .1M623.1 367.6l40.7-.6M250 370.5l8.3-.6M729.3 373.7l22.5 .2M446 376.6l11.6-.3" stroke-width=".7" opacity=".45"/>
<path d="M85.3 265.2c-.4 .3-1.5 2-2.2 2.1-.8 .2-2.3-.7-2.4-1.1-.1-.4 1.1-1.4 1.6-1.3 .5 .1 1.6 1.4 1.3 2.1-.2 .7-1.8 1.9-2.8 2-1 .2-2.8-.7-3.3-1.1-.4-.4 .1-1.2 .3-1.1 .3 .1 1.5 1.2 1.1 1.8-.3 .6-2.1 1.7-3.2 1.8-1.2 .1-3.2-.9-3.7-1.4-.5-.5 .4-1.5 .5-1.5 .1 0 .7 1.1 .3 1.6-.4 .6-1.5 1.6-2.7 1.6-1.2 0-3.8-1.2-4.4-1.7-.5-.6 .7-1.7 1-1.8 .2 0 1.1 1 .7 1.4-.4 .5-2 1.5-3.1 1.4-1.1-.1-3.2-1.4-3.5-2-.3-.7 1.1-1.7 1.5-1.9 .4-.1 1.2 .8 .9 1.2-.3 .4-1.7 1.3-2.5 1.2-.8-.1-2.2-1.2-2.4-1.9-.2-.8 .8-2.3 1.3-2.4 .6-.2 2 .9 2 1.3 0 .4-1.4 1.2-2 1-.7-.2-1.9-1.3-1.8-1.9 .1-.7 1.5-1.8 2.3-1.9 .8-.1 2.2 1 2.4 1.4 .2 .5-.8 1.4-1.2 1.3-.5-.1-1.6-1.2-1.4-1.9 .3-.6 1.9-1.7 2.9-1.8 .9 0 2.5 1 2.8 1.5 .4 .4-.3 1.4-.6 1.3-.2 0-1-1.1-.7-1.7 .3-.6 1.7-1.6 2.8-1.7 1 0 3.1 1 3.5 1.6 .4 .5-.9 1.6-1.2 1.6-.3 0-1.2-1.1-.7-1.6 .4-.5 2.2-1.6 3.4-1.6 1.2 .1 3.2 1.2 3.5 1.8 .4 .5-1 1.6-1.4 1.6-.5 .1-1.5-1-1.2-1.4 .4-.5 2.3-1.5 3.3-1.4 1 .1 2.5 1.2 2.7 1.8 .2 .6-1 1.7-1.5 1.8-.4 .1-1.6-.9-1.4-1.4 .1-.4 1.6-1.4 2.4-1.3 .8 .1 2.2 1.2 2.2 1.8 .1 .6-1.2 1.8-1.9 1.9-.6 0-1.9-.9-1.9-1.3-.1-.4 1.2-1.3 1.8-1.1 .6 .1 1.8 1.2 1.7 1.9-.2 .6-1.7 1.9-2.5 2-.8 .1-2.2-1-2.4-1.4-.2-.5 1-1.5 1.4-1.4 .5 .1 1.7 1.2 1.4 1.9-.3 .6-2.1 1.8-3.1 1.8-.9 .1-2.6-.9-2.8-1.4-.2-.5 1.1-1.6 1.6-1.5 .4 0 1.3 1.1 .9 1.7-.5 .6-2.4 1.7-3.4 1.7-1.1 0-2.7-1.1-2.9-1.6-.3-.6 1.1-1.6 1.5-1.7 .4 0 1.2 1.1 1 1.6-.3 .5-1.7 1.5-2.7 1.5-1 0-3.1-1.2-3.3-1.8-.3-.6 1.3-1.6 1.7-1.7 .5 0 1.4 .9 1.1 1.4-.2 .4-1.9 1.3-2.7 1.2-.9 0-2.3-1.1-2.3-1.7-.1-.6 1.2-1.7 1.8-1.8 .5-.1 1.6 .8 1.5 1.2-.1 .4-1.5 1.4-2.2 1.3-.7-.1-2-1.3-2-1.9 0-.6 1.3-1.8 2-1.9 .7 0 2.2 1 2.2 1.4 .1 .5-1.3 1.6-1.8 1.6-.6-.1-1.7-1.3-1.6-1.9 .1-.6 1.5-1.7 2.3-1.7 .8 0 2.1 1.2 2.5 1.5M109.9 276.4c-.3 .3-1.2 1.8-1.8 1.9-.6 .2-1.7-.8-1.8-1-.2-.3 .5-.8 .8-.7 .3 .2 1.2 1.1 1 1.7-.3 .5-1.6 1.5-2.5 1.6-.8 .1-2.2-.6-2.7-.9-.4-.4 .3-1.1 .3-1-.1 .1 .1 1.1-.3 1.6-.4 .4-1.4 1.3-2.3 1.3-.9 0-2.4-.8-3-1.2-.6-.4-.5-1.3-.6-1.3 0 0 .7 .8 .3 1.2-.4 .3-1.9 1.1-2.8 1.1-.9-.1-2.2-1-2.5-1.5-.3-.5 .5-1.4 .7-1.5 .1-.1 .7 .6 .4 .9-.4 .3-1.8 1-2.5 .8-.8-.1-2.1-1.1-2.2-1.6-.2-.6 .9-1.4 1.4-1.6 .4-.1 1.3 .6 1.3 .9-.1 .2-1.2 .8-1.8 .7-.5-.1-1.5-1-1.5-1.6 .1-.5 1.3-1.5 2-1.6 .7-.1 2 .6 2.2 .9 .2 .4-.5 1.1-.9 1-.3 0-1.5-.8-1.2-1.3 .2-.5 1.8-1.5 2.7-1.6 .8 0 2 .8 2.4 1.2 .4 .4 .1 1.1-.1 1.1-.1 0-1.2-.9-.9-1.3 .4-.5 2.1-1.3 3-1.4 1 0 2.5 .9 2.8 1.3 .4 .5-.4 1.3-.6 1.4-.1 0-.6-.8-.3-1.2 .4-.4 1.5-1.2 2.4-1.2 .8 .1 2.5 1 2.8 1.5 .2 .5-1 1.3-1.3 1.4-.4 0-1.2-.8-1-1.1 .2-.4 1.7-1.1 2.4-1 .7 .1 1.9 1 1.9 1.5 .1 .5-.9 1.4-1.4 1.5-.4 .1-1.5-.7-1.5-1 0-.3 1-1 1.5-1 .5 .1 1.5 1 1.4 1.5 0 .5-1.3 1.6-1.9 1.7-.7 .1-1.9-.7-2-1.1-.2-.3 .7-1.1 1-1 .3 .1 1.1 1 .9 1.5-.3 .5-1.6 1.5-2.4 1.5-.8 .1-2.1-.7-2.4-1.1-.4-.4 .2-1.2 .4-1.2 .3 .1 1.3 .9 1 1.4-.4 .4-2.1 1.2-2.9 1.2-.8 0-1.9-.8-2.1-1.3-.3-.4 .6-1.3 .8-1.3 .3-.1 .9 .7 .7 1.1-.3 .4-1.5 1.2-2.2 1.1-.8 0-2-.9-2.2-1.4-.1-.5 .8-1.4 1.1-1.5 .4-.1 1.4 .7 1.2 1-.1 .4-1.4 1.1-2 1-.7-.1-1.7-1.1-1.8-1.6 0-.5 1-1.4 1.6-1.5 .5-.1 1.6 .7 1.6 1 .1 .4-.9 1.2-1.4 1.1-.4 0-1.4-.9-1.3-1.4 .1-.4 1.3-1.4 1.9-1.4 .7-.1 1.6 1 1.9 1.2M143.1 264.7c-.4 .3-1.3 1.8-2 2-.7 .1-2-.7-2.2-.9-.2-.3 .7-1.1 1.1-.9 .4 .1 1.4 1.2 1.2 1.8-.3 .6-1.6 1.6-2.6 1.8-1 .1-2.9-.6-3.4-.9-.4-.4 .5-1.3 .7-1.2 .2 .1 .9 1.2 .5 1.7-.5 .5-2 1.6-3 1.6-1 0-2.5-.9-2.9-1.4-.4-.4 .1-1.3 .3-1.3 .2 0 1.2 .9 .8 1.4-.5 .5-2.5 1.4-3.6 1.4-1.1-.1-2.5-1-3-1.6-.5-.5-.1-1.6 0-1.7 .1-.1 1.1 .8 .7 1.2-.3 .4-1.8 1.3-2.7 1.2-1-.1-2.6-1.3-2.8-1.9-.3-.5 .9-1.5 1.3-1.7 .4-.1 1.3 .7 1.1 1.1-.1 .3-1.5 1.2-2.2 1-.7-.1-2-1.1-2.1-1.8-.1-.6 1-2 1.5-2.2 .6-.1 1.9 .9 1.9 1.3 0 .4-1.1 1.2-1.6 1.1-.5-.1-1.6-1.2-1.5-1.7 .2-.6 1.5-1.6 2.3-1.7 .8-.1 2.4 .7 2.6 1.1 .3 .4-.8 1.3-1.1 1.2-.3 0-1.1-1.1-.8-1.6 .3-.6 1.7-1.6 2.7-1.6 .9-.1 2.6 .8 3 1.3 .3 .4-.9 1.4-1.1 1.3-.3 0-.6-1-.2-1.5 .5-.5 1.9-1.4 2.8-1.4 .9 0 2.2 .9 2.6 1.4 .5 .5 .2 1.5 0 1.5-.1 0-1.3-.9-.9-1.3 .3-.5 2.1-1.4 3-1.3 .8 0 1.9 .9 2.1 1.5 .3 .5-.3 1.6-.5 1.7-.3 0-1.3-.9-1.1-1.3 .2-.4 1.7-1.2 2.4-1.2 .8 .1 2.2 1.2 2.3 1.7 .1 .6-1.1 1.6-1.7 1.6-.5 .1-1.6-.7-1.6-1.2 .1-.4 1.3-1.3 1.8-1.2 .6 0 1.8 1.2 1.8 1.8-.1 .6-1.4 1.7-2.1 1.8-.7 .1-2-.7-2.2-1.1-.1-.4 .9-1.2 1.4-1.1 .4 0 1.7 1 1.5 1.5-.2 .6-1.9 1.7-2.7 1.8-.8 .1-2-.9-2.3-1.3-.2-.4 .6-1.3 .8-1.2 .3 .1 1.3 1.1 1 1.6-.3 .5-1.7 1.5-2.6 1.5-.9 0-2.6-.9-2.9-1.4-.2-.5 1-1.4 1.3-1.4 .4 0 1.3 .9 .9 1.4-.3 .5-1.9 1.4-2.9 1.4-1-.1-2.6-1.1-2.9-1.6-.2-.6 .9-1.5 1.3-1.6 .4 0 1.4 .9 1.1 1.3-.2 .4-1.6 1.3-2.4 1.2-.8-.1-2.2-1.1-2.3-1.7-.1-.5 1-1.5 1.5-1.6 .5-.1 1.5 .7 1.4 1.1-.1 .4-1.3 1.3-1.9 1.3-.7-.1-1.9-1.3-2-1.9 0-.5 1.3-1.4 1.9-1.5 .6-.1 1.8 .8 1.9 1.2 0 .4-1.1 1.3-1.6 1.2-.5 0-1.6-1-1.6-1.5 .1-.6 1.4-1.6 2.1-1.6 .8 0 2 1.1 2.3 1.3M216.4 281.2c-.2 .3-1 1.5-1.6 1.7-.6 .2-1.9-.3-2.1-.6-.2-.2 .7-.9 1-.8 .2 .2 1 1.1 .8 1.6-.2 .5-1.4 1.4-2.2 1.5-.8 .1-2.3-.6-2.7-.9-.4-.3 .3-1 .5-1 .1 .1 .7 1 .3 1.4-.4 .5-1.8 1.3-2.7 1.4-.9 0-2.3-.8-2.8-1.2-.5-.4-.4-1.2-.5-1.2 0 0 .8 .8 .3 1.1-.4 .4-2 1.1-2.8 1-.9 0-2.2-.9-2.5-1.4-.4-.4 .1-1.4 .3-1.5 .2-.1 1.1 .7 .9 1-.3 .3-1.6 .9-2.3 .8-.7-.1-1.8-.9-1.9-1.5-.2-.5 .5-1.5 .9-1.7 .4-.2 1.3 .5 1.3 .8 0 .2-1 1-1.5 .9-.5-.1-1.4-1.1-1.4-1.6 .1-.5 1.2-1.4 1.8-1.5 .6 0 1.7 .7 1.9 1 .2 .4-.4 1-.7 .9-.2-.1-.9-1-.7-1.4 .2-.5 1.2-1.3 2-1.3 .8-.1 2.4 .6 2.7 1 .4 .3-.3 1.1-.5 1.1-.2 0-1-.8-.6-1.3 .3-.4 1.7-1.2 2.6-1.2 .9 0 2.3 .8 2.7 1.2 .4 .4-.1 1.2-.3 1.3-.1 0-1-.8-.6-1.2 .3-.3 1.7-1.1 2.6-1 .8 0 2 .9 2.2 1.3 .2 .5-.7 1.3-1.1 1.3-.3 .1-1.1-.7-.9-1 .2-.3 1.5-1 2.2-.9 .7 0 1.8 .9 1.9 1.4 .1 .5-1 1.3-1.4 1.3-.5 .1-1.4-.5-1.4-.8 0-.3 1-1.1 1.4-1 .5 .1 1.4 1 1.3 1.5-.1 .5-1.2 1.4-1.8 1.5-.6 .1-1.7-.7-1.9-1-.1-.3 .6-1 .9-.9 .2 .1 .8 1 .6 1.5-.2 .5-1.1 1.2-1.9 1.3-.7 0-2.2-.7-2.5-1-.4-.4 .2-1.2 .5-1.1 .3 0 1.4 .8 1.2 1.2-.3 .4-1.7 1.2-2.5 1.2-.8 0-2-.8-2.3-1.3-.3-.4 .2-1.2 .5-1.3 .2 0 1.2 .8 1 1.1-.2 .4-1.5 1.1-2.2 1.1-.8-.1-2-1-2.2-1.4-.2-.5 .8-1.3 1.2-1.4 .3 0 1.1 .6 1 1-.1 .3-1.1 1-1.7 1-.6-.1-1.7-1-1.7-1.5-.1-.5 .9-1.5 1.4-1.5 .5-.1 1.5 .6 1.6 1 0 .3-.9 1-1.3 1-.4-.1-1.4-.9-1.3-1.3 .1-.5 1.3-1.3 1.9-1.4 .6 0 1.4 1 1.7 1.2M703.9 266.5c-.3 .3-1.1 1.4-1.8 1.6-.6 .1-2-.3-2.2-.5-.2-.2 .6-.9 .9-.8 .4 .1 1.6 .8 1.3 1.4-.3 .5-2.1 1.7-3 1.8-.8 .2-1.9-.7-2.4-1-.4-.3-.1-1-.1-.9 0 .1 .6 1 .2 1.5-.5 .4-2.1 1.3-3 1.4-1 0-2.3-.9-2.8-1.3-.4-.4 0-1.3 .1-1.3 .1 0 .9 .8 .5 1.2-.4 .4-1.9 1.2-2.8 1.1-1 0-2.5-1-2.9-1.5-.3-.5 .5-1.4 .7-1.5 .1-.1 .4 .5 .1 .8-.3 .3-1.2 1.2-2 1.1-.7-.2-2.2-1.2-2.4-1.8-.2-.6 .7-1.7 1.1-1.8 .5-.1 1.6 .7 1.6 1.1-.1 .3-1.2 1-1.7 .8-.6-.1-1.6-1.1-1.6-1.6 .1-.6 1.3-1.6 2-1.7 .7-.1 2 .6 2.2 .9 .1 .4-.9 1.3-1.2 1.2-.3-.1-.8-1.1-.6-1.6 .3-.5 1.3-1.3 2.1-1.4 .9-.1 2.5 .7 2.9 1.1 .4 .3-.3 1.2-.5 1.1-.2 0-1.1-.9-.7-1.3 .4-.5 2.2-1.3 3.1-1.4 .9 0 2 .9 2.4 1.3 .3 .5 0 1.3-.2 1.4-.1 0-1-.8-.6-1.2 .3-.4 1.6-1.3 2.5-1.2 .9 0 2.4 1 2.7 1.5 .3 .4-.5 1.4-.8 1.4-.3 .1-1.3-.7-1.1-1.1 .2-.3 1.5-1.1 2.2-1 .7 .1 1.8 .9 1.9 1.4 0 .5-.9 1.5-1.4 1.5-.5 .1-1.5-.6-1.5-.9 0-.4 1-1.1 1.5-1 .5 .1 1.5 1 1.4 1.5 0 .6-1.3 1.6-2 1.7-.7 .1-1.9-.6-2.1-1-.1-.3 .9-1.2 1.2-1.1 .3 .1 .8 1.2 .5 1.7-.3 .5-1.5 1.4-2.3 1.4-.8 0-2.2-.8-2.4-1.2-.3-.3 .6-1.2 .9-1.2 .2 0 1 .9 .7 1.4-.3 .4-1.7 1.2-2.6 1.2-.9 0-2.4-.9-2.7-1.3-.3-.5 .6-1.3 .9-1.4 .3 0 1 .8 .8 1.2-.3 .3-1.5 1.1-2.2 1.1-.7-.1-2-1-2.1-1.5-.2-.5 .9-1.3 1.2-1.4 .4-.1 1.1 .6 1 .9-.2 .3-1.2 1.1-1.8 1.1-.6-.1-1.7-1-1.7-1.5 0-.5 1-1.4 1.5-1.5 .6-.1 1.6 .6 1.7 .9 0 .4-1 1.2-1.5 1.1-.4 0-1.4-.9-1.3-1.4 .1-.5 1.3-1.4 2-1.4 .6-.1 1.5 1 1.9 1.2M727.4 273c-.3 .4-1.3 1.8-2.1 2-.8 .2-2.3-.6-2.5-.9-.1-.3 1-1.2 1.5-1.1 .5 .2 1.5 1.4 1.3 2-.2 .7-1.7 1.9-2.7 2-1.1 .2-3-.6-3.4-1.1-.3-.4 1-1.4 1.2-1.3 .2 .1 .4 1.4 0 2.1-.5 .6-1.5 1.6-2.6 1.6-1.1 .1-3.5-.8-4.1-1.3-.6-.5 .2-1.5 .5-1.5 .3 0 1.6 1.1 1.3 1.6-.4 .5-2.4 1.6-3.7 1.6-1.3 0-3.7-1.2-4.3-1.7-.5-.6 .5-1.7 .8-1.8 .4 0 1.7 1 1.3 1.5-.4 .4-2.7 1.3-3.7 1.2-1.1-.1-2.4-1.1-2.7-1.8-.4-.6 .5-1.8 .7-2 .3-.2 1.1 .7 .8 1-.3 .4-1.8 1.3-2.6 1.2-.8-.1-2-1.1-2.1-1.8-.1-.7 .9-2.1 1.5-2.2 .5-.2 1.9 .8 1.9 1.2 0 .4-1.4 1.2-2 1-.7-.1-2-1.1-1.9-1.8 .1-.6 1.6-1.8 2.4-2 .8-.1 2.3 .9 2.5 1.3 .2 .5-.7 1.4-1.2 1.3-.5-.1-1.9-1.1-1.7-1.7 .2-.6 2-1.8 3.1-1.9 1 0 2.6 1 2.9 1.4 .4 .5-.7 1.5-1 1.5-.3-.1-1.1-1.2-.7-1.8 .3-.5 1.9-1.6 3-1.6 1.1-.1 3.1 1 3.6 1.5 .5 .5-.2 1.5-.5 1.6-.2 0-1.4-1.1-1.1-1.6 .3-.5 2.1-1.6 3.2-1.6 1 .1 2.9 1.2 3.3 1.7 .4 .6-.7 1.7-1 1.8-.4 0-1.4-1-1.2-1.5 .3-.5 1.7-1.5 2.6-1.5 1 .1 3 1.3 3.3 2 .2 .6-1.1 1.7-1.6 1.7-.5 .1-1.7-.9-1.5-1.4 .1-.4 1.5-1.4 2.3-1.3 .8 .1 2.3 1.3 2.4 1.9 .1 .6-1.2 1.8-1.9 1.9-.7 .1-2-.9-2-1.3-.1-.4 1.2-1.4 1.8-1.3 .6 .1 1.9 1.2 1.8 1.8-.1 .7-1.6 1.8-2.4 2-.8 .1-2.4-.8-2.6-1.2-.2-.4 .8-1.4 1.2-1.3 .4 .1 1.4 1.3 1.2 1.9-.2 .6-1.4 1.6-2.3 1.6-.9 .1-2.5-.9-2.9-1.4-.3-.4 .5-1.4 .8-1.4 .3 .1 1.2 1.2 .9 1.7-.2 .6-1.7 1.7-2.6 1.7-.9 0-2.6-1.1-2.9-1.6-.3-.6 .6-1.6 1-1.7 .3 0 1.5 1.1 1.1 1.6-.3 .5-2.2 1.5-3.2 1.4-.9 0-2.5-1.1-2.7-1.7-.2-.6 .9-1.7 1.4-1.8 .4 0 1.4 .9 1.3 1.4-.2 .5-1.4 1.6-2.2 1.5-.8-.1-2.6-1.3-2.7-1.9-.2-.6 1.1-1.8 1.7-1.8 .6-.1 1.8 .9 1.7 1.3-.1 .4-1.6 1.3-2.3 1.2-.7-.1-2-1.3-2-1.9 0-.6 1.3-1.8 2-1.9 .8 0 2.1 1 2.2 1.5 .1 .4-1.2 1.4-1.7 1.4-.6-.1-1.8-1.2-1.7-1.8 .2-.6 1.6-1.7 2.4-1.7 .9-.1 2.1 1.2 2.5 1.4M755.6 269.5c-.3 .3-1.2 1.6-1.8 1.8-.6 .1-1.9-.6-2.1-.8-.1-.3 .8-1 1.1-.8 .3 .2 1 1.3 .6 1.9-.3 .7-1.8 1.7-2.7 1.8-.9 .1-2.3-.7-2.6-1.1-.4-.4 .5-1.2 .7-1.1 .2 0 1 1 .6 1.5-.4 .5-1.8 1.5-2.9 1.6-1.2 0-3.3-.8-3.8-1.3-.6-.4 .3-1.3 .5-1.3 .1 0 .9 .9 .5 1.3-.5 .4-2.2 1.3-3.2 1.3-1.1-.1-2.5-1.1-3-1.6-.4-.5 .2-1.5 .4-1.6 .1-.1 .8 .7 .4 1-.4 .3-1.8 1.1-2.6 1-.8-.1-2-1-2.2-1.6-.2-.5 .6-1.6 1-1.8 .4-.1 1.4 .6 1.2 .9-.1 .3-1.3 1-2 .8-.6-.1-1.7-1.2-1.7-1.7 0-.6 1.1-1.5 1.8-1.6 .6-.1 1.9 .6 2 .9 .1 .4-1 1.3-1.4 1.2-.4-.1-1.2-1.1-1-1.7 .2-.5 1.4-1.4 2.2-1.5 .8-.1 2.4 .7 2.7 1.1 .3 .4-.5 1.2-.8 1.2-.3-.1-1.3-1-.9-1.5 .4-.5 2.4-1.5 3.3-1.5 1-.1 2 .9 2.4 1.3 .3 .4-.2 1.3-.3 1.3-.2 0-1.1-.9-.7-1.3 .3-.5 1.8-1.4 2.7-1.4 .9 .1 2.4 1 2.8 1.5 .4 .5-.1 1.4-.3 1.5-.2 0-1.1-.8-.9-1.2 .3-.4 1.5-1.3 2.3-1.2 .8 0 2.2 1 2.4 1.5 .2 .5-.6 1.6-1 1.6-.4 .1-1.5-.8-1.3-1.1 .1-.4 1.4-1.1 2.1-1.1 .6 .1 1.7 1 1.7 1.5 0 .6-1.1 1.6-1.7 1.7-.6 .1-1.7-.7-1.8-1.1-.1-.3 1-1.1 1.4-1 .5 .1 1.5 1.1 1.3 1.7-.1 .6-1.5 1.6-2.2 1.7-.8 .1-2.2-.7-2.5-1.1-.2-.4 .7-1.2 1-1.2 .4 .1 1.4 1 1.2 1.5-.2 .5-1.6 1.5-2.5 1.5-.8 .1-2.3-.8-2.7-1.2-.4-.4 .1-1.3 .4-1.3 .2 0 1.4 .9 1.2 1.3-.2 .5-1.5 1.4-2.4 1.4-.9-.1-2.7-1-3-1.5-.3-.5 .9-1.4 1.3-1.4 .3-.1 .9 .7 .7 1.1-.3 .4-1.3 1.3-2.1 1.3-.7-.1-2.1-1.1-2.3-1.6-.2-.5 .8-1.5 1.2-1.6 .4-.1 1.4 .7 1.3 1-.1 .4-1.3 1.2-2 1.1-.6-.1-1.8-1.1-1.8-1.6 0-.6 1.1-1.4 1.7-1.5 .6-.1 1.7 .7 1.8 1.1 0 .4-1.1 1.2-1.5 1.2-.5-.1-1.5-1.1-1.4-1.6 .1-.5 1.3-1.4 2-1.5 .7 0 1.8 1 2.2 1.2M46.1 304.3c-.5 .5-2 2.7-3.1 2.9-1.1 .3-3.2-1-3.4-1.5-.2-.5 1.4-1.7 2.3-1.6 .8 .2 2.9 1.7 2.7 2.7-.3 .9-3 3.1-4.3 3.2-1.2 .2-3.1-1.5-3.3-2.2-.3-.7 1.3-2.1 1.8-1.9 .5 .2 1.8 2.1 1.3 3.1-.5 .9-2.9 2.6-4.3 2.8-1.4 .1-3.8-1.4-4.3-2.1-.4-.7 1-2.2 1.6-2.1 .5 0 2.5 1.7 1.9 2.5-.6 .9-3.9 2.7-5.5 2.8-1.7 0-3.9-1.6-4.3-2.3-.4-.8 1.3-2.4 1.8-2.4 .6 0 2.1 1.7 1.4 2.5-.7 .8-4 2.4-5.5 2.4-1.5 0-3-1.7-3.5-2.5-.4-.8 .3-2.5 .7-2.5 .4-.1 2.2 1.5 1.8 2.2-.4 .8-2.4 2.4-4 2.3-1.7-.1-5.5-2-6-2.9-.5-.9 1.9-2.5 2.7-2.5 .8-.1 2.4 1.4 2 2.1-.5 .7-3.3 2-4.7 1.9-1.4-.2-3.5-1.8-3.8-2.7-.3-1 1.3-2.8 2-2.9 .6-.2 2.3 1.2 2 1.8-.2 .6-2.5 2-3.7 1.8-1.3-.2-3.4-2-3.5-3-.2-.9 1.8-2.6 2.8-2.8 .9-.1 2.8 1.3 2.7 1.9 0 .7-2 2.2-3 2-1-.1-3-1.9-2.9-2.8 0-1 2.2-2.9 3.3-3 1.1-.2 3.3 1.3 3.4 2 .1 .8-2 2.4-2.8 2.3-.9 0-2.5-1.8-2.3-2.8 .3-.9 2.5-2.6 3.8-2.7 1.3-.1 3.8 1.3 4 2 .3 .7-1.8 2.4-2.5 2.3-.8 0-2.3-1.8-1.9-2.7 .4-.9 2.9-2.5 4.3-2.6 1.3-.1 3.6 1.5 3.9 2.2 .4 .8-1.2 2.3-1.7 2.3-.4-.1-1.4-1.8-1-2.7 .4-.8 2-2.3 3.4-2.4 1.3 0 4.3 1.6 4.7 2.3 .4 .8-1.5 2.4-2.1 2.4-.7 0-2.5-1.6-1.9-2.4 .6-.8 3.8-2.4 5.5-2.4 1.6 0 3.9 1.6 4.2 2.5 .3 .8-1.9 2.4-2.4 2.4-.6 .1-1.3-1.4-.9-2.2 .4-.8 1.9-2.4 3.1-2.4 1.2 .1 3.7 1.7 4.2 2.6 .4 .8-1.1 2.5-1.7 2.6-.6 0-2.3-1.5-2-2.2 .4-.7 2.6-2.3 3.9-2.2 1.4 .1 4 1.9 4.3 2.8 .3 .9-1.7 2.5-2.5 2.6-.9 .1-2.7-1.5-2.6-2.2 .2-.7 2.2-2.3 3.4-2.2 1.1 .1 3.4 1.9 3.5 2.8 .2 .9-1.9 2.6-2.8 2.7-1 0-3-1.6-3-2.3 .1-.7 2.1-2.2 3.1-2 1 .1 3 1.9 2.9 2.9 0 .9-2.1 2.5-3.1 2.6-1.1 .1-3.2-1.4-3.3-2-.1-.7 1.6-2 2.4-1.9 .9 .2 2.7 1.9 2.5 2.8-.1 .9-2.3 2.6-3.5 2.7-1.3 .1-3.8-1.3-4-2-.3-.7 1.7-2.3 2.5-2.2 .7 .1 2.4 1.8 2.1 2.7-.2 .8-2.5 2.5-3.8 2.6-1.3 0-3.6-1.5-3.9-2.2-.3-.8 1.6-2.4 2.2-2.3 .6 .1 1.8 1.8 1.5 2.6-.3 .9-2 2.4-3.4 2.4-1.4 .1-4.5-1.5-4.8-2.2-.4-.8 1.8-2.4 2.6-2.4 .7 0 2.4 1.6 2 2.4-.3 .7-2.8 2.3-4.2 2.3-1.4 0-3.7-1.6-4.1-2.4-.4-.9 1-2.5 1.7-2.6 .6 0 2.6 1.6 2.3 2.3-.3 .8-2.8 2.3-4.1 2.2-1.3 0-3.4-1.7-3.7-2.5-.2-.9 1.3-2.6 2-2.7 .7-.1 2.4 1.4 2.3 2.1-.2 .7-2.1 2.3-3.2 2.3-1.1-.1-3.2-1.7-3.3-2.6-.2-.9 1.4-2.6 2.3-2.7 .8-.2 2.7 1.4 2.6 2.1-.2 .7-2.4 2.1-3.4 2-1.1-.1-3.1-1.7-3.1-2.6-.1-.9 1.8-2.6 2.8-2.7 .9-.2 2.9 1.2 2.9 1.9 0 .7-2 2.3-3 2.2-.9 0-2.9-1.8-2.8-2.7 0-.8 2-2.5 3.1-2.5 1.1-.1 3.3 1.4 3.4 2.1 .1 .7-1.7 2.2-2.6 2.2-.9-.1-2.8-1.7-2.7-2.6 .1-.8 2.2-2.4 3.3-2.4 1.2-.1 3.1 1.8 3.7 2.1M867.2 311c-.4 .5-1.9 2.7-2.9 3-1 .2-2.9-1.1-3.1-1.6-.1-.6 1.4-1.8 2.1-1.6 .7 .2 2.3 1.8 2.1 2.7-.3 .9-2.5 2.5-3.6 2.7-1.2 .1-3.1-1.3-3.4-1.9-.3-.6 1.2-1.9 1.7-1.7 .5 .1 2 1.7 1.4 2.6-.6 .9-3.4 2.6-4.8 2.7-1.4 .1-3.4-1.3-3.8-1.9-.4-.7 .8-2 1.4-2 .5 .1 2.6 1.5 2 2.2-.6 .8-4 2.4-5.6 2.5-1.6 .1-3.4-1.4-3.9-2.1-.4-.7 .8-2.1 1.2-2.1 .4 0 1.8 1.4 1.3 2.1-.5 .7-3 2.1-4.4 2.1-1.5-.1-3.6-1.5-4.1-2.3-.5-.8 .6-2.3 .9-2.4 .4-.1 1.6 1.3 1 1.9-.5 .6-3 1.9-4.2 1.8-1.3-.1-3.1-1.6-3.4-2.3-.2-.8 1.4-2.3 2-2.5 .6-.1 1.9 1.2 1.5 1.8-.4 .5-2.4 1.9-3.6 1.7-1.2-.2-3.5-1.9-3.8-2.8-.2-.9 1.6-2.3 2.3-2.5 .7-.1 2.3 1.1 2.2 1.6-.2 .6-2.1 1.9-3 1.7-1-.2-2.9-1.8-3-2.7 0-1 1.8-2.7 2.7-2.9 1-.1 2.8 1.5 2.8 2.1 .1 .7-1.6 1.8-2.3 1.7-.8-.2-2.4-1.7-2.3-2.6 .2-.8 2.3-2.4 3.3-2.4 1.1-.1 2.9 1.3 3.1 2 .2 .6-1.1 1.9-1.8 1.8-.6-.1-2.2-1.6-1.8-2.4 .4-.8 3-2.5 4.2-2.6 1.3 0 3 1.4 3.2 2.1 .2 .7-1.4 2.1-1.8 2-.4 0-1.1-1.6-.5-2.4 .6-.8 2.7-2.2 3.9-2.3 1.3 0 3.1 1.5 3.4 2.2 .3 .7-1 2.1-1.5 2.1-.5 0-1.9-1.5-1.5-2.2 .3-.7 2.4-2.2 3.8-2.2 1.4 0 3.8 1.5 4.3 2.2 .5 .8-.8 2.2-1.2 2.3-.5 0-2-1.4-1.7-2.1 .4-.7 2.3-2.1 3.6-2.1 1.3 .1 3.6 1.6 4 2.4 .4 .7-1.3 2.2-1.8 2.3-.5 .1-1.4-1.2-1.1-1.8 .2-.7 1.7-2.2 2.9-2.1 1.1 .1 3.7 1.7 4 2.6 .3 .8-1.4 2.3-2.2 2.4-.7 0-2.6-1.4-2.4-2.1 .1-.6 2.2-1.9 3.2-1.8 1 .2 2.9 1.7 3 2.5 0 .8-1.8 2.3-2.7 2.4-.9 .1-2.7-1.3-2.7-1.9 0-.6 1.8-1.9 2.6-1.8 .9 .1 2.7 1.6 2.6 2.4-.1 .8-2 2.5-3.1 2.6-1 .2-2.9-1.2-3-1.8-.2-.6 1.5-1.9 2.2-1.8 .7 .1 2.2 1.7 2 2.5-.2 .8-2.2 2.3-3.4 2.5-1.2 .1-3.4-1.2-3.7-1.8-.4-.6 1.2-2 1.8-2 .7 .1 2.3 1.6 2 2.3-.3 .8-2.7 2.4-3.9 2.4-1.1 .1-3-1.4-3.2-2.1-.2-.7 1.5-2.1 2-2.1 .4 .1 1.1 1.6 .8 2.3-.4 .8-1.7 2.2-2.9 2.2-1.2 0-4.2-1.5-4.5-2.2-.4-.7 1.8-2.2 2.4-2.2 .6 0 1.4 1.4 1 2.1-.3 .7-2.1 2.1-3.2 2-1.1 0-2.9-1.4-3.3-2.2-.3-.8 .9-2.3 1.4-2.4 .5-.1 2.1 1.3 1.8 1.9-.3 .6-2.4 2-3.5 1.9-1.1-.1-2.9-1.5-3-2.3-.2-.8 1.3-2.4 2-2.5 .7-.1 2.6 1.4 2.4 2-.1 .6-2.2 1.8-3.2 1.7-1-.1-2.9-1.6-2.9-2.4 0-.8 1.8-2.2 2.7-2.3 .8 0 2.5 1.3 2.5 1.9 0 .5-1.9 1.8-2.8 1.6-.9-.1-2.6-1.5-2.6-2.3 .1-.8 1.9-2.3 2.9-2.3 .9-.1 2.8 1.3 2.9 1.9 .1 .7-1.7 2.1-2.5 2.1-.7-.1-2.2-1.7-2.1-2.5 .2-.8 2.2-2.3 3.2-2.3 1 0 2.4 1.7 2.9 2.1M888.9 309.3c-.4 .3-1.5 2-2.4 2.2-.8 .2-2.5-.5-2.7-.9-.2-.4 1.2-1.5 1.7-1.4 .6 .2 1.9 1.4 1.7 2.2-.3 .7-2.3 2.2-3.3 2.3-1.1 .2-2.6-1-3-1.4-.5-.4 .2-1.4 .5-1.2 .3 .1 1.7 1.3 1.1 2-.5 .7-3.1 2.1-4.3 2.2-1.2 0-2.4-1.2-2.8-1.7-.5-.6 .1-1.6 .2-1.6 .2 0 1.2 1.2 .7 1.8-.4 .6-2.1 1.8-3.3 1.8-1.3 0-3.5-1.2-4-1.8-.5-.6 .7-1.8 1-1.9 .2 0 .8 1.1 .3 1.6-.5 .5-2.3 1.6-3.4 1.5-1.1 0-2.9-1.3-3.3-2-.4-.7 .5-2 .8-2.1 .4-.1 1.6 .9 1.3 1.4-.3 .5-2 1.6-3 1.4-1-.1-2.7-1.4-3-2.2-.3-.8 .7-2.4 1.2-2.6 .6-.1 2.2 1.2 2.2 1.6-.1 .5-1.7 1.5-2.5 1.3-.8-.2-2.3-1.7-2.3-2.4 0-.7 1.5-1.9 2.3-2 .8-.1 2.3 1 2.4 1.4 .2 .5-1 1.5-1.6 1.3-.5-.1-1.7-1.4-1.5-2 .2-.7 1.9-2 2.9-2.1 1.1-.1 3 1 3.3 1.5 .3 .5-1.1 1.7-1.5 1.6-.4-.1-1.4-1.3-1-2 .5-.6 2.6-1.9 3.7-1.9 1.2-.1 2.8 1.1 3.2 1.6 .4 .6-.5 1.7-.8 1.7-.3 0-1.4-1.2-1.1-1.8 .4-.6 2.1-1.7 3.3-1.7 1.2 0 3.5 1.2 3.9 1.8 .4 .6-1 1.7-1.4 1.8-.4 0-1.6-1.2-1.2-1.7 .5-.5 2.9-1.6 4-1.6 1 .1 2.1 1.2 2.3 1.8 .2 .7-.7 1.9-1.1 2-.3 .1-1.2-.9-.9-1.5 .2-.5 1.6-1.6 2.5-1.6 .9 .1 2.6 1.3 2.8 2 .2 .7-1 2-1.5 2.1-.6 .1-2-1-1.9-1.5 .1-.5 1.5-1.6 2.3-1.6 .7 .1 2.3 1.5 2.3 2.1 0 .7-1.5 1.9-2.3 2-.8 .1-2.3-.8-2.4-1.2-.1-.5 1.3-1.7 1.9-1.5 .6 .1 1.8 1.5 1.6 2.2-.2 .8-2 2.1-2.9 2.2-.9 0-2.5-1.1-2.7-1.6-.1-.6 1.2-1.7 1.7-1.6 .5 0 1.5 1.3 1.2 2-.4 .7-2.3 2-3.3 2-1 .1-2.5-1.1-2.8-1.7-.4-.5 .3-1.6 .7-1.6 .4 .1 1.9 1.2 1.6 1.8-.3 .6-2.5 1.8-3.6 1.8-1.1 0-2.7-1.2-3-1.8-.3-.6 .6-1.8 1-1.8 .4-.1 1.7 1.1 1.4 1.6-.2 .6-1.9 1.7-2.9 1.6-1 0-2.7-1.2-2.9-1.9-.2-.6 1.1-1.8 1.7-1.9 .5-.1 1.7 1 1.5 1.5-.2 .5-2 1.6-2.9 1.5-.9-.1-2.4-1.3-2.6-2-.1-.7 1.1-2 1.7-2.1 .7-.1 2.2 1.1 2.1 1.5 0 .5-1.6 1.5-2.4 1.4-.8-.1-2.2-1.4-2.2-2 0-.7 1.5-1.9 2.3-2 .8-.1 2.3 1 2.4 1.5 .1 .5-1.3 1.6-1.9 1.6-.6-.1-1.9-1.3-1.8-2 .1-.6 1.6-1.8 2.5-1.8 .9-.1 2.3 1.3 2.8 1.5" stroke-width=".6" opacity=".75"/>
<path d="M70 282q-1.8-7 .3-14M70.2 273.6l-5-4M70.2 272.2l6-3.5M96 290q.6-5.6 2-11.2M97.2 283.3l-4-3.2M97.4 282.2l4.8-2.8M128 280q-2.1-6.3 1.6-12.6M128.9 272.4l-4.5-3.6M129.1 271.2l5.4-3.1M206 294q1.1-5.2-.8-10.5M205.5 287.7l-3.7-3M205.4 286.7l4.5-2.6M690 280q-.1-5.6 1.9-11.2M691.1 273.3l-4-3.2M691.3 272.2l4.8-2.8M712 290q-.8-7 .4-14M712.3 281.6l-5-4M712.3 280.2l6-3.5M744 284q.3-5.9-1.1-11.9M743.3 276.9l-4.2-3.4M743.2 275.7l5.1-3M22 330q1.2-10.5 1.6-21M23 317.4l-7.5-6M23.1 315.3l9-5.2M846 334q.5-9.5 1-18.9M846.6 322.7l-6.7-5.4M846.7 320.8l8.1-4.7M874 328q-2.6-7.7-1.6-15.4M873 318.8l-5.5-4.4M872.9 317.2l6.6-3.9" stroke-width="1" opacity=".8"/>
<path d="M538 44q4-3 7 0q3-3 7 0M566 34q3-2 5 0q2-2 5 0" stroke-width=".8" opacity=".7"/>
</g>
</svg>
